<?xml version="1.0" encoding="utf-8"?>
<!-- Generator: Adobe Illustrator 21.1.0, SVG Export Plug-In . SVG Version: 6.00 Build 0)  -->
<svg version="1.1" id="Layer_1" xmlns="http://www.w3.org/2000/svg" xmlns:xlink="http://www.w3.org/1999/xlink" x="0px" y="0px"
	 viewBox="0 0 45 45" style="enable-background:new 0 0 45 45;" xml:space="preserve">
<style type="text/css">
	.st0{fill:#744C9E;}
</style>
<path class="st0" d="M23,7.3C14.3,7.3,7.3,14.3,7.3,23S14.3,38.8,23,38.8S38.8,31.7,38.8,23S31.7,7.3,23,7.3z M10.6,23.2l12.2,12.2
	C16.1,35.3,10.7,29.9,10.6,23.2L10.6,23.2z M25.8,35.1L10.9,20.2c1.3-5.5,6.2-9.6,12.1-9.6c4.1,0,7.8,2,10,5.1l-1.7,1.5
	c-1.8-2.6-4.9-4.3-8.3-4.3c-4.4,0-8.1,2.8-9.5,6.7l12.9,12.9c3.1-1.1,5.6-3.8,6.4-7.1h-5.4V23h7.9C35.4,28.9,31.3,33.8,25.8,35.1
	L25.8,35.1z"/>
</svg>
