<?xml version="1.0" encoding="utf-8"?>
<!-- Generator: Adobe Illustrator 21.1.0, SVG Export Plug-In . SVG Version: 6.00 Build 0)  -->
<svg version="1.1" id="Layer_1" xmlns="http://www.w3.org/2000/svg" xmlns:xlink="http://www.w3.org/1999/xlink" x="0px" y="0px"
	 viewBox="0 0 45 45" style="enable-background:new 0 0 45 45;" xml:space="preserve">
<style type="text/css">
	.st0{fill:#21609B;}
</style>
<g>
	<path class="st0" d="M37.8,29.6L37.7,30c-2.4,4.7-6.7,7.5-12.7,7.7c-2.8,0.1-5.5-0.7-7.3-1.5c-3.8-1.7-7-4.9-8.8-8.3
		c-2.5-4.9-3-11.6,2.3-16.7c0.1,0-0.6,1.1-0.6,1.1l-0.1,0.5c-3.8,11.8,7.8,21.9,19.1,20.7C32.2,33.2,35.7,31.7,37.8,29.6"/>
	<path class="st0" d="M31,24.7c2.8,0,5.8-1.3,7.6-3.2c-1.5,3.9-6,6.4-11.9,5.6c-5-0.7-9.7-5.7-10.2-10.7c-0.4-3.7,0.9-5.8,3-8.5
		c-0.7,1.4-1,2.5-1.1,3.1C17.5,19,24.6,24.7,31,24.7"/>
	<path class="st0" d="M38.3,14.9c-0.4,1-3,2.9-4.1,3.2c-4.4,0.9-7.3-1.2-8.8-3.6c-0.2-0.4-0.6-1.3-0.7-1.6c-0.6-2-0.3-4.9,1.4-6.5
		c-0.5,1.5-0.6,3.2-0.3,4.3c0.2,0.7,0.7,1.8,1.2,2.6c0.9,1.3,1.5,1.7,2.7,2.4c0.5,0.3,1.1,0.6,1.3,0.6
		C32.1,16.6,34.5,17.5,38.3,14.9"/>
</g>
</svg>
