<?xml version="1.0" encoding="utf-8"?>
<!-- Generator: Adobe Illustrator 21.1.0, SVG Export Plug-In . SVG Version: 6.00 Build 0)  -->
<svg version="1.1" id="OBJECTS" xmlns="http://www.w3.org/2000/svg" xmlns:xlink="http://www.w3.org/1999/xlink" x="0px" y="0px"
	 viewBox="0 0 501.3 532.4" style="enable-background:new 0 0 501.3 532.4;" xml:space="preserve">
<style type="text/css">
	.st0{fill:#3554EF;}
	.st1{fill:#1AFBA6;}
	.st2{opacity:0.18;fill:url(#SVGID_1_);enable-background:new    ;}
	.st3{opacity:0.18;fill:url(#SVGID_2_);enable-background:new    ;}
	.st4{opacity:0.18;fill:url(#SVGID_3_);enable-background:new    ;}
	.st5{opacity:0.18;fill:url(#SVGID_4_);enable-background:new    ;}
	.st6{opacity:0.18;fill:url(#SVGID_5_);enable-background:new    ;}
	.st7{opacity:0.18;fill:url(#SVGID_6_);enable-background:new    ;}
	.st8{opacity:0.18;fill:url(#SVGID_7_);enable-background:new    ;}
	.st9{opacity:0.18;fill:url(#SVGID_8_);enable-background:new    ;}
	.st10{opacity:0.18;fill:url(#SVGID_9_);enable-background:new    ;}
	.st11{opacity:0.61;fill:url(#SVGID_10_);enable-background:new    ;}
	.st12{opacity:0.65;fill:url(#SVGID_11_);enable-background:new    ;}
	.st13{fill:url(#SVGID_12_);}
	.st14{opacity:0.74;fill:url(#SVGID_13_);enable-background:new    ;}
	.st15{opacity:0.3;enable-background:new    ;}
	.st16{clip-path:url(#SVGID_15_);fill:url(#SVGID_16_);}
</style>
<g>
	<g>
		<circle class="st0" cx="250.6" cy="266.2" r="162.3"/>
		<g>
			<g>
				<path class="st1" d="M96.8,229.1L96.8,229.1c0.5,0.7,1.7,2.3,2,2.7C98.7,231.5,98.1,230.7,96.8,229.1z"/>
				
					<linearGradient id="SVGID_1_" gradientUnits="userSpaceOnUse" x1="96.851" y1="401.1795" x2="98.8365" y2="401.1795" gradientTransform="matrix(1 0 0 -1 0 631.659)">
					<stop  offset="0" style="stop-color:#1E256B;stop-opacity:0"/>
					<stop  offset="1" style="stop-color:#1E256B"/>
				</linearGradient>
				<path class="st2" d="M96.8,229.1L96.8,229.1c0.5,0.7,1.7,2.3,2,2.7C98.7,231.5,98.1,230.7,96.8,229.1z"/>
				<path class="st1" d="M96.6,228.8L96.6,228.8L96.6,228.8z"/>
				
					<linearGradient id="SVGID_2_" gradientUnits="userSpaceOnUse" x1="96.6083" y1="402.8295" x2="96.6083" y2="402.8295" gradientTransform="matrix(1 0 0 -1 0 631.659)">
					<stop  offset="0" style="stop-color:#1E256B;stop-opacity:0"/>
					<stop  offset="1" style="stop-color:#1E256B"/>
				</linearGradient>
				<path class="st3" d="M96.6,228.8L96.6,228.8L96.6,228.8z"/>
				<path class="st1" d="M96.6,228.8c0,0,0.1,0.1,0.2,0.3l0,0C96.7,228.9,96.6,228.8,96.6,228.8z"/>
				
					<linearGradient id="SVGID_3_" gradientUnits="userSpaceOnUse" x1="96.6319" y1="402.6795" x2="96.8534" y2="402.6795" gradientTransform="matrix(1 0 0 -1 0 631.659)">
					<stop  offset="0" style="stop-color:#1E256B;stop-opacity:0"/>
					<stop  offset="1" style="stop-color:#1E256B"/>
				</linearGradient>
				<path class="st4" d="M96.6,228.8c0,0,0.1,0.1,0.2,0.3l0,0C96.7,228.9,96.6,228.8,96.6,228.8z"/>
				<path class="st1" d="M139.7,340.7c5.3,11,17.4,8,25.7,19.3c4.7,6.4,4.7,5.6,5.3,13c0.5,6.6-8.3,14.8-0.3,20.9
					c11.7,9.1,30.5-41,32.7-52c2.5-12-1.2-19.9,5.6-31.2c7.9-13.1,22.1-18.9,5.9-32.7c-8.7-7.4-20.9-8.6-31.6-9
					c-9.4-0.4-28.5,2.7-36.9-1.5c-5.2-2.6-4.6-8-8.3-10.3c-2.6-1.6-10.2-0.9-12.1-2.6c-13.7-12.4,0.4-8.7,7.6-15.3
					c4.1-3.7,2.9-7,5.7-9.9c1.9-1.9,5.7-5.7,7.3-7.5c10.9-12.1,23.1-10.7,35.8-17.9c17.7-10.1,8.5-16.4-1.3-25.8
					c-4.3-4.1-12.2-11-15.3-15.9c-2.2-3.3-1-11-4.5-13.1c-3-2.2-13.1-4.7-19.6-3.2c-22.1,20.2-38.6,46.3-46.9,76
					c0.3,2.6,1,5,2.5,6.9c1.3,1.7,1.8,2.4,2,2.7c-0.3-0.4-1.5-2-2-2.7c8.4,11.2-1.6,24.5,1.8,36.6c5.9,21,11.8,11.2,26.1,14.2
					c10.7,2.2,11.5,10.3,14.7,21.3C143,313.6,133.6,327.9,139.7,340.7z"/>
				
					<linearGradient id="SVGID_4_" gradientUnits="userSpaceOnUse" x1="100.9069" y1="361.4295" x2="215.5759" y2="361.4295" gradientTransform="matrix(1 0 0 -1 0 631.659)">
					<stop  offset="0" style="stop-color:#1E256B;stop-opacity:0"/>
					<stop  offset="1" style="stop-color:#1E256B"/>
				</linearGradient>
				<path class="st5" d="M173.7,388.3c-0.5-0.6-0.3-1.7,1.2-5.6c1.2-3,2.5-6.5,2.2-10.2c-0.6-7.6-1.1-9-5.1-14.4
					c-0.4-0.6-0.9-1.2-1.4-1.9c-5-6.9-11.2-9.6-16.2-11.7c-4.7-2-7.3-3.3-8.9-6.6c-2.4-5.1-1.4-11-0.2-17.8
					c1.2-6.7,2.4-13.6,0.3-20.7c-0.4-1.3-0.7-2.6-1-3.8c-2.6-9.5-5.2-19.2-18.5-22c-2.4-0.5-4.9-0.8-7.5-0.8c-2,0-3.7,0.1-5.2,0.3
					c-1.1,0.1-2.1,0.2-2.9,0.2c-1.4,0-2.9,0-5.5-9.3c-1-3.7-0.2-8.2,0.6-12.9c1.2-6.8,2.7-15.2-1.6-23.1l0.2-0.1l-2-2.7
					c-0.5-0.7-0.9-1.5-1.1-2.6c7.8-26.9,22.8-51.2,43.3-70.4c0.5,0,1.1-0.1,1.7-0.1c4.8,0,9.7,1.5,11,2.2c0.2,0.8,0.5,2.3,0.6,3.3
					c0.4,2.7,0.9,5.7,2.5,8.3c2.9,4.5,8.6,9.8,13.2,14.1c1.1,1,2.2,2,3,2.9c0.8,0.8,1.7,1.6,2.5,2.3c2.5,2.4,6.7,6.3,6.9,7.8l0,0
					c0,0-0.6,1.9-6.8,5.4c-4.2,2.4-8.5,3.8-13,5.2c-7.7,2.4-16.5,5.2-24.4,14c-1.1,1.2-3.4,3.5-5.2,5.4c-0.7,0.7-1.3,1.4-1.9,1.9
					c-2.3,2.4-3.1,4.8-3.7,6.6c-0.5,1.5-0.7,2.1-1.7,3.1c-1.4,1.2-3.8,2-5.9,2.7c-3.5,1.2-8.4,2.8-9.4,8c-1.2,5.5,3.4,10.2,7.7,14.1
					c2.6,2.3,6.1,2.7,9.8,3c1,0.1,2.4,0.2,3.2,0.4c0.2,0.4,0.5,1,0.8,1.5c1.2,2.6,3.1,6.5,8,8.9c4,2,9.5,2.9,17.3,2.9
					c4,0,8.3-0.2,12-0.4c3.2-0.2,6.2-0.3,8.6-0.3c0.5,0,1.1,0,1.5,0c9.6,0.4,20.5,1.3,27.7,7.5c2.1,1.8,5.5,5,5.2,7.2
					c-0.3,1.9-2.8,4.9-5.2,7.8c-2.3,2.7-4.9,5.8-7.2,9.6c-5.2,8.6-5.3,15.6-5.4,22.3c-0.1,3.6-0.1,7-0.9,10.8
					c-0.9,4.2-4.9,16.1-10,27.3C180.3,381.9,175.6,387,173.7,388.3z"/>
				<path class="st1" d="M233.3,149.7c-7.4-5.3-22.2-10.6-28-10.2c-9.7,0.7-30.8,10-25.9,20.6c4.2,9.1,13.7,1.8,21.4,0.5
					c5.8-0.9,26.6,1.6,34.6-0.4c2.1-0.5,3.2-2.9,2.3-4.8C236.6,153.1,234.7,150.6,233.3,149.7z"/>
				
					<linearGradient id="SVGID_5_" gradientUnits="userSpaceOnUse" x1="185.1169" y1="479.6295" x2="229.0308" y2="479.6295" gradientTransform="matrix(1 0 0 -1 0 631.659)">
					<stop  offset="0" style="stop-color:#1E256B;stop-opacity:0"/>
					<stop  offset="1" style="stop-color:#1E256B"/>
				</linearGradient>
				<path class="st6" d="M185.9,158.1c-0.1,0-0.2,0-0.2,0c-0.1-0.1-0.2-0.3-0.4-0.7c-0.1-0.3-0.3-0.6,0.3-1.5
					c2.7-4.5,13.9-9.5,20.3-10c0.1,0,0.1,0,0.2,0c4.4,0,16.5,4.3,23,8.6c-1,0-2.2,0.1-3.6,0.1l0,0c-3.6,0-7.6-0.2-11.4-0.3
					c-3.4-0.1-6.6-0.3-9.2-0.3c-2.2,0-3.8,0.1-5,0.3c-2.7,0.4-5.3,1.3-7.7,2.2C189.8,157.3,187.3,158.1,185.9,158.1z"/>
				<path class="st1" d="M355.4,142.2c-13.2,1.8-9.5,10.6-19.9,17.4c-11.7,7.7-29.6,2.6-42.3,3.3c-15.4,0.8-30.1-2.9-45.4,1.2
					c-7.9,2.1-20.5,2.6-21.9,11.4c0.1-0.5,7.9,16.8,8.2,17.2c7.5,9.9,29.8,13.8,24.9,27.1c-5.2,14.1-35.2,9.1-30.2,25.9
					c3.7,12.4,12.5,3.9,19.9,7.7c5.9,3,11.2,8.8,15.6,14.1c8.8,10.7,9.8,17.2,9.9,31.1c0.2,17.4,0.6,41.9,25.2,26.2
					c17.2-11,18.1-33,21.7-50.8c0.6-3.2,1-23.7,3.8-25.1c10.3-5,7.9,9.5,12.5,10.8c13.1,3.8,12.7-11.7,26,4.2
					c5.4,6.4,11.3,29.2,20.8,29.3c5,0.1,8.7-10.9,10.6-13.6c3.6-5.1,15.2-12.9,17.9-18.1C411.5,213.6,389.5,171,355.4,142.2z"/>
				
					<linearGradient id="SVGID_6_" gradientUnits="userSpaceOnUse" x1="233.2083" y1="395.4795" x2="406.5083" y2="395.4795" gradientTransform="matrix(1 0 0 -1 0 631.659)">
					<stop  offset="0" style="stop-color:#1E256B;stop-opacity:0"/>
					<stop  offset="1" style="stop-color:#1E256B"/>
				</linearGradient>
				<path class="st7" d="M286.4,323.3c-5.3,0-5.5-16.8-5.6-24.9c-0.2-14.7-1.3-22.9-11.4-35.1c-4.4-5.4-10.4-12-17.6-15.7
					c-2.3-1.2-4.9-1.8-7.9-1.8c-1.5,0-3,0.1-4.2,0.3c-1,0.1-1.9,0.2-2.6,0.2c-0.6,0-0.8-0.1-0.9-0.1c0,0-0.5-0.6-1-2.4
					c-0.7-2.4-1-3.3,9.5-6.8c7.7-2.6,17.2-5.8,20.6-15c4.9-13.4-7.3-20.7-15.5-25.6c-3.9-2.3-7.9-4.7-10-7.2c-0.4-0.9-1.4-3-2.3-4.9
					c-1.9-4-3.2-6.9-4.3-9.1c1.8-1.8,6.8-2.9,11-3.7c1.8-0.4,3.7-0.8,5.5-1.2c4.5-1.2,9.3-1.8,15.2-1.8c3.7,0,7.4,0.2,11.4,0.4
					s8.1,0.4,12.3,0.4c1.8,0,3.5,0,5.1-0.1c0.7,0,1.4-0.1,2.1-0.1c2.9,0,6.2,0.3,9.7,0.5c3.9,0.3,7.9,0.6,11.9,0.6
					c5.8,0,14.4-0.6,21.7-5.4c5.6-3.7,8.1-8,10-11.1c1.6-2.7,2.3-4,4.6-4.7c31.9,28.1,51,68,52.8,110.4c-1.6,1.9-4.8,4.7-7.3,6.9
					c-3.7,3.3-7.3,6.3-9.4,9.3c-0.8,1.1-1.4,2.4-2.3,4.2c-0.8,1.6-2.4,4.9-3.7,6.4c-2.7-1.9-6.8-10.8-8.7-14.8
					c-2.3-4.9-4.3-9.1-6.6-11.9c-4-4.8-8.9-9.6-15.1-9.6c-3.3,0-5.7,1.3-7.7,2.4c-1.7,0.9-2.7,1.4-4,1.4c-0.2,0-0.5,0-0.7,0
					c-0.2-0.5-0.3-1-0.4-1.4c-1.1-3.6-3.5-11.1-11.6-11.1c-2.1,0-4.2,0.6-6.6,1.7c-4.9,2.4-5.7,8.2-6.8,24.3
					c-0.1,2.1-0.3,4.7-0.4,5.3c-0.6,2.9-1.1,6-1.6,8.9c-2.5,14.8-5.1,30-17.2,37.7C290.6,322.8,287.7,323.3,286.4,323.3z"/>
				<path class="st1" d="M317.6,398.5C323.5,400,309.6,396.4,317.6,398.5L317.6,398.5z"/>
				
					<linearGradient id="SVGID_7_" gradientUnits="userSpaceOnUse" x1="315.0765" y1="233.2791" x2="319.1349" y2="233.2791" gradientTransform="matrix(1 0 0 -1 0 631.659)">
					<stop  offset="0" style="stop-color:#1E256B;stop-opacity:0"/>
					<stop  offset="1" style="stop-color:#1E256B"/>
				</linearGradient>
				<path class="st8" d="M317.6,398.5C323.5,400,309.6,396.4,317.6,398.5L317.6,398.5z"/>
				<path class="st1" d="M320.8,412.6c7-4.6,10.8-10.5-3.2-14.1c-13-3.4-22.1,6.3-34.2,7.1c-14.5,1-22.2-2.2-36.8,2.7
					c-13,4.4-19.8,3.1-33,1.2c-6.5-0.9-26-3-32.2,3.6c21,9.9,44.5,15.5,69.3,15.5C275.8,428.5,299.6,422.8,320.8,412.6z"/>
				
					<linearGradient id="SVGID_8_" gradientUnits="userSpaceOnUse" x1="203.6083" y1="218.4795" x2="319.2083" y2="218.4795" gradientTransform="matrix(1 0 0 -1 0 631.659)">
					<stop  offset="0" style="stop-color:#1E256B;stop-opacity:0"/>
					<stop  offset="1" style="stop-color:#1E256B"/>
				</linearGradient>
				<path class="st9" d="M250.6,422.1c-16.1,0-31.9-2.4-47-7.2c3.8,0.2,7.1,0.6,9,0.9l2,0.3c5.9,0.9,10.6,1.5,15.6,1.5
					c5.9,0,11.6-1,18.3-3.3c6.5-2.2,11.3-2.5,15.4-2.5c1.9,0,3.9,0.1,6,0.2c2.3,0.1,4.7,0.2,7.4,0.2c2.2,0,4.3-0.1,6.4-0.2
					c6-0.4,11.2-2.5,15.9-4.4c4.5-1.8,8.4-3.4,12.4-3.4c1.3,0,2.6,0.2,3.9,0.5c1.5,0.4,2.5,0.8,3.3,1.1c-0.4,0.4-1,0.8-1.7,1.3
					C296.6,417,274.1,422.1,250.6,422.1z"/>
				<path class="st1" d="M257.3,123.2c10.2-2.9,18.4-4.9,29-3.7c14.2,1.6,21.7,1.1,35.2,0.6c-21.4-10.4-45.4-16.2-70.8-16.2
					c-23.2,0-45.3,4.9-65.3,13.7c-6.5,4.3-9.3,9.6,4.2,13.4c-1.5-0.4-2.5-0.7,0,0c4.6,1.3,2,0.6,0,0c13,3.6,22-5.9,34.4-6.5
					C237.4,123.8,244,127,257.3,123.2z"/>
				
					<linearGradient id="SVGID_9_" gradientUnits="userSpaceOnUse" x1="187.9083" y1="513.8795" x2="278.6083" y2="513.8795" gradientTransform="matrix(1 0 0 -1 0 631.659)">
					<stop  offset="0" style="stop-color:#1E256B;stop-opacity:0"/>
					<stop  offset="1" style="stop-color:#1E256B"/>
				</linearGradient>
				<path class="st10" d="M195.5,125.3c-1.4,0-2.8-0.2-4.2-0.6l0,0l0,0c-1.5-0.4-2.6-0.8-3.4-1.2c0.2-0.1,0.4-0.3,0.6-0.4
					c19.7-8.6,40.6-12.9,62.2-12.9c9.5,0,18.8,0.8,27.9,2.5c-8,0.2-15.2,2.1-23,4.3c-4,1.1-7.5,1.6-11.4,1.6c-2.3,0-4.6-0.2-7-0.3
					c-2.8-0.2-5.9-0.4-9.5-0.4c-1.4,0-2.7,0-4.1,0.1c-6.1,0.3-11.4,2.4-16,4.2C203.1,123.9,199.4,125.3,195.5,125.3L195.5,125.3z"/>
			</g>
		</g>
		
			<linearGradient id="SVGID_10_" gradientUnits="userSpaceOnUse" x1="440.9577" y1="312.5668" x2="230.3939" y2="318.9865" gradientTransform="matrix(1 0 0 -1 0 631.659)">
			<stop  offset="0" style="stop-color:#1E256B;stop-opacity:0"/>
			<stop  offset="1" style="stop-color:#1E256B"/>
		</linearGradient>
		<path class="st11" d="M400,202.5c-4.8,9.3-12.1,17.1-22.6,22.1c-25.7,12.8-55.2,11.6-80.9,23.1c-27,12.8-42.4,39.8-51.4,68
			c-10.3,37.2-28.2,78.3-68,87.3c-3.4,0.9-6.9,1.6-10.2,2.2c24.5,14.8,53.2,23.3,83.8,23.3c89.7,0,162.3-72.7,162.3-162.3
			C413,243.6,408.3,222,400,202.5z"/>
		
			<linearGradient id="SVGID_11_" gradientUnits="userSpaceOnUse" x1="384.0268" y1="242.941" x2="321.1144" y2="260.274" gradientTransform="matrix(1 0 0 -1 0 631.659)">
			<stop  offset="0" style="stop-color:#1E256B;stop-opacity:0"/>
			<stop  offset="1" style="stop-color:#1E256B"/>
		</linearGradient>
		<path class="st12" d="M309.3,356.8c-10.3,19.3-10.3,42.4-25.7,59.1c-4.7,5-10,8.8-15.6,11.7c61.9-6.6,113.4-48,134.6-104.3
			C370.6,310.7,328.5,324.9,309.3,356.8z"/>
		
			<linearGradient id="SVGID_12_" gradientUnits="userSpaceOnUse" x1="128.9943" y1="488.2218" x2="211.6609" y2="405.5553" gradientTransform="matrix(1 0 0 -1 0 631.659)">
			<stop  offset="0" style="stop-color:#25E7F8;stop-opacity:0"/>
			<stop  offset="1" style="stop-color:#25E7F8"/>
		</linearGradient>
		<path class="st13" d="M272.7,185.4c28.2-43.2,11-73.8-10.8-81.2c-3.7-0.3-7.5-0.4-11.3-0.4c-89.6,0-162.3,72.7-162.3,162.4
			c0,4.9,0.2,9.7,0.7,14.5C182.8,210.1,234.3,244.2,272.7,185.4z"/>
		
			<linearGradient id="SVGID_13_" gradientUnits="userSpaceOnUse" x1="110.0337" y1="439.5277" x2="197.3407" y2="498.5883" gradientTransform="matrix(1 0 0 -1 0 631.659)">
			<stop  offset="9.375000e-02" style="stop-color:#FFFFFF;stop-opacity:0"/>
			<stop  offset="1" style="stop-color:#FFFFFF"/>
		</linearGradient>
		<path class="st14" d="M133.4,200.2c12.8-27,38.5-38.5,65.5-48.8c11.6-5.1,20.5-19.3,16.7-33.4c-1.5-3.5-3.7-6.3-6.4-8.8
			c-50.9,13.4-92,51-110.4,99.7c2.2,0.7,4.3,1.2,6.4,1.6C116.7,211.8,128.3,210.5,133.4,200.2z"/>
	</g>
	<g class="st15">
		<g>
			<defs>
				<circle id="SVGID_14_" cx="250.6" cy="266.2" r="174.6"/>
			</defs>
			<clipPath id="SVGID_15_">
				<use xlink:href="#SVGID_14_"  style="overflow:visible;"/>
			</clipPath>
			
				<radialGradient id="SVGID_16_" cx="201.7926" cy="755.7146" r="174.6148" gradientTransform="matrix(0.7959 0.7028 1.1942 -1.3524 -812.4228 1146.4381)" gradientUnits="userSpaceOnUse">
				<stop  offset="0.599" style="stop-color:#3554EF;stop-opacity:0"/>
				<stop  offset="1" style="stop-color:#3554EF"/>
			</radialGradient>
			<path class="st16" d="M389.6,388.9C274.5,519.4,118.9,570.1,42.1,502.4c-76.8-67.8-45.6-228.5,69.6-358.9S382.4-37.8,459.2,30
				S504.8,258.5,389.6,388.9z"/>
		</g>
	</g>
</g>
</svg>
