<?xml version="1.0" encoding="utf-8"?>
<!-- Generator: Adobe Illustrator 21.1.0, SVG Export Plug-In . SVG Version: 6.00 Build 0)  -->
<svg version="1.1" id="Layer_1" xmlns="http://www.w3.org/2000/svg" xmlns:xlink="http://www.w3.org/1999/xlink" x="0px" y="0px"
	 viewBox="0 0 45 45" style="enable-background:new 0 0 45 45;" xml:space="preserve">
<style type="text/css">
	.st0{fill:#563D7C;}
	.st1{fill:#FFFFFF;}
</style>
<g>
	<path class="st0" d="M7.3,34.7c0,2.2,1.8,4.1,4.1,4.1h23.4c2.2,0,4.1-1.8,4.1-4.1V11.3c0-2.2-1.8-4.1-4.1-4.1H11.3
		c-2.2,0-4.1,1.8-4.1,4.1V34.7L7.3,34.7z"/>
	<path class="st1" d="M20.3,21.2v-4.5h3.9c0.4,0,0.7,0,1.1,0.1c0.3,0.1,0.7,0.2,0.9,0.3c0.3,0.2,0.5,0.4,0.6,0.7
		c0.2,0.3,0.2,0.7,0.2,1.1c0,0.8-0.2,1.4-0.7,1.7c-0.5,0.4-1.1,0.5-1.8,0.5H20.3L20.3,21.2z M16.1,13.5v19.1h9.2
		c0.9,0,1.7-0.1,2.5-0.3c0.8-0.2,1.5-0.5,2.2-1c0.6-0.4,1.1-1,1.5-1.7c0.4-0.7,0.6-1.5,0.6-2.5c0-1.2-0.3-2.2-0.9-3.1
		c-0.6-0.8-1.5-1.4-2.6-1.8c0.9-0.4,1.5-0.9,1.9-1.6c0.4-0.6,0.7-1.4,0.7-2.4c0-0.9-0.1-1.6-0.4-2.2c-0.3-0.6-0.7-1.1-1.2-1.5
		c-0.5-0.4-1.2-0.6-1.9-0.8c-0.7-0.2-1.6-0.2-2.5-0.2H16.1L16.1,13.5z M20.3,29.3V24h4.6c0.9,0,1.6,0.2,2.2,0.6
		c0.6,0.4,0.8,1.1,0.8,2.1c0,0.5-0.1,0.9-0.3,1.2c-0.2,0.3-0.4,0.6-0.7,0.8c-0.3,0.2-0.6,0.3-1,0.4c-0.4,0.1-0.8,0.1-1.2,0.1H20.3
		L20.3,29.3z"/>
</g>
</svg>
