<?xml version="1.0" encoding="utf-8"?>
<!-- Generator: Adobe Illustrator 21.1.0, SVG Export Plug-In . SVG Version: 6.00 Build 0)  -->
<svg version="1.1" id="Layer_1" xmlns="http://www.w3.org/2000/svg" xmlns:xlink="http://www.w3.org/1999/xlink" x="0px" y="0px"
	 viewBox="0 0 45 45" style="enable-background:new 0 0 45 45;" xml:space="preserve">
<style type="text/css">
	.st0{fill:#FB503B;}
</style>
<path class="st0" d="M38.3,21.8c-0.2-0.2-3.1-3.9-3.6-4.5c-0.5-0.6-0.7-0.5-1.1-0.4c-0.3,0-4,0.7-4.4,0.7c-0.4,0.1-0.7,0.2-0.4,0.6
	c0.2,0.3,2.6,3.7,3.1,4.5L22.4,25l-7.6-12.7c-0.3-0.4-0.4-0.6-1-0.6c-0.7,0-6,0.5-6.3,0.5c-0.4,0-0.8,0.2-0.4,1.1s6.4,13.8,6.5,14.2
	c0.1,0.4,0.6,1,1.6,0.7c1-0.3,4.6-1.2,6.6-1.7c1,1.9,3.1,5.7,3.6,6.3c0.5,0.7,0.9,0.6,1.7,0.4c0.6-0.2,9.8-3.5,10.2-3.7
	c0.4-0.2,0.7-0.3,0.4-0.7c-0.2-0.3-2.6-3.6-3.9-5.2c0.9-0.2,4-1,4.3-1.2C38.4,22.2,38.5,22,38.3,21.8L38.3,21.8z M20.9,25.4
	c-0.1,0-5.5,1.3-5.7,1.4c-0.3,0.1-0.3,0-0.3-0.1c-0.1-0.1-6.4-13.1-6.5-13.3c-0.1-0.1-0.1-0.3,0-0.3c0.1,0,5.1-0.4,5.2-0.4
	c0.2,0,0.1,0,0.2,0.1c0,0,7,12.1,7.1,12.3C21.1,25.2,21,25.3,20.9,25.4L20.9,25.4z M36,28.2c0.1,0.1,0.2,0.2-0.1,0.3
	c-0.3,0.1-9,3.1-9.2,3.1c-0.2,0.1-0.3,0.1-0.5-0.2c-0.2-0.3-3.1-5.2-3.1-5.2l9.3-2.4c0.2-0.1,0.3-0.1,0.4,0.1
	C33,24.1,35.9,28,36,28.2L36,28.2z M36.6,21.6c-0.2,0-3.6,0.9-3.6,0.9l-2.8-3.8c-0.1-0.1-0.1-0.2,0-0.3c0.2,0,3.4-0.6,3.5-0.6
	s0.3-0.1,0.4,0.2c0.2,0.2,2.6,3.3,2.7,3.4S36.8,21.5,36.6,21.6L36.6,21.6z"/>
</svg>
