<?xml version="1.0" encoding="utf-8"?>
<!-- Generator: Adobe Illustrator 21.1.0, SVG Export Plug-In . SVG Version: 6.00 Build 0)  -->
<svg version="1.1" id="Layer_1" xmlns="http://www.w3.org/2000/svg" xmlns:xlink="http://www.w3.org/1999/xlink" x="0px" y="0px"
	 viewBox="0 0 45 45" style="enable-background:new 0 0 45 45;" xml:space="preserve">
<style type="text/css">
	.st0{fill:#8CC84B;}
</style>
<path class="st0" d="M16.5,26.2c-0.6,0.4-1.4,0.9-2.1,1.6c-1.1,1-1.3,2.5-0.7,2.8c0.5,0.3,1.8-0.1,2.7-1c0.9-1,1.3-2.3,0.9-3.8
	c0,0-0.1,0.1-0.1,0.1l0,0l-0.1,0C16.8,26,16.6,26.2,16.5,26.2L16.5,26.2z M32.5,25.8c-0.3,0.7-0.3,0.9-0.2,1
	c0.5-0.2,1.2-0.6,1.3-1.7c0-0.2,0-0.3-0.1-0.5C33,25,32.7,25.5,32.5,25.8z M37.6,23.6c-1.3-0.1-2.2,0-3,0.3c0.1,0.4,0.2,0.7,0.3,1.1
	c0,0.8-0.5,1.5-1.2,1.9c-0.4,0.3-0.7,0.4-1,0.5c-0.3,0.1-0.6,0.2-0.8,0.2c-0.5-0.1-0.8-0.6-0.4-1.6c0.2-0.6,0.7-1.4,1.6-2.1
	c-0.2-0.4-0.4-0.9-0.5-1.2c-0.2-0.8-0.3-1.2-0.3-1.2s-0.7,1.5-1.7,2.9c-0.1,0.1-0.1,0.2-0.2,0.2c0.2,0.4,0.3,0.9,0.4,1.4
	c0,0.8-0.3,1.5-0.9,1.9c-0.3,0.2-0.7,0.4-1,0.5c-0.2,0.1-0.6,0.2-1.1,0.3c-0.3,0-0.6,0-0.8-0.1c-0.2-0.2-0.3-0.4-0.1-0.7
	c0.1-0.2,0.8-1.1,1.5-1.8c0.2-0.2,0.3-0.4,0.5-0.6l0,0c0,0,0.1-0.1,0.3-0.4c-0.2-0.5-0.5-1-0.6-1.5c-0.2-0.8-0.3-1.2-0.3-1.2
	s-0.8,1.9-1.5,3.5c-0.6,1.2-1,1.9-1.2,2.2l0,0c0,0,0,0-0.1,0.1l0,0.1l0,0c-0.2,0.3-0.7,0.9-1.1,0.9c-1.2,0-0.8-2.5-0.8-2.5
	s-0.4,0.9-0.8,1.7c-0.3,0.7-0.6,1.2-1.3,1.2c-0.2,0-0.5,0-0.7-0.2c-0.6-0.5-1-1.9-0.9-3c0.1-0.9,0.2-1.5,0.4-2.1
	c-0.4,0.2-0.8,0.4-1.1,0.6l-0.6,0.4l0,0c0.5,1,0.6,3.2-0.5,4.8c-1.1,1.7-3.2,2.7-5.2,2.1c-0.7-0.2-1.6-1.5-0.8-3.4
	c0.7-1.7,3.7-3.2,4.5-3.6l0.2-0.1c-1.6-1.4-5.5-3.2-6.1-6.1c-0.2-0.8,0.2-2.7,2.6-4.9c2-1.9,4.7-3.3,7.3-4.2
	c4.3-1.5,8.8-0.6,9.5,2.1c0.7,2.7-1.6,5.9-4.6,7c-2.7,1-4.9,0.9-5.8,0.6c-1-0.3-1.6-1-1.8-1.4c-0.1-0.1-0.2-0.4,0-0.5
	c0.1-0.1,0.1,0,0.4,0.2c0.2,0.3,1.2,1,3.1,0.8c4.9-0.6,7.9-4.4,6.9-6.4c-0.7-1.4-4.4-2.1-9.2,0.3c-5.8,2.9-6.1,5.3-6.1,6.2
	c-0.1,2.5,3.1,3.8,4.8,5.6l0.1,0.1c0.3-0.2,0.7-0.4,1-0.6c0.7-0.4,1.4-0.8,2.1-1.1c0.6-0.9,1.8-1.9,2.7-1.9c1.4,0,0.9,2.1,0.9,2.1
	s0-0.1,0.1-0.1c0,0,0.2-0.3,0.6-0.1c0.5,0.2,0.4,0.5,0.4,0.5c0,0.1-0.5,1.9-0.8,3.1c-0.1,0.6,0,1,0,1c0,0,0.1-0.1,0.2-0.3l0,0
	c0,0,0.1-0.1,0.2-0.3l0,0l0,0c0.2-0.3,0.3-0.7,0.5-1c0.4-0.9,1.9-4.2,2-4.6c0.1-0.4,0.2-0.8,0.3-0.9c0.1-0.2,0.6-0.3,1.2-0.3
	c0.6,0,0.7,0.3,0.7,0.3c0,0.1-0.3,0.8-0.4,1.3c-0.1,0.5,0,0.8,0.1,1.2c0,0.3,0.2,0.7,0.4,1.1c0.6-1.1,1.8-3.1,1.9-3.6
	c0.1-0.4,0.2-0.8,0.3-0.9c0.1-0.2,0.6-0.3,1.2-0.3c0.6,0,0.7,0.3,0.7,0.3c0,0.1-0.3,0.8-0.4,1.3c-0.1,0.5,0,0.8,0.1,1.2
	c0,0.4,0.3,0.9,0.6,1.5c0.8-0.4,1.7-0.6,2.8-0.7c0.4,0,1,0,1.2,0.1v-8.6c0-0.6-0.3-1.2-0.8-1.5L23.3,4.4c-0.5-0.3-1.2-0.3-1.7,0
	L7.6,12.6c-0.5,0.3-0.8,0.9-0.8,1.5v16.3c0,0.6,0.3,1.2,0.8,1.5L21.7,40c0.5,0.3,1.2,0.3,1.7,0l14.1-8.1c0.5-0.3,0.8-0.9,0.8-1.5
	v-6.6C38.1,23.7,37.8,23.7,37.6,23.6L37.6,23.6z M22.4,22.8c-0.3,0.3-0.8,1.2-1.1,1.9c-0.5,1.5-0.3,2.9,0.1,3c0.4,0.1,1-1.8,1.4-2.6
	c0.2-0.5,1-2.6,0.8-2.9C23.4,22.1,22.9,22.2,22.4,22.8L22.4,22.8z M27.9,27.7c0,0-0.1,0.1-0.1,0.1c0.1,0,0.2,0,0.3-0.1
	c0.4-0.2,1.2-0.8,1.2-1.7c0,0,0,0,0-0.1c-0.2,0.2-0.3,0.5-0.5,0.7C28.6,27,27.9,27.7,27.9,27.7z"/>
</svg>
