<?xml version="1.0" encoding="utf-8"?>
<!-- Generator: Adobe Illustrator 21.1.0, SVG Export Plug-In . SVG Version: 6.00 Build 0)  -->
<svg version="1.1" id="Layer_1" xmlns="http://www.w3.org/2000/svg" xmlns:xlink="http://www.w3.org/1999/xlink" x="0px" y="0px"
	 viewBox="0 0 45 45" style="enable-background:new 0 0 45 45;" xml:space="preserve">
<style type="text/css">
	.st0{fill:#FFFFFF;}
	.st1{fill:#53C1DE;}
</style>
<g>
	<path class="st0" d="M6.9,22.5c0,2.4,2.3,4.6,6,5.9c-0.7,3.7-0.1,6.6,1.9,7.8c2.1,1.2,5.1,0.4,8-2.2c2.8,2.4,5.7,3.4,7.7,2.2
		c2.1-1.2,2.7-4.4,1.9-8.2c3.8-1.3,5.9-3.2,5.9-5.6c0-2.3-2.3-4.3-5.9-5.6c0.8-4,0.1-6.8-2-8.1c-2-1.2-4.9-0.1-7.8,2.4
		c-3-2.7-5.9-3.5-8-2.3c-2,1.2-2.6,4.2-1.9,7.9C9.3,18.2,6.9,20.2,6.9,22.5z"/>
	<path class="st1" d="M31.7,18.2c-0.3-0.1-0.6-0.2-0.9-0.3c0.1-0.2,0.1-0.4,0.1-0.6c0.7-3.3,0.2-6-1.3-6.9c-1.5-0.8-3.8,0-6.3,2.1
		c-0.2,0.2-0.5,0.4-0.7,0.6c-0.2-0.1-0.3-0.3-0.5-0.4c-2.5-2.2-5.1-3.2-6.6-2.3c-1.5,0.8-1.9,3.4-1.3,6.5c0.1,0.3,0.1,0.6,0.2,0.9
		c-0.4,0.1-0.7,0.2-1,0.3c-3,1-4.9,2.7-4.9,4.3c0,1.7,2,3.5,5.1,4.5c0.3,0.1,0.5,0.2,0.8,0.2c-0.1,0.3-0.2,0.7-0.2,1
		c-0.6,3.1-0.1,5.5,1.3,6.4c1.5,0.9,4,0,6.5-2.2c0.2-0.2,0.4-0.3,0.6-0.5c0.2,0.2,0.5,0.5,0.8,0.7c2.4,2,4.7,2.9,6.2,2
		c1.5-0.9,2-3.5,1.4-6.7c0-0.2-0.1-0.5-0.2-0.7c0.2-0.1,0.4-0.1,0.5-0.2c3.2-1.1,5.3-2.8,5.3-4.5C36.7,20.9,34.7,19.2,31.7,18.2
		L31.7,18.2z"/>
	<path class="st0" d="M31,25.9c-0.2,0.1-0.3,0.1-0.5,0.1c-0.4-1.1-0.8-2.3-1.4-3.5c0.6-1.2,1-2.4,1.4-3.5c0.3,0.1,0.6,0.2,0.8,0.3
		c2.6,0.9,4.2,2.2,4.2,3.2C35.5,23.6,33.8,25,31,25.9L31,25.9z M29.8,28.2c0.3,1.4,0.3,2.7,0.1,3.7c-0.2,0.9-0.5,1.5-0.9,1.7
		c-0.9,0.5-2.8-0.2-4.8-1.9c-0.2-0.2-0.5-0.4-0.7-0.6c0.8-0.9,1.6-1.9,2.3-3c1.4-0.1,2.6-0.3,3.8-0.6C29.8,27.8,29.8,28,29.8,28.2
		L29.8,28.2z M18.2,33.6c-0.9,0.3-1.5,0.3-2,0.1c-0.9-0.5-1.2-2.5-0.7-5.1c0.1-0.3,0.1-0.6,0.2-0.9c1.1,0.3,2.4,0.4,3.8,0.5
		c0.8,1.1,1.6,2.1,2.4,3c-0.2,0.2-0.4,0.3-0.5,0.5C20.3,32.5,19.2,33.2,18.2,33.6L18.2,33.6z M14.2,25.9c-1.4-0.5-2.5-1.1-3.3-1.7
		c-0.7-0.6-1-1.2-1-1.7c0-1,1.5-2.3,4.1-3.2c0.3-0.1,0.6-0.2,1-0.3c0.4,1.1,0.8,2.3,1.4,3.5c-0.6,1.2-1,2.4-1.4,3.6
		C14.6,26.1,14.4,26,14.2,25.9z M15.5,16.7C15,14,15.4,12,16.2,11.5c0.9-0.5,3,0.2,5.2,2.2c0.1,0.1,0.3,0.3,0.4,0.4
		c-0.8,0.9-1.6,1.9-2.4,2.9c-1.3,0.1-2.6,0.3-3.7,0.6C15.7,17.3,15.6,17,15.5,16.7L15.5,16.7z M27.6,19.7c-0.3-0.5-0.6-0.9-0.9-1.4
		c0.9,0.1,1.7,0.3,2.6,0.4c-0.2,0.8-0.5,1.6-0.9,2.4C28.2,20.7,27.9,20.2,27.6,19.7L27.6,19.7z M22.7,14.9c0.6,0.6,1.1,1.3,1.6,2
		c-1.1-0.1-2.2-0.1-3.3,0C21.6,16.2,22.1,15.5,22.7,14.9L22.7,14.9z M17.7,19.7c-0.3,0.5-0.5,1-0.8,1.4c-0.3-0.8-0.6-1.6-0.9-2.4
		c0.8-0.2,1.6-0.3,2.5-0.4C18.3,18.8,18,19.2,17.7,19.7z M18.6,26.9c-0.9-0.1-1.8-0.2-2.6-0.4c0.2-0.8,0.6-1.6,0.9-2.5
		c0.3,0.5,0.5,1,0.8,1.4C18,25.9,18.3,26.4,18.6,26.9z M22.7,30.2c-0.6-0.6-1.1-1.3-1.7-2c0.5,0,1.1,0,1.6,0c0.6,0,1.1,0,1.7,0
		C23.8,29,23.3,29.6,22.7,30.2z M28.4,23.9c0.4,0.9,0.7,1.7,0.9,2.5c-0.8,0.2-1.7,0.3-2.6,0.4c0.3-0.5,0.6-0.9,0.9-1.4
		C27.9,24.9,28.2,24.4,28.4,23.9L28.4,23.9z M26.6,24.8c-0.4,0.7-0.9,1.5-1.3,2.2c-0.8,0.1-1.7,0.1-2.6,0.1c-0.9,0-1.7,0-2.5-0.1
		c-0.5-0.7-0.9-1.4-1.4-2.2c-0.4-0.7-0.8-1.5-1.2-2.3c0.4-0.8,0.8-1.5,1.2-2.3v0c0.4-0.7,0.9-1.5,1.4-2.2c0.8-0.1,1.7-0.1,2.5-0.1
		c0.9,0,1.7,0,2.6,0.1c0.5,0.7,0.9,1.4,1.3,2.2c0.4,0.7,0.8,1.5,1.2,2.2C27.4,23.3,27,24.1,26.6,24.8L26.6,24.8z M29,11.5
		c0.9,0.5,1.3,2.7,0.7,5.6c0,0.2-0.1,0.4-0.1,0.6c-1.2-0.3-2.4-0.5-3.7-0.6c-0.8-1.1-1.6-2.1-2.4-3c0.2-0.2,0.4-0.4,0.6-0.6
		C26.2,11.7,28.2,11,29,11.5L29,11.5z"/>
	<path class="st1" d="M22.7,20c1.4,0,2.5,1.1,2.5,2.5c0,1.4-1.1,2.5-2.5,2.5c-1.4,0-2.5-1.1-2.5-2.5C20.2,21.2,21.3,20,22.7,20"/>
</g>
</svg>
