<?xml version="1.0" encoding="utf-8"?>
<!-- Generator: Adobe Illustrator 21.1.0, SVG Export Plug-In . SVG Version: 6.00 Build 0)  -->
<svg version="1.1" id="Layer_1" xmlns="http://www.w3.org/2000/svg" xmlns:xlink="http://www.w3.org/1999/xlink" x="0px" y="0px"
	 viewBox="0 0 45 45" style="enable-background:new 0 0 45 45;" xml:space="preserve">
<g>
	<path d="M23,23.5l-2.7,7.9h0l-2.1,6c0.1,0,0.3,0.1,0.4,0.1h0c1.3,0.3,2.7,0.5,4.1,0.5c0.7,0,1.4,0,2-0.1c0.9-0.1,1.8-0.3,2.7-0.6
		c0.2-0.1,0.4-0.1,0.6-0.2c-0.2-0.5-0.7-1.6-0.7-1.6L23,23.5z M8.4,16.1C7.6,17.9,7,20.2,7,22.2c0,0.5,0,1,0.1,1.5
		c0.6,5.8,4.3,10.7,9.5,13c0.2,0.1,0.4,0.2,0.7,0.3L9.6,16.1C9,16,8.8,16.1,8.4,16.1z"/>
	<path d="M37,15.6c-0.4-0.8-0.8-1.5-1.2-2.2c-0.1-0.2-0.3-0.4-0.4-0.6c-1.8-2.4-4.2-4.2-7-5.3c-1.8-0.7-3.7-1.1-5.7-1.1
		c-4.9,0-9.4,2.3-12.3,5.9c-0.5,0.7-1,1.4-1.4,2.1c1.2,0,2.6,0,2.8,0c1.5,0,3.8-0.2,3.8-0.2c0.8,0,0.9,1.1,0.1,1.2
		c0,0-0.8,0.1-1.6,0.1l5.2,15.3l3.1-9.3l-2.2-6c-0.8,0-1.5-0.1-1.5-0.1c-0.8,0-0.7-1.2,0.1-1.2c0,0,2.3,0.2,3.7,0.2
		c1.5,0,3.8-0.2,3.8-0.2c0.8,0,0.9,1.1,0.1,1.2c0,0-0.8,0.1-1.6,0.1l5.1,15.2l1.4-4.7c0.7-1.8,1.1-3.4,1.1-4.6c0-1.7-0.6-3-1.2-3.9
		c-0.7-1.2-1.4-2.2-1.4-3.3c0-1.3,1-2.5,2.4-2.5h0.2c2.1-0.1,2.9,2.1,2.9,3.5v0c0,0.6,0,1,0,1.5c0,1.4-0.3,3-1.1,5.1L31,31.2
		l-1.8,5.4c0.1-0.1,0.3-0.1,0.4-0.2c4.7-2.2,8-6.7,8.8-12c0.1-0.7,0.2-1.4,0.2-2.1C38.5,19.9,38,17.6,37,15.6L37,15.6z"/>
</g>
</svg>
