<svg id="Layer_3" enable-background="new 0 0 64 64" height="512" viewBox="0 0 64 64" width="512" xmlns="http://www.w3.org/2000/svg"><path d="m49 24h2c0-2.206-1.794-4-4-4v2c1.103 0 2 .897 2 2z"/><path d="m39 43v2c2.206 0 4-1.794 4-4h-2c0 1.103-.897 2-2 2z"/><path d="m13 24h2c0-1.103.897-2 2-2v-2c-2.206 0-4 1.794-4 4z"/><path d="m35 36h-2c0 2.206 1.794 4 4 4v-2c-1.103 0-2-.897-2-2z"/><path d="m29 24h-2c0 2.206 1.794 4 4 4v-2c-1.103 0-2-.897-2-2z"/><path d="m37 16h2c0-2.206-1.794-4-4-4v2c1.103 0 2 .897 2 2z"/><path d="m36 23v2c2.206 0 4-1.794 4-4h-2c0 1.103-.897 2-2 2z"/><path d="m25 43v2c2.206 0 4-1.794 4-4h-2c0 1.103-.897 2-2 2z"/><path d="m51.414 48-4-4h-1.003c.377-.927.589-1.939.589-3 0-.03-.006-.06-.006-.09 2.446-1.42 4.006-4.052 4.006-6.91 0-.989-.189-1.933-.518-2.808 2.737-1.32 4.518-4.082 4.518-7.192 0-2.603-1.256-4.913-3.187-6.375.111-.534.187-1.075.187-1.625 0-3.358-2.082-6.234-5.021-7.419-.22-4.216-3.709-7.581-7.979-7.581-3.01 0-5.635 1.673-7 4.136-1.365-2.463-3.99-4.136-7-4.136-4.27 0-7.759 3.365-7.979 7.581-2.939 1.185-5.021 4.061-5.021 7.419 0 .55.076 1.091.187 1.625-1.931 1.462-3.187 3.772-3.187 6.375 0 3.11 1.781 5.872 4.518 7.192-.329.875-.518 1.819-.518 2.808 0 2.858 1.56 5.49 4.006 6.91 0 .03-.006.06-.006.09 0 1.061.212 2.073.589 3h-1.003l-4 4h-3l-6.586 6.586v3.414h2v-2.586l5.414-5.414h3l4-4h1.351c.618.77 1.377 1.419 2.235 1.918v1.668l-2.414 2.414h-4l-3.586 3.586v2.414h2v-1.586l2.414-2.414h4l3.586-3.586v-1.677c.641.166 1.308.263 2 .263v4.586l-4.707 4.707 1.414 1.414 5.293-5.293v-5.677c2.147-.556 3.948-1.975 5-3.872 1.052 1.897 2.853 3.317 5 3.872v5.677l5.293 5.293 1.414-1.414-4.707-4.707v-4.586c.692 0 1.359-.097 2-.263v1.677l3.586 3.586h4l2.414 2.414v1.586h2v-2.414l-3.586-3.586h-4l-2.414-2.414v-1.668c.858-.498 1.617-1.148 2.235-1.918h1.351l4 4h3l5.414 5.414v2.586h2v-3.414l-6.586-6.586zm-12.414-1c-3.309 0-6-2.691-6-6h-2c0 3.309-2.691 6-6 6s-6-2.691-6-6c0-2.305 1.285-4.369 3.354-5.387l-.883-1.795c-2.053 1.01-3.524 2.794-4.144 4.907-1.438-1.123-2.327-2.859-2.327-4.725 0-3.309 2.691-6 6-6s6 2.691 6 6h2c0-4.411-3.589-8-8-8-2.708 0-5.101 1.355-6.549 3.42-2.088-.978-3.451-3.064-3.451-5.42 0-3.309 2.691-6 6-6 1.609 0 3.12.629 4.256 1.771l1.418-1.41c-1.514-1.523-3.528-2.361-5.674-2.361-1.045 0-2.041.207-2.958.573-.018-.19-.042-.38-.042-.573 0-3.309 2.691-6 6-6 1.083 0 2.145.292 3.068.843l1.025-1.718c-1.234-.736-2.649-1.125-4.093-1.125-.311 0-.617.022-.918.057.454-2.861 2.931-5.057 5.918-5.057 3.309 0 6 2.691 6 6h2c0-3.309 2.691-6 6-6 2.987 0 5.464 2.196 5.918 5.057-.301-.035-.607-.057-.918-.057-1.444 0-2.859.389-4.094 1.125l1.025 1.718c.924-.551 1.986-.843 3.069-.843 3.309 0 6 2.691 6 6 0 .193-.024.383-.042.573-.917-.366-1.913-.573-2.958-.573-2.146 0-4.16.838-5.674 2.36l1.418 1.41c1.136-1.141 2.647-1.77 4.256-1.77 3.309 0 6 2.691 6 6 0 2.356-1.363 4.442-3.451 5.42-1.448-2.065-3.841-3.42-6.549-3.42-4.411 0-8 3.589-8 8h2c0-3.309 2.691-6 6-6s6 2.691 6 6c0 1.866-.889 3.602-2.328 4.726-.62-2.113-2.091-3.897-4.144-4.907l-.883 1.795c2.07 1.017 3.355 3.081 3.355 5.386 0 3.309-2.691 6-6 6z"/><path d="m55 33h2v2h-2z"/><path d="m55 37h2v2h-2z"/><path d="m57 35h2v2h-2z"/><path d="m53 35h2v2h-2z"/><path d="m53 1h2v2h-2z"/><path d="m53 5h2v2h-2z"/><path d="m55 3h2v2h-2z"/><path d="m51 3h2v2h-2z"/><path d="m59 12h2v2h-2z"/><path d="m59 16h2v2h-2z"/><path d="m61 14h2v2h-2z"/><path d="m57 14h2v2h-2z"/><path d="m7 33h2v2h-2z"/><path d="m7 37h2v2h-2z"/><path d="m5 35h2v2h-2z"/><path d="m9 35h2v2h-2z"/><path d="m9 1h2v2h-2z"/><path d="m9 5h2v2h-2z"/><path d="m7 3h2v2h-2z"/><path d="m11 3h2v2h-2z"/><path d="m3 12h2v2h-2z"/><path d="m3 16h2v2h-2z"/><path d="m1 14h2v2h-2z"/><path d="m5 14h2v2h-2z"/><g fill="#f0bc5e"><path d="m20 63c-1.654 0-3-1.346-3-3s1.346-3 3-3 3 1.346 3 3-1.346 3-3 3z"/><path d="m12 63c-1.654 0-3-1.346-3-3s1.346-3 3-3 3 1.346 3 3-1.346 3-3 3z"/><path d="m4 63c-1.654 0-3-1.346-3-3s1.346-3 3-3 3 1.346 3 3-1.346 3-3 3z"/><path d="m44 63c-1.654 0-3-1.346-3-3s1.346-3 3-3 3 1.346 3 3-1.346 3-3 3z"/><path d="m52 63c-1.654 0-3-1.346-3-3s1.346-3 3-3 3 1.346 3 3-1.346 3-3 3z"/><path d="m60 63c-1.654 0-3-1.346-3-3s1.346-3 3-3 3 1.346 3 3-1.346 3-3 3z"/></g></svg>