<svg id="Layer_3" enable-background="new 0 0 64 64" height="512" viewBox="0 0 64 64" width="512" xmlns="http://www.w3.org/2000/svg"><path d="m32 25c-3.859 0-7 3.14-7 7s3.141 7 7 7 7-3.14 7-7-3.141-7-7-7zm0 12c-2.757 0-5-2.243-5-5s2.243-5 5-5 5 2.243 5 5-2.243 5-5 5z"/><path d="m45 28.219-2.416-.603 1.281-2.134-5.346-5.347-2.136 1.281-.602-2.416h-7.562l-.603 2.416-2.136-1.281-5.346 5.347 1.281 2.134-2.415.603v7.562l2.415.603-1.28 2.135 5.346 5.347 2.136-1.281.602 2.415h7.562l.603-2.416 2.136 1.281 5.346-5.347-1.28-2.135 2.414-.602zm-2 6-1.949.487-.534.202-.465 1.142 1.296 2.16-3.139 3.138-2.159-1.296-1.22.503-.611 2.445h-4.438l-.611-2.446-1.22-.503-2.159 1.296-3.139-3.138 1.296-2.16-.496-1.218-2.452-.612v-4.438l1.949-.487.535-.203.464-1.142-1.296-2.158 3.139-3.138 2.159 1.296 1.22-.503.611-2.446h4.438l.611 2.446 1.22.503 2.159-1.296 3.139 3.138-1.296 2.158.496 1.22 2.452.612z"/><path d="m10.237 7.001c1.729 0 3.947.484 6.414 1.401l.697-1.875c-2.688-.999-5.146-1.526-7.111-1.526-1.784 0-3.117.428-3.962 1.273-.669.669-1.429 2.043-1.254 4.789l1.996-.127c-.143-2.246.479-3.054.672-3.248.444-.443 1.349-.687 2.548-.687z"/><path d="m20.992 8.101c-.669-.325-1.332-.629-1.985-.909l-.268-.114-.773 1.845.251.106c.627.269 1.261.56 1.9.871z"/><path d="m53.101 34.327c1.025 1.502 1.969 2.997 2.802 4.443l1.732-.998c-.858-1.491-1.828-3.029-2.884-4.573z"/><path d="m18.275 54.941c-.624.269-1.227.509-1.807.723l.691 1.877c.611-.225 1.247-.479 1.906-.763z"/><path d="m9.159 56.918-.318 1.975c.441.071.926.107 1.438.107.249 0 .509-.008.78-.026l-.129-1.996c-.669.044-1.263.022-1.771-.06z"/><path d="m12.781 56.728.387 1.963c.649-.128 1.332-.296 2.029-.5l-.562-1.92c-.639.187-1.263.341-1.854.457z"/><path d="m4.86 59.14c-2.628-2.628-2.449-8.07.491-14.931 1.449-3.381 3.481-6.934 5.976-10.508.569.759 1.156 1.518 1.763 2.275l1.561-1.251c-.73-.91-1.422-1.823-2.095-2.736 2.602-3.523 5.636-7.045 9.012-10.42 3.336-3.337 6.88-6.383 10.444-9.011 3.523 2.602 7.044 5.636 10.419 9.011 3.066 3.067 5.889 6.295 8.389 9.595l1.594-1.208c-2.555-3.373-5.438-6.67-8.568-9.801-3.277-3.278-6.695-6.248-10.126-8.823 1.056-.737 2.112-1.444 3.162-2.098l-1.057-1.698c-1.267.789-2.542 1.642-3.817 2.548-3.879-2.757-7.749-4.992-11.429-6.569-7.766-3.33-13.85-3.352-17.133-.069-3.167 3.167-3.249 8.995-.229 16.408l1.852-.754c-2.696-6.621-2.77-11.678-.209-14.24 2.629-2.627 8.069-2.448 14.932.492 3.382 1.45 6.937 3.483 10.513 5.979-3.469 2.599-6.907 5.579-10.151 8.823-3.28 3.28-6.252 6.699-8.827 10.132-.984-1.411-1.898-2.818-2.73-4.212l-1.717 1.026c.966 1.618 2.044 3.253 3.206 4.889-2.759 3.88-4.994 7.751-6.572 11.432-3.328 7.765-3.352 13.85-.067 17.133 1.625 1.625 3.952 2.433 6.823 2.433 3.686 0 8.269-1.331 13.41-3.966l-.912-1.78c-8.199 4.201-14.893 4.912-17.908 1.899z"/><path d="m57.726 6.274c-.778-.778-2.057-1.214-3.698-1.259l-.055 1.999c1.088.03 1.94.276 2.339.674.756.756 1.137 2.999-.061 7.026l1.918.57c1.266-4.258 1.108-7.458-.443-9.01z"/><path d="m55.218 17.621 1.852.758c.285-.697.545-1.39.771-2.059l-1.895-.641c-.214.631-.458 1.284-.728 1.942z"/><path d="m55.669 21.447c.35-.7.671-1.381.964-2.043l-1.83-.808c-.279.634-.587 1.286-.923 1.957z"/><path d="m59.14 4.86c3.938 3.938 1.566 13.677-6.04 24.813l1.652 1.128c8.3-12.152 10.523-22.634 5.802-27.355-3.587-3.587-10.667-3.176-19.426 1.129l.883 1.795c7.941-3.903 14.185-4.453 17.129-1.51z"/><path d="m39.296 53.903 1.012-1.726c-.559-.327-1.118-.668-1.68-1.023l-1.068 1.691c.581.367 1.16.72 1.736 1.058z"/><path d="m44.736 56.698.259.112c.558.239 1.107.459 1.645.659l.699-1.874c-.508-.189-1.028-.397-1.559-.625l-.243-.105z"/><path d="m42.881 55.837.883-1.795c-.577-.284-1.158-.583-1.743-.899l-.951 1.76c.608.328 1.212.639 1.811.934z"/><path d="m60.388 43.201-1.834.798c3.029 6.966 3.242 12.485.586 15.141-2.628 2.629-8.068 2.449-14.932-.492-3.382-1.45-6.937-3.483-10.513-5.979 3.468-2.6 6.912-5.583 10.151-8.823 3.132-3.132 6.015-6.43 8.568-9.802l-1.594-1.207c-2.499 3.3-5.321 6.528-8.389 9.595-3.331 3.331-6.879 6.386-10.44 9.014-3.524-2.602-7.047-5.637-10.423-9.014-1.493-1.493-2.97-3.072-4.39-4.692l-1.504 1.317c1.448 1.654 2.955 3.265 4.479 4.789 3.278 3.279 6.697 6.25 10.129 8.825-.822.574-1.644 1.132-2.461 1.655l1.076 1.686c1.027-.656 2.059-1.363 3.091-2.096 3.88 2.758 7.751 4.994 11.432 6.571 3.91 1.675 7.393 2.513 10.308 2.513 2.875 0 5.195-.815 6.826-2.446 3.316-3.316 3.258-9.478-.166-17.353z"/><g fill="#f0bc5e"><path d="m58 45c-2.206 0-4-1.794-4-4s1.794-4 4-4 4 1.794 4 4-1.794 4-4 4z"/><path d="m6 28c-2.757 0-5-2.243-5-5s2.243-5 5-5 5 2.243 5 5-2.243 5-5 5z"/><path d="m39 11c-2.206 0-4-1.794-4-4s1.794-4 4-4 4 1.794 4 4-1.794 4-4 4z"/><path d="m26 61c-2.206 0-4-1.794-4-4s1.794-4 4-4 4 1.794 4 4-1.794 4-4 4z"/><path d="m53 35c-1.654 0-3-1.346-3-3s1.346-3 3-3 3 1.346 3 3-1.346 3-3 3z"/><path d="m15 40c-1.654 0-3-1.346-3-3s1.346-3 3-3 3 1.346 3 3-1.346 3-3 3z"/></g></svg>