<svg id="Layer_3" enable-background="new 0 0 64 64" height="512" viewBox="0 0 64 64" width="512" xmlns="http://www.w3.org/2000/svg"><path d="m45 57h-1.382l-2.724-5.447-1.789.895 2.277 4.552h-18.764l2.276-4.553-1.789-.895-2.723 5.448h-1.382c-2.757 0-5 2.243-5 5v1h36v-1c0-2.757-2.243-5-5-5zm-28.829 4c.413-1.164 1.525-2 2.829-2h26c1.304 0 2.416.836 2.829 2z"/><g fill="#f0bc5e"><path d="m59.264 18.858c-1.17 1.239-2.647 2.184-4.317 2.699.032.143.053.29.053.443v24c0 1.105-.895 2-2 2h-21-21c-1.105 0-2-.895-2-2v-24c0-.153.021-.3.053-.443-1.67-.514-3.147-1.46-4.317-2.699l-.147.334c-.391.891-.589 1.836-.589 2.808v24c0 3.859 3.141 7 7 7h42c3.859 0 7-3.141 7-7v-24c0-.972-.198-1.917-.589-2.808z"/><path d="m42.468 15.025-20.927-.025c-.635 2.021-1.895 3.766-3.553 5.008h28.024c-1.651-1.237-2.906-2.972-3.544-4.983z"/><path d="m43 30.719-1.921-.479 1.02-1.698-4.64-4.64-1.698 1.02-.48-1.922h-6.562l-.479 1.921-1.698-1.02-4.64 4.64 1.02 1.698-1.922.48v6.562l1.921.479-1.02 1.698 4.64 4.64 1.698-1.02.48 1.922h6.562l.479-1.921 1.698 1.02 4.64-4.64-1.02-1.698 1.922-.48zm-11 7.281c-2.209 0-4-1.791-4-4s1.791-4 4-4 4 1.791 4 4-1.791 4-4 4z"/></g><path d="m63 12c0-6.065-4.935-11-11-11s-11 4.935-11 11c0 2.657.947 5.097 2.521 7h-23.042c1.574-1.903 2.521-4.343 2.521-7 0-6.065-4.935-11-11-11s-11 4.935-11 11c0 4.653 2.909 8.631 7 10.236v23.764c0 1.654 1.346 3 3 3h42c1.654 0 3-1.346 3-3v-23.764c4.091-1.605 7-5.583 7-10.236zm-13-3c0-1.103.897-2 2-2s2 .897 2 2-.897 2-2 2-2-.897-2-2zm2 4c2.206 0 4 1.794 4 4v3.05c-1.207.603-2.562.95-4 .95s-2.793-.347-4-.95v-3.05c0-2.206 1.794-4 4-4zm-44 7.05v-3.05c0-2.206 1.794-4 4-4s4 1.794 4 4v3.05c-1.207.603-2.562.95-4 .95s-2.793-.347-4-.95zm2-11.05c0-1.103.897-2 2-2s2 .897 2 2-.897 2-2 2-2-.897-2-2zm-7 3c0-4.963 4.037-9 9-9s9 4.037 9 9c0 2.657-1.164 5.041-3 6.689v-1.689c0-2.26-1.256-4.23-3.107-5.253.682-.718 1.107-1.681 1.107-2.747 0-2.206-1.794-4-4-4s-4 1.794-4 4c0 1.066.425 2.029 1.107 2.747-1.851 1.023-3.107 2.993-3.107 5.253v1.689c-1.836-1.648-3-4.032-3-6.689zm51 34c0 .552-.448 1-1 1h-42c-.552 0-1-.448-1-1v-23.191c.65.12 1.316.191 2 .191 2.346 0 4.517-.744 6.305-2h27.391c1.787 1.256 3.959 2 6.305 2 .684 0 1.35-.071 2-.191v23.191zm4-27.311v-1.689c0-2.26-1.256-4.23-3.107-5.253.682-.718 1.107-1.681 1.107-2.747 0-2.206-1.794-4-4-4s-4 1.794-4 4c0 1.066.425 2.029 1.107 2.747-1.851 1.023-3.107 2.993-3.107 5.253v1.689c-1.836-1.649-3-4.033-3-6.689 0-4.963 4.037-9 9-9s9 4.037 9 9c0 2.657-1.164 5.041-3 6.689z"/><path d="m32 29c-2.757 0-5 2.243-5 5s2.243 5 5 5 5-2.243 5-5-2.243-5-5-5zm0 8c-1.654 0-3-1.346-3-3s1.346-3 3-3 3 1.346 3 3-1.346 3-3 3z"/><path d="m17 33h2v2h-2z"/><path d="m13 33h2v2h-2z"/><path d="m13 29h2v2h-2z"/><path d="m13 25h2v2h-2z"/><path d="m49 33h2v2h-2z"/><path d="m49 29h2v2h-2z"/><path d="m49 25h2v2h-2z"/><path d="m45 33h2v2h-2z"/><path d="m37 8h2v2h-2z"/><path d="m33 8h2v2h-2z"/><path d="m29 8h2v2h-2z"/><path d="m25 8h2v2h-2z"/></svg>