<svg id="Layer_3" enable-background="new 0 0 64 64" height="512" viewBox="0 0 64 64" width="512" xmlns="http://www.w3.org/2000/svg"><path d="m46 22c0 1.654 1.346 3 3 3h2c.551 0 1 .448 1 1s-.449 1-1 1h-6c-1.654 0-3 1.346-3 3s1.346 3 3 3h9.634c4.447-3.066 7.366-8.19 7.366-14h-13c-1.654 0-3 1.346-3 3z" fill="#f0bc5e"/><path d="m44 16c0-1.654-1.346-3-3-3h-2c-.551 0-1-.448-1-1s.449-1 1-1h6c1.654 0 3-1.346 3-3s-1.346-3-3-3h-9.634c-4.447 3.066-7.366 8.19-7.366 14h13c1.654 0 3-1.346 3-3z" fill="#f0bc5e"/><path d="m37.46 30.798c.679.436 1.401.813 2.146 1.125l.771-1.846c-.638-.267-1.256-.59-1.836-.963z"/><path d="m33.141 20.848-1.977.305c.52 3.367 2.256 6.427 4.89 8.616l1.278-1.537c-2.257-1.878-3.746-4.501-4.191-7.384z"/><path d="m7.001 50.981-2 .037c.015.777.14 1.545.373 2.282l1.907-.602c-.175-.553-.269-1.132-.28-1.717z"/><path d="m13.14 57c-2.357 0-4.47-1.318-5.514-3.441l-1.795.883c1.382 2.811 4.183 4.558 7.309 4.558 1.462 0 2.898-.395 4.155-1.14l-1.021-1.721c-.948.564-2.032.861-3.134.861z"/><path d="m60.866 31.48-1.577-1.577c2.317-3.03 3.711-6.802 3.711-10.903 0-9.925-8.075-18-18-18-7.179 0-13.371 4.234-16.259 10.327l-9.413-9.413c-.589-.59-1.373-.914-2.207-.914-1.721 0-3.121 1.4-3.121 3.121 0 .822.333 1.626.914 2.207l6.758 6.758c.208.209.328.498.328.793 0 .618-.503 1.121-1.121 1.121-.3 0-.581-.116-.793-.328l-4.551-4.551c-.723-.723-1.684-1.121-2.706-1.121-2.112 0-3.829 1.718-3.829 3.828 0 1.023.398 1.984 1.122 2.707l17.757 17.758c.39.39.39 1.024 0 1.414l-.599.599c-1.754-1.44-3.996-2.306-6.436-2.306-2.064 0-4.054.618-5.754 1.787l-8.828 6.068c-3.295 2.267-5.262 6.007-5.262 10.005 0 6.694 5.446 12.14 12.14 12.14 3.999 0 7.739-1.968 10.004-5.263l6.068-8.827c1.17-1.7 1.788-3.689 1.788-5.754 0-2.441-.866-4.682-2.306-6.436l.6-.6c1.168-1.17 1.168-3.072 0-4.242l-17.759-17.757c-.34-.341-.535-.811-.535-1.293 0-1.008.82-1.828 1.829-1.828.488 0 .948.19 1.293.535l4.55 4.551c.589.59 1.373.914 2.207.914 1.721 0 3.121-1.4 3.121-3.121 0-.822-.333-1.626-.914-2.207l-6.758-6.758c-.208-.209-.328-.498-.328-.793 0-.618.503-1.121 1.121-1.121.3 0 .581.116.793.328l10.012 10.012c-.593 1.782-.926 3.681-.926 5.66 0 6.645 3.629 12.446 9 15.564v7.217l2.416.603-1.281 2.136 5.347 5.346 2.134-1.281.603 2.415h7.562l.603-2.416 2.134 1.281 5.347-5.346-1.281-2.136 2.416-.602v-7.562l-2.416-.603zm-47.726 29.52c-5.591 0-10.14-4.549-10.14-10.14 0-3.267 1.58-6.319 4.224-8.223l14.137 14.138c-1.902 2.645-4.954 4.225-8.221 4.225zm15.86-17.844c0 1.658-.496 3.256-1.436 4.621l-5.041 7.332-6.109-6.109 1.914-1.914-1.414-1.414-1.914 1.914-6.109-6.11 7.333-5.041c1.364-.939 2.963-1.435 4.62-1.435 1.889 0 3.625.651 5.009 1.733l-2.181 2.181 1.414 1.414 2.181-2.181c1.082 1.384 1.733 3.121 1.733 5.009zm0-24.156c0-8.822 7.178-16 16-16s16 7.178 16 16-7.178 16-16 16-16-7.178-16-16zm25 19c0 2.757-2.243 5-5 5s-5-2.243-5-5c0-.35.051-.698.126-1.044.292.014.579.044.874.044 2.89 0 5.613-.701 8.036-1.917.616.848.964 1.855.964 2.917zm6-2.219v4.438l-1.949.487-.534.205-.466 1.139 1.296 2.159-3.138 3.138-2.158-1.295-1.22.496-.612 2.452h-4.438l-.487-1.949-.203-.535-1.142-.464-2.158 1.295-3.138-3.138 1.296-2.159-.5-1.22-2.449-.611v-4.636c1.3.551 2.684.932 4.118 1.164-.077.414-.118.833-.118 1.253 0 3.859 3.14 7 7 7s7-3.141 7-7c0-1.414-.425-2.767-1.207-3.918 1.166-.76 2.235-1.651 3.194-2.652l.36.361-1.296 2.159.503 1.22z"/><path d="m19.121 48c-1.721 0-3.121-1.4-3.121-3.121 0-.822.333-1.626.914-2.207l3.758-3.758c.589-.59 1.373-.914 2.207-.914 1.721 0 3.121 1.4 3.121 3.121 0 .822-.333 1.626-.914 2.207l-3.758 3.758c-.589.59-1.373.914-2.207.914z" fill="#f0bc5e"/></svg>