<svg id="Layer_3" enable-background="new 0 0 64 64" height="512" viewBox="0 0 64 64" width="512" xmlns="http://www.w3.org/2000/svg"><path d="m35.338 35.549.025-.376c-.956.529-2.042.827-3.174.827-1.421 0-2.804-.461-3.94-1.313l-2.249-1.687c2.583-1.291 4.624-3.456 5.762-6.111l.212-.495c.622-1.452 2.051-2.394 3.631-2.394h.444c.042 0 .08.011.121.012.267-.842.552-2.088-.271-2.912-.992-.994-2.541-.427-4.037.121-.604.222-1.726.632-2.023.543-.268-.159-.727-1.156-1.001-1.751-.65-1.412-1.386-3.013-2.838-3.013s-2.188 1.601-2.838 3.013c-.274.596-.733 1.593-.985 1.744-.311.099-1.436-.314-2.04-.535-1.496-.547-3.044-1.114-4.037-.121s-.427 2.541.121 4.037c.221.604.632 1.729.543 2.023-.159.268-1.156.727-1.751 1.001-1.412.65-3.013 1.386-3.013 2.838s1.601 2.188 3.013 2.838c.596.274 1.593.733 1.744.984.097.312-.314 1.436-.535 2.04-.547 1.496-1.113 3.044-.121 4.037.993.994 2.541.426 4.038-.121.604-.222 1.729-.636 2.022-.543.269.158.728 1.156 1.002 1.752.649 1.412 1.385 3.013 2.837 3.013s2.188-1.601 2.838-3.013c.274-.596.733-1.593.985-1.743.308-.095 1.435.314 2.039.535 1.497.548 3.045 1.112 4.038.12.992-.993.426-2.541-.121-4.037-.165-.451-.335-.916-.441-1.313z" fill="#f0bc5e"/><path d="m63 4.37v-.37c0-1.654-1.346-3-3-3h-.37l-14 12h-42.63v34h-2v6h15.234l-6 10h8.333l6-10h2.868l6 10h8.333l-6-10h15.232v-6h-2v-26.296zm-2.688-1.32c.301.099.539.337.638.638l-17.007 19.841-3.473-3.473zm-21.724 20.673.778-1.943 2.855 2.855-1.943.778c-.419-.694-.997-1.272-1.69-1.69zm.412 4.228c0 .513-.134 1.02-.389 1.464l-1.589 2.78c-.988 1.73-2.84 2.805-4.833 2.805-1.196 0-2.382-.396-3.34-1.113l-1.039-.779c2.147-1.417 3.849-3.441 4.871-5.824l.212-.495c.466-1.087 1.53-1.789 2.712-1.789h.444c1.627 0 2.951 1.324 2.951 2.951zm-21.566 33.049h-3.667l4.8-8h3.668zm20.8 0h-3.667l-4.8-8h3.668zm10.766-10h-46v-2h46zm-2-4h-42v-32h38.296l-5.134 4.4-1.466 3.665c-.213-.028-.425-.065-.647-.065h-.444c-1.983 0-3.77 1.178-4.55 3l-.212.495c-1.043 2.434-2.922 4.426-5.29 5.61l-1.447.724 3.543 2.657c1.301.977 2.913 1.514 4.54 1.514 2.709 0 5.227-1.461 6.57-3.812l1.589-2.78c.426-.747.652-1.597.652-2.457 0-.222-.037-.433-.065-.647l3.665-1.466 2.4-2.8z"/><path d="m7 31h2v-12h4v-2h-6z"/><path d="m7 33h2v2h-2z"/><path d="m7 37h2v2h-2z"/><path d="m43 43h2v2h-2z"/><path d="m43 39h2v2h-2z"/><path d="m43 35h2v2h-2z"/></svg>