<svg id="Layer_3" enable-background="new 0 0 64 64" height="512" viewBox="0 0 64 64" width="512" xmlns="http://www.w3.org/2000/svg"><path d="m22 59h-14c-1.654 0-3-1.346-3-3v-9h20v9c0 1.654-1.346 3-3 3z" fill="#f0bc5e"/><path d="m35 37h24v21h-24z" fill="#f0bc5e"/><path d="m25.473 39.404-3.473-1.984v-3.42c0-1.654-1.346-3-3-3h-8c-1.654 0-3 1.346-3 3v3.42l-3.473 1.985c-2.175 1.242-3.527 3.572-3.527 6.077v10.518c0 3.859 3.141 7 7 7h14c3.859 0 7-3.141 7-7v-10.518c0-2.505-1.352-4.835-3.527-6.078zm-14.473-6.404h1v2h2v-2h2v2h2v-2h1c.552 0 1 .448 1 1v3h-10v-3c0-.552.448-1 1-1zm16 23c0 2.757-2.243 5-5 5h-14c-2.757 0-5-2.243-5-5v-10.518c0-1.79.966-3.454 2.52-4.342l3.746-2.14h11.469l3.746 2.141c1.554.888 2.52 2.552 2.52 4.342v10.517z"/><path d="m54.414 13h-23.414v16.586l-2.297-2.297c-.229-14.535-12.115-26.289-26.703-26.289h-1v1c0 14.588 11.754 26.474 26.289 26.703l3.711 3.711v30.586h32v-41.414zm-51.393-9.979c12.303.502 22.31 10.043 23.557 22.143l-2.215-2.215-.662-3.97-1.973.328.201 1.208-1.852-1.852-.661-3.969-1.973.328.201 1.208-1.852-1.852-.662-3.97-1.973.328.201 1.208-1.852-1.852-.661-3.969-1.974.327.201 1.208-3.508-3.508-1.414 1.414 3.508 3.508-1.208-.201-.328 1.973 3.969.661 1.852 1.852-1.208-.201-.328 1.973 3.97.662 1.852 1.852-1.208-.201-.328 1.973 3.969.661 1.852 1.852-1.208-.201-.327 1.973 3.97.662 2.215 2.215c-12.1-1.246-21.641-11.254-22.143-23.556zm53.979 19.979v10h-20v-14h16v4zm-2-2v-4.586l4.586 4.586zm-22 40v-46h20v2h-18v18h24v-12h2v38z"/><path d="m35 57h24v2h-24z"/><path d="m57 53h2v2h-2z"/><path d="m35 53h20v2h-20z"/><path d="m35 49h24v2h-24z"/><path d="m35 45h24v2h-24z"/><path d="m39 41h20v2h-20z"/><path d="m35 41h2v2h-2z"/><path d="m35 37h24v2h-24z"/></svg>