<svg id="Layer_3" enable-background="new 0 0 64 64" height="512" viewBox="0 0 64 64" width="512" xmlns="http://www.w3.org/2000/svg"><path d="m43 1h-.608l-.28.54c-2.66 5.129-5.807 10.041-9.354 14.6l1.578 1.229c2.949-3.79 5.608-7.829 7.967-12.022 1.414 8.342 7.996 14.928 16.335 16.348-6.638 3.729-12.761 8.171-18.271 13.258l-5.705-5.705-1.414 1.414 5.673 5.673c-.878.846-1.74 1.708-2.586 2.586l-5.673-5.673-1.414 1.414 5.705 5.705c-5.684 6.157-10.577 13.069-14.554 20.623-9.449-.312-17.078-7.941-17.39-17.39 3.4-1.791 6.698-3.805 9.87-5.992l-2.989 4.949 5.573-1.393 2.656 5.311 4.134-10.758-1.867-.717-2.507 6.523-1.344-2.689-2.427.607 3.314-5.49-1.712-1.033-.187.31c-4.385 3.354-9.088 6.345-13.985 8.884l-.538.28v.608c0 11.028 8.972 20 20 20h.608l.28-.54c9.063-17.48 23.093-31.509 40.572-40.572l.54-.28v-.608c0-11.028-8.972-20-20-20zm1.053 2.047c9.085.529 16.371 7.816 16.9 16.9-9.089-.527-16.373-7.812-16.9-16.9z"/><path d="m5.442 38.108 1.393-5.572-5.311-2.656 10.758-4.134.718 1.867-6.524 2.507 2.689 1.344-.607 2.428 5.489-3.316 1.035 1.713z"/><path d="m39.224 17.535-1.612-1.184c.39-.531.774-1.067 1.154-1.607l1.637 1.148c-.388.552-.781 1.1-1.179 1.643zm2.322-3.306-1.658-1.117c.369-.548.731-1.099 1.089-1.653l1.681 1.084c-.365.565-.735 1.128-1.112 1.686z"/><path d="m27.125 46.632-1.6-1.201c.52-.691 1.048-1.375 1.584-2.052l1.567 1.242c-.525.663-1.043 1.333-1.551 2.011z"/><path d="m24.989 49.588-1.643-1.143c.485-.697.979-1.389 1.48-2.072l1.612 1.184c-.491.67-.974 1.347-1.449 2.031z"/><path d="m19.236 58.918-.69-.106c-3.603-.557-6.943-2.361-9.406-5.082l1.482-1.342c2 2.209 4.66 3.728 7.55 4.325 1.396-2.486 2.905-4.931 4.493-7.273l1.656 1.121c-1.688 2.49-3.284 5.097-4.747 7.746z"/><path d="m34.798 19.527c.419-1.453.039-3.075-1.066-4.18l-1.08-1.08c-1.104-1.104-2.726-1.482-4.179-1.066-.731-1.323-2.147-2.201-3.709-2.201h-1.527c-1.562 0-2.978.878-3.709 2.201-1.453-.416-3.076-.039-4.179 1.066l-1.08 1.08c-1.104 1.104-1.485 2.727-1.066 4.18-1.325.732-2.203 2.148-2.203 3.709v1.527c0 1.562.878 2.978 2.202 3.709-.419 1.453-.039 3.075 1.066 4.18l1.08 1.08c1.104 1.104 2.727 1.482 4.179 1.066.731 1.324 2.147 2.202 3.709 2.202h1.527c1.562 0 2.978-.878 3.709-2.201 1.451.415 3.075.038 4.179-1.066l1.08-1.08c1.104-1.104 1.485-2.727 1.066-4.18 1.325-.732 2.203-2.148 2.203-3.709v-1.527c0-1.562-.878-2.978-2.202-3.71zm-10.798 10.473c-3.314 0-6-2.686-6-6s2.686-6 6-6 6 2.686 6 6-2.686 6-6 6z" fill="#f0bc5e"/><path d="m24 31c-3.86 0-7-3.141-7-7s3.14-7 7-7 7 3.141 7 7-3.14 7-7 7zm0-12c-2.757 0-5 2.243-5 5s2.243 5 5 5 5-2.243 5-5-2.243-5-5-5z"/></svg>