<svg id="Layer_3" enable-background="new 0 0 64 64" height="512" viewBox="0 0 64 64" width="512" xmlns="http://www.w3.org/2000/svg"><path d="m23 19.723v-4.723h-3c-1.654 0-3-1.346-3-3v-8c0-1.654 1.346-3 3-3h24c1.654 0 3 1.346 3 3v8c0 1.654-1.346 3-3 3h-12.734z" fill="#f0bc5e"/><path d="m37 27h2v2h-2z"/><path d="m39 31h-2v6h4v-2h-2z"/><path d="m37 49h2v2h-2z"/><path d="m39 53h-2v6h4v-2h-2z"/><path d="m25 27h2v2h-2z"/><path d="m25 35h-2v2h4v-6h-2z"/><path d="m25 49h2v2h-2z"/><path d="m25 57h-2v2h4v-6h-2z"/><path d="m63 39v-2c0-4.208-2.616-7.81-6.304-9.283 1.4-1.1 2.304-2.803 2.304-4.717 0-3.309-2.691-6-6-6s-6 2.691-6 6c0 1.914.904 3.617 2.304 4.717-1.724.689-3.207 1.844-4.304 3.309v-5.026c0-2.757-2.243-5-5-5h-16c-2.757 0-5 2.243-5 5v5.025c-1.097-1.465-2.58-2.62-4.304-3.309 1.4-1.099 2.304-2.802 2.304-4.716 0-3.309-2.691-6-6-6s-6 2.691-6 6c0 1.914.904 3.617 2.304 4.717-3.688 1.473-6.304 5.075-6.304 9.283v2h18v16.025c-1.097-1.465-2.58-2.62-4.304-3.309 1.4-1.099 2.304-2.802 2.304-4.716 0-3.309-2.691-6-6-6s-6 2.691-6 6c0 1.914.904 3.617 2.304 4.717-3.688 1.473-6.304 5.075-6.304 9.283v2h18 2 22 2 18v-2c0-4.208-2.616-7.81-6.304-9.283 1.4-1.1 2.304-2.803 2.304-4.717 0-3.309-2.691-6-6-6s-6 2.691-6 6c0 1.914.904 3.617 2.304 4.717-1.724.689-3.207 1.844-4.304 3.309v-16.026zm-14-16c0-2.206 1.794-4 4-4s4 1.794 4 4-1.794 4-4 4-4-1.794-4-4zm4 6c4.411 0 8 3.589 8 8h-2v-2h-2v2h-8v-2h-2v2h-2c0-4.411 3.589-8 8-8zm-46-6c0-2.206 1.794-4 4-4s4 1.794 4 4-1.794 4-4 4-4-1.794-4-4zm10 14v-2h-2v2h-8v-2h-2v2h-2c0-4.411 3.589-8 8-8s8 3.589 8 8zm-10 10c0-2.206 1.794-4 4-4s4 1.794 4 4-1.794 4-4 4-4-1.794-4-4zm10 14v-2h-2v2h-8v-2h-2v2h-2c0-4.411 3.589-8 8-8s8 3.589 8 8zm32-14c0-2.206 1.794-4 4-4s4 1.794 4 4-1.794 4-4 4-4-1.794-4-4zm4 6c4.411 0 8 3.589 8 8h-2v-2h-2v2h-8v-2h-2v2h-2c0-4.411 3.589-8 8-8zm-10 8h-22v-22-2-11c0-1.654 1.346-3 3-3h16c1.654 0 3 1.346 3 3v11 2z"/><path d="m40 11c-1.654 0-3-1.346-3-3s1.346-3 3-3 3 1.346 3 3-1.346 3-3 3zm0-4c-.551 0-1 .449-1 1s.449 1 1 1 1-.449 1-1-.449-1-1-1z"/><path d="m32 11c-1.654 0-3-1.346-3-3s1.346-3 3-3 3 1.346 3 3-1.346 3-3 3zm0-4c-.551 0-1 .449-1 1s.449 1 1 1 1-.449 1-1-.449-1-1-1z"/><path d="m24 11c-1.654 0-3-1.346-3-3s1.346-3 3-3 3 1.346 3 3-1.346 3-3 3zm0-4c-.551 0-1 .449-1 1s.449 1 1 1 1-.449 1-1-.449-1-1-1z"/></svg>