<svg id="Layer_3" enable-background="new 0 0 64 64" height="512" viewBox="0 0 64 64" width="512" xmlns="http://www.w3.org/2000/svg"><path d="m38.917 34.669-21.917 21.917-4.086-4.086 1.793-1.793-1.414-1.414-1.793 1.793-4.086-4.086 21.917-21.917-1.414-1.414-22.833 22.833-3.386 15.8 15.8-3.386 22.833-22.833zm-23.924 22.738-4.259.913-5.054-5.054.913-4.259zm-9.812-1.812 3.224 3.224-4.103.879z"/><path d="m15.251 38.364h18.77v2h-18.77z" transform="matrix(.707 -.707 .707 .707 -20.619 28.95)"/><path d="m60.394 15.544c-.378-1.391-.932-2.726-1.653-3.982l1.362-2.33-5.334-5.333-2.331 1.361c-1.256-.721-2.591-1.275-3.981-1.653l-.686-2.607h-7.543l-.685 2.606c-1.391.377-2.726.932-3.981 1.653l-2.331-1.361-5.334 5.333 1.362 2.33c-.722 1.256-1.275 2.591-1.653 3.982l-2.606.686v7.543l2.606.685c.378 1.391.932 2.726 1.653 3.982l-1.362 2.33 5.334 5.334 2.331-1.362c1.256.722 2.591 1.275 3.981 1.653l.686 2.606h7.543l.685-2.606c1.391-.378 2.726-.932 3.981-1.653l2.331 1.362 5.334-5.334-1.362-2.33c.722-1.256 1.275-2.591 1.653-3.982l2.606-.686v-7.543zm-16.394 16.456c-6.627 0-12-5.373-12-12s5.373-12 12-12 12 5.373 12 12-5.373 12-12 12z" fill="#f0bc5e"/><path d="m44 33c-7.168 0-13-5.832-13-13s5.832-13 13-13 13 5.832 13 13-5.832 13-13 13zm0-24c-6.065 0-11 4.935-11 11s4.935 11 11 11 11-4.935 11-11-4.935-11-11-11z"/><path d="m44 27c-3.859 0-7-3.14-7-7s3.141-7 7-7 7 3.14 7 7-3.141 7-7 7zm0-12c-2.757 0-5 2.243-5 5s2.243 5 5 5 5-2.243 5-5-2.243-5-5-5z"/><path d="m14.586 47h2.828v2h-2.828z" transform="matrix(.707 -.707 .707 .707 -29.255 25.373)"/><path d="m28.722 47.5h15.556v2h-15.556z" transform="matrix(.707 -.707 .707 .707 -23.604 40.015)"/><path d="m26.586 56h2.828v2h-2.828z" transform="matrix(.707 -.707 .707 .707 -32.104 36.494)"/><path d="m35.343 49h11.314v2h-11.314z" transform="matrix(.707 -.707 .707 .707 -23.347 43.636)"/><path d="m32.586 56h2.828v2h-2.828z" transform="matrix(.707 -.707 .707 .707 -30.347 40.737)"/><path d="m7.722 26.5h15.556v2h-15.556z" transform="matrix(.707 -.707 .707 .707 -14.906 19.015)"/><path d="m5.586 35h2.828v2h-2.828z" transform="matrix(.707 -.707 .707 .707 -23.406 15.494)"/><path d="m8.343 22h11.314v2h-11.314z" transform="matrix(.707 -.707 .707 .707 -12.163 16.636)"/><path d="m5.586 29h2.828v2h-2.828z" transform="matrix(.707 -.707 .707 .707 -19.163 13.737)"/></svg>