<svg id="Layer_3" enable-background="new 0 0 64 64" height="512" viewBox="0 0 64 64" width="512" xmlns="http://www.w3.org/2000/svg"><path d="m58 53c-1.017 0-1.962.309-2.753.833l-8.398-8.398-1.414 1.414 8.398 8.398c-.524.79-.833 1.736-.833 2.753 0 2.757 2.243 5 5 5s5-2.243 5-5-2.243-5-5-5zm0 8c-1.654 0-3-1.346-3-3s1.346-3 3-3 3 1.346 3 3-1.346 3-3 3z"/><path d="m18.564 17.151-8.398-8.398c.525-.79.834-1.736.834-2.753 0-2.757-2.243-5-5-5s-5 2.243-5 5 2.243 5 5 5c1.017 0 1.962-.309 2.753-.833l8.398 8.398zm-15.564-11.151c0-1.654 1.346-3 3-3s3 1.346 3 3-1.346 3-3 3-3-1.346-3-3z"/><path d="m18.564 46.849-1.414-1.414-3.398 3.398c-.79-.524-1.735-.833-2.752-.833-2.757 0-5 2.243-5 5s2.243 5 5 5 5-2.243 5-5c0-1.017-.309-1.963-.833-2.753zm-7.564 9.151c-1.654 0-3-1.346-3-3s1.346-3 3-3 3 1.346 3 3-1.346 3-3 3z"/><path d="m53 6c-2.757 0-5 2.243-5 5 0 1.017.309 1.962.833 2.753l-3.398 3.398 1.414 1.414 3.398-3.398c.791.524 1.736.833 2.753.833 2.757 0 5-2.243 5-5s-2.243-5-5-5zm0 8c-1.654 0-3-1.346-3-3s1.346-3 3-3 3 1.346 3 3-1.346 3-3 3z"/><path d="m33 55.184v-3.184h-2v3.184c-1.161.414-2 1.514-2 2.816 0 1.654 1.346 3 3 3s3-1.346 3-3c0-1.302-.839-2.402-2-2.816zm-1 3.816c-.552 0-1-.449-1-1s.448-1 1-1 1 .449 1 1-.448 1-1 1z"/><path d="m12 31h-3.184c-.414-1.161-1.514-2-2.816-2-1.654 0-3 1.346-3 3s1.346 3 3 3c1.302 0 2.402-.839 2.816-2h3.184zm-6 2c-.552 0-1-.449-1-1s.448-1 1-1 1 .449 1 1-.448 1-1 1z"/><path d="m15.89 27.475-4.19-4.19c.187-.391.3-.823.3-1.285 0-1.654-1.346-3-3-3s-3 1.346-3 3 1.346 3 3 3c.462 0 .894-.114 1.285-.301l4.19 4.19zm-6.89-4.475c-.552 0-1-.449-1-1s.448-1 1-1 1 .449 1 1-.448 1-1 1z"/><path d="m45 53c-.462 0-.894.113-1.285.301l-5.829-5.829-1.414 1.414 5.829 5.829c-.188.391-.301.823-.301 1.285 0 1.654 1.346 3 3 3s3-1.346 3-3-1.346-3-3-3zm0 4c-.552 0-1-.449-1-1s.448-1 1-1 1 .449 1 1-.448 1-1 1z"/><path d="m60 29c-1.302 0-2.402.839-2.816 2h-5.184v2h5.184c.414 1.161 1.514 2 2.816 2 1.654 0 3-1.346 3-3s-1.346-3-3-3zm0 4c-.552 0-1-.449-1-1s.448-1 1-1 1 .449 1 1-.448 1-1 1z"/><path d="m52.31 29.605 3.405-3.406c.391.187.823.301 1.285.301 1.654 0 3-1.346 3-3s-1.346-3-3-3-3 1.346-3 3c0 .462.114.894.301 1.285l-3.405 3.406zm4.69-7.105c.552 0 1 .449 1 1s-.448 1-1 1-1-.449-1-1 .448-1 1-1z"/><path d="m35 4c0-1.654-1.346-3-3-3s-3 1.346-3 3c0 1.302.839 2.402 2 2.816v5.184h2v-5.184c1.161-.414 2-1.514 2-2.816zm-3 1c-.552 0-1-.449-1-1s.448-1 1-1 1 .449 1 1-.448 1-1 1z"/><path d="m24 8c0-1.654-1.346-3-3-3s-3 1.346-3 3 1.346 3 3 3c.462 0 .894-.113 1.285-.301l5.19 5.19 1.414-1.414-5.19-5.19c.188-.391.301-.823.301-1.285zm-3 1c-.552 0-1-.449-1-1s.448-1 1-1 1 .449 1 1-.448 1-1 1z"/><path d="m53 35.775v-7.551l-3.641-.936c-.4-1.477-.988-2.895-1.755-4.229l1.915-3.239-5.341-5.339-3.238 1.915c-1.333-.766-2.75-1.354-4.229-1.755l-.936-3.641h-7.551l-.936 3.641c-1.479.4-2.896.989-4.229 1.755l-3.238-1.915-5.341 5.339 1.915 3.239c-.767 1.335-1.354 2.753-1.755 4.229l-3.64.937v7.551l3.641.936c.4 1.477.988 2.895 1.755 4.229l-1.916 3.239 5.341 5.339 3.238-1.915c1.333.766 2.75 1.354 4.229 1.755l.937 3.641h7.551l.936-3.641c1.479-.4 2.896-.989 4.229-1.755l3.238 1.915 5.341-5.339-1.915-3.239c.767-1.335 1.354-2.753 1.755-4.229zm-21 9.225c-7.18 0-13-5.82-13-13s5.82-13 13-13 13 5.82 13 13-5.82 13-13 13z" fill="#f0bc5e"/><path d="m32 46c-7.72 0-14-6.28-14-14s6.28-14 14-14 14 6.28 14 14-6.28 14-14 14zm0-26c-6.617 0-12 5.383-12 12s5.383 12 12 12 12-5.383 12-12-5.383-12-12-12z"/><path d="m32 40c-4.411 0-8-3.589-8-8s3.589-8 8-8 8 3.589 8 8-3.589 8-8 8zm0-14c-3.309 0-6 2.691-6 6s2.691 6 6 6 6-2.691 6-6-2.691-6-6-6z"/></svg>