<svg id="Layer_3" enable-background="new 0 0 64 64" height="512" viewBox="0 0 64 64" width="512" xmlns="http://www.w3.org/2000/svg"><path d="m12 37h-6.158c-2.381 2.655-3.842 6.153-3.842 10 0 1.387.203 2.725.556 4h8.444c1.654 0 3-1.346 3-3s-1.346-3-3-3h-2c-.551 0-1-.449-1-1s.449-1 1-1h3c1.654 0 3-1.346 3-3s-1.346-3-3-3z" fill="#f0bc5e"/><path d="m17 40c0 1.654 1.346 3 3 3h5c.551 0 1 .449 1 1s-.449 1-1 1h-4c-1.654 0-3 1.346-3 3s1.346 3 3 3h2c.551 0 1 .449 1 1s-.449 1-1 1h-9c-1.654 0-3 1.346-3 3s1.346 3 3 3h11.973c3.652-2.736 6.027-7.085 6.027-12 0-3.847-1.461-7.345-3.842-10h-8.158c-1.654 0-3 1.346-3 3z" fill="#f0bc5e"/><path d="m59 14h-.522l-.847 1.217-8.702-8.702 1.071-1.111v-.404c0-2.206-1.794-4-4-4h-.475l-2.128 2.609c-5.258 5.785-8.36 13.215-8.805 21.01-6.444.4-12.559 2.584-17.822 6.393-8.715.124-15.77 7.243-15.77 15.988 0 8.822 7.178 16 16 16 8.355 0 15.224-6.44 15.93-14.615 4.13-5.132 6.723-11.492 7.386-18.039 8.282-.874 16.033-4.763 21.632-10.928l1.052-.984v-.434c0-2.206-1.794-4-4-4zm-17.623 5.791 3.523 3.523c-1.387.421-2.809.736-4.253.939.124-1.512.367-3.002.73-4.462zm5.625 2.797-4.988-4.988c.261-.776.556-1.539.883-2.289l6.306 6.306c-.72.354-1.454.678-2.201.971zm4.034-1.966-7.226-7.226c.362-.684.748-1.354 1.166-2.006l7.99 7.99c-.627.441-1.271.854-1.93 1.242zm3.535-2.465-8.438-8.438c.449-.601.929-1.18 1.427-1.745l8.691 8.691c-.541.522-1.101 1.019-1.68 1.492zm-9.659-13.243 1.523-1.866c.776.173 1.384.798 1.53 1.583l-1.608 1.669c-4.552 5.007-7.282 11.428-7.753 18.165-.617.041-1.235.069-1.857.069-.05 0-.099.006-.148.006.459-7.268 3.374-14.19 8.313-19.626zm-27.912 56.086c-7.72 0-14-6.28-14-14s6.28-14 14-14 14 6.28 14 14-6.28 14-14 14zm16.339-26.075-3.521-3.521c1.454-.369 2.94-.612 4.438-.746-.193 1.443-.502 2.869-.917 4.267zm-5.694-2.866 4.981 4.981c-.378.985-.812 1.948-1.297 2.885-1.411-2.846-3.637-5.212-6.38-6.791.879-.407 1.78-.762 2.696-1.075zm5.231 13.036c-.114-.957-.305-1.891-.581-2.789 2.122-3.593 3.5-7.628 4.001-11.757.151-.002.301-.014.452-.014.523 0 1.044-.017 1.564-.041-.586 5.204-2.485 10.265-5.436 14.601zm27.648-27.079c-5.485 6.034-13.083 9.735-21.157 10.399l-4.889.185-.003.03c-4.13.314-8.169 1.48-11.827 3.419-.868-.329-1.768-.591-2.701-.765 5.049-3.112 10.802-4.75 16.8-4.75 8.473 0 16.6-3.596 22.298-9.864l.436-.611c.745.185 1.327.789 1.479 1.546z"/></svg>