<svg id="Layer_3" enable-background="new 0 0 64 64" height="512" viewBox="0 0 64 64" width="512" xmlns="http://www.w3.org/2000/svg"><g fill="#f0bc5e"><path d="m61.141 22.219-2.415-.603 1.282-2.136-5.348-5.346-2.136 1.281-.602-2.415h-7.562l-.603 2.415-2.091-1.255-1.785 1.568 15.294 21.622 4.833-4.831-1.282-2.136 2.415-.603zm-10.008 8.976-6.688-9.916c1.019-.799 2.3-1.279 3.695-1.279 3.314 0 6 2.686 6 6 .001 2.223-1.211 4.159-3.007 5.195z"/><path d="m50 2h13v9h-13z"/><path d="m1 14h14v8h-14z"/><path d="m45 53h14v9h-14z"/></g><path d="m20.505 21.556h8.308v2.001h-8.308z" transform="matrix(.559 -.829 .829 .559 -7.832 30.377)"/><path d="m19.025 28.044h2.517v1.999h-2.517z" transform="matrix(.559 -.829 .829 .559 -15.137 29.623)"/><path d="m16.378 32.001h2.473v2.001h-2.473z" transform="matrix(.559 -.829 .829 .559 -19.594 29.14)"/><path d="m31 34h2v2h-2z"/><path d="m31 26h2v2h-2z"/><path d="m31 30h2v2h-2z"/><path d="m31 10h2v2h-2z"/><path d="m31 22h2v2h-2z"/><path d="m31 14h2v2h-2z"/><path d="m31 18h2v2h-2z"/><path d="m17.708 41.5h2v2h-2z" transform="matrix(.924 -.383 .383 .924 -14.844 10.399)"/><path d="m14.012 43.03h2.001v1.999h-2.001z" transform="matrix(.924 -.382 .382 .924 -15.68 9.073)"/><path d="m10.317 44.559h2v2h-2z" transform="matrix(.924 -.383 .383 .924 -16.579 7.803)"/><path d="m6.62 46.088h2v2h-2z" transform="matrix(.924 -.383 .383 .924 -17.446 6.504)"/><path d="m28.796 36.912h2.001v1.999h-2.001z" transform="matrix(.924 -.382 .382 .924 -12.222 14.256)"/><path d="m21.404 39.97h2v2h-2z" transform="matrix(.924 -.383 .383 .924 -13.977 11.698)"/><path d="m25.101 38.441h2v2h-2z" transform="matrix(.924 -.383 .383 .924 -13.11 12.996)"/><path d="m40.596 39.97h2v2h-2z" transform="matrix(.382 -.924 .924 .382 -12.167 63.738)"/><path d="m44.292 41.5h2v2h-2z" transform="matrix(.383 -.924 .924 .383 -11.309 68.072)"/><path d="m36.899 38.441h2v2h-2z" transform="matrix(.382 -.924 .924 .382 -13.037 59.378)"/><path d="m33.204 36.911h1.999v2.001h-1.999z" transform="matrix(.382 -.924 .924 .382 -13.898 55.04)"/><path d="m47.988 43.03h1.999v2.001h-1.999z" transform="matrix(.382 -.924 .924 .382 -10.423 72.469)"/><path d="m55.38 46.089h2v2h-2z" transform="matrix(.382 -.924 .924 .382 -8.689 81.177)"/><path d="m51.684 44.559h2v2h-2z" transform="matrix(.382 -.924 .924 .382 -9.559 76.817)"/><path d="m45.586 1-8.726 8.726-2.467-3.487c-.549-.776-1.444-1.239-2.393-1.239s-1.844.463-2.394 1.239l-8.266 11.687-4.926-4.926h-15.414v2h14.586l4.582 4.582-18.567 26.251c-.393.557-.601 1.211-.601 1.891 0 1.806 1.47 3.276 3.276 3.276h27.31l12 12h15.414v-2h-14.586l-10-10h25.31c1.806 0 3.276-1.47 3.276-3.276 0-.68-.208-1.334-.602-1.892l-10.07-14.237c1.75-1.313 2.812-3.386 2.812-5.595 0-3.859-3.141-7-7-7-1.397 0-2.718.428-3.871 1.201l-6.238-8.819 8.383-8.382h16.586v-2zm15.414 46.724c0 .064-.027.118-.036.179l-1.429-.591-.699 1.688h-53.672l-.7-1.688-1.429.591c-.008-.061-.035-.116-.035-.179 0-.265.081-.52.234-.737l28.005-39.592c.175-.248.459-.395.761-.395s.586.147.761.394l28.004 39.592c.154.218.235.473.235.738zm-12.859-26.724c2.757 0 5 2.243 5 5 0 1.559-.74 3.025-1.965 3.965l-5.754-8.136c.812-.533 1.739-.829 2.719-.829z"/><path d="m50 5h13v2h-13z"/><path d="m61 9h2v2h-2z"/><path d="m50 9h9v2h-9z"/><path d="m1 17h10v2h-10z"/><path d="m13 17h2v2h-2z"/><path d="m1 21h14v2h-14z"/><path d="m57 57h2v2h-2z"/><path d="m45 57h10v2h-10z"/><path d="m45 53h14v2h-14z"/></svg>