<svg id="Layer_3" enable-background="new 0 0 64 64" height="512" viewBox="0 0 64 64" width="512" xmlns="http://www.w3.org/2000/svg"><path d="m2.707 62.707-1.414-1.414 1.414-1.414 1.414 1.414zm15.292-.879c-.365 0-.728-.052-1.077-.154l.562-1.92c.417.124.868.092 1.265-.086l.818 1.824c-.497.223-1.024.336-1.568.336zm-3.12-1.535-1.414-1.414 1.414-1.414 1.414 1.414zm-9.344-.414-1.414-1.414 1.414-1.414 1.414 1.414zm15.926-.24-1.809-.855c.114-.241.175-.513.176-.784 0-.159-.021-.321-.064-.479l1.931-.521c.088.328.133.665.133 1.001-.001.566-.129 1.132-.367 1.638zm-9.41-2.174-.758-.758c-.143-.142-.307-.26-.487-.348l.885-1.795c.375.186.717.43 1.016.727l.759.76zm-3.687-.415-1.414-1.414.343-.343c.487-.487 1.096-.834 1.76-1.003l.494 1.938c-.316.081-.606.246-.84.479zm10.556-.716-1.414-1.414 1.414-1.414 1.414 1.414zm-2.829-2.829-1.414-1.414 1.414-1.414 1.414 1.414zm-2.828-2.828-1.414-1.414 1.414-1.414 1.414 1.414zm-2.828-2.828-1.414-1.414 1.414-1.414 1.414 1.414zm7.564-2.021c-.233 0-.467-.021-.697-.063l.359-1.967c.431.079.878.002 1.251-.214l1 1.732c-.58.335-1.242.512-1.913.512zm-10.393-.807-1.415-1.415 1.414-1.414 1.415 1.415zm7.475-.526-1.414-1.414 1.414-1.414 1.414 1.414zm6.515-.677-1.414-1.414 1.414-1.414 1.414 1.414zm-16.819-1.627-1.414-1.414 1.414-1.414 1.414 1.414zm7.476-.524-1.415-1.415 1.414-1.414 1.415 1.415zm12.171-.677-1.414-1.414 1.414-1.414 1.414 1.414zm-15-2.152-1.414-1.414 1.414-1.414 1.414 1.414zm-7.228-.407c-.016-.14-.023-.279-.024-.421 0-.776.227-1.518.655-2.151l1.656 1.121c-.204.301-.312.654-.312 1.021.001.064.005.138.013.211zm4.577-2.087c-.392-.182-.847-.22-1.263-.105l-.533-1.928c.869-.239 1.825-.161 2.642.221z"/><path d="m46.026 34.025-5.026-5.025-1.067.152c.04.278.067.559.067.848 0 3.314-2.686 6-6 6s-6-2.686-6-6 2.686-6 6-6c.289 0 .57.027.848.067l.152-1.067-5.025-5.025-.359 1.44-2.135-1.28-5.346 5.346 1.28 2.136-2.415.602v7.562l2.415.603-1.28 2.136 5.346 5.346 2.136-1.28.602 2.414h7.562l.603-2.415 2.136 1.28 5.346-5.346-1.28-2.135z" fill="#f0bc5e"/><path d="m62.775 2.633.014-.018-.042-.033c-.27-.587-.742-1.059-1.329-1.329l-.033-.042-.018.014c-.329-.143-.692-.225-1.074-.225-.309 0-.611.052-.901.154l-35.221 12.431 9.435 9.435c-3.676.206-6.606 3.254-6.606 6.98 0 3.859 3.141 7 7 7 3.726 0 6.774-2.93 6.98-6.606l9.435 9.435 12.43-35.22c.103-.29.155-.593.155-.902 0-.382-.082-.745-.225-1.074zm-22.316 25.434-5.28.754.754-5.28 20.366-15.84zm17.722-24.364-23.098 17.966-7.254-7.254zm-24.181 31.297c-2.757 0-5-2.243-5-5 0-2.654 2.085-4.811 4.7-4.97l-.879 6.148 6.149-.878c-.159 2.615-2.316 4.7-4.97 4.7zm15.585 1.171-7.254-7.254 17.966-23.098z"/></svg>