<svg id="Layer_3" enable-background="new 0 0 64 64" height="512" viewBox="0 0 64 64" width="512" xmlns="http://www.w3.org/2000/svg"><path d="m33 16.219-2.416-.603 1.281-2.134-5.347-5.347-2.134 1.281-.603-2.416h-7.562l-.603 2.416-2.134-1.281-5.347 5.347 1.281 2.134-2.416.603v7.562l2.416.603-1.281 2.134 5.347 5.347 2.134-1.281.603 2.416h7.562l.603-2.416 2.134 1.281 5.347-5.347-1.281-2.134 2.416-.603zm-13 9.781c-3.314 0-6-2.686-6-6s2.686-6 6-6 6 2.686 6 6-2.686 6-6 6z" fill="#f0bc5e"/><path d="m36.757 43.343h8.485v11.314h-8.485z" fill="#f0bc5e" transform="matrix(.707 -.707 .707 .707 -22.64 43.343)"/><path d="m20 27c3.86 0 7-3.14 7-7s-3.14-7-7-7-7 3.14-7 7 3.14 7 7 7zm0-12c2.757 0 5 2.243 5 5s-2.243 5-5 5-5-2.243-5-5 2.243-5 5-5z"/><path d="m39.983 16.568-1.128 1.184c-.546-4.56-2.725-8.812-6.183-11.909-4.077-3.652-9.344-5.33-14.832-4.724-8.983.993-16.038 8.263-16.775 17.287-.45 5.5 1.491 10.912 5.323 14.846.523.537.965 1.135 1.341 1.775-1.526.14-2.729 1.411-2.729 2.973 0 .771.301 1.468.78 2-.479.532-.78 1.229-.78 2 0 1.654 1.346 3 3 3h1.059c.442 3.976 3.484 7.171 7.383 7.856l10.144 10.144h14.842l21.97-23.016zm.034 2.864 20.585 20.584-19.619 20.553-6.983-6.983-7 7-7.586-7.586h2.586c4.624 0 8.441-3.507 8.941-8h1.059c1.654 0 3-1.346 3-3 0-.771-.301-1.468-.78-2 .48-.532.78-1.229.78-2 0-1.568-1.212-2.843-2.746-2.974.363-.62.789-1.195 1.292-1.707 3.393-3.449 5.297-7.976 5.429-12.793zm-1.431 41.568h-9.172l4.586-4.586zm-35.527-42.431c.648-7.942 7.097-14.589 15.001-15.462 4.912-.543 9.629.958 13.277 4.225 3.599 3.224 5.663 7.841 5.663 12.668 0 4.486-1.733 8.718-4.88 11.917-.878.893-1.576 1.933-2.102 3.083h-20.052c-.536-1.163-1.248-2.223-2.145-3.144-3.429-3.52-5.165-8.363-4.762-13.287zm4.941 18.431h24c.551 0 1 .449 1 1s-.449 1-1 1h-24c-.551 0-1-.449-1-1s.449-1 1-1zm-1 5c0-.551.449-1 1-1h24c.551 0 1 .449 1 1s-.449 1-1 1h-24c-.551 0-1-.449-1-1zm4.08 3h17.84c-.488 3.387-3.401 6-6.92 6h-4c-3.519 0-6.432-2.613-6.92-6z"/><path d="m50 48.414 8.414-8.414-14.414-14.414-8.414 8.414zm5.586-8.414-5.586 5.586-11.586-11.586 5.586-5.586z"/><path d="m43 40.343h2v11.314h-2z" transform="matrix(.707 -.707 .707 .707 -19.64 44.586)"/><path d="m39.915 43.41h2v11.232h-2z" transform="matrix(.717 -.697 .697 .717 -22.597 42.402)"/><path d="m37 46.343h2v11.314h-2z" transform="matrix(.707 -.707 .707 .707 -25.64 42.101)"/><path d="m48.536 36.536h2v2h-2z" transform="matrix(.707 -.707 .707 .707 -12.033 46.021)"/><path d="m51.328 39.379h2v1.9h-2z" transform="matrix(.707 -.707 .707 .707 -13.19 48.814)"/><path d="m45.707 33.707h2v2h-2z" transform="matrix(.707 -.707 .707 .707 -10.861 43.192)"/></svg>