<svg id="Layer_3" enable-background="new 0 0 64 64" height="512" viewBox="0 0 64 64" width="512" xmlns="http://www.w3.org/2000/svg"><path d="m36 16.586-19.414 19.414 17.414 17.414 19.414-19.414zm-8 13.414c-1.105 0-2-.895-2-2s.895-2 2-2 2 .895 2 2-.895 2-2 2z" fill="#f0bc5e"/><path d="m61.293 23.879-15.172-15.172c-1.1-1.101-2.564-1.707-4.121-1.707s-3.021.606-4.121 1.707l-8.879 8.879v-.586h-1c-6.065 0-11 4.935-11 11v1h.586l-8.879 8.879c-1.085 1.085-1.707 2.587-1.707 4.121s.622 3.036 1.707 4.121l15.172 15.172c1.1 1.101 2.564 1.707 4.121 1.707s3.021-.606 4.121-1.707l29.172-29.172c1.101-1.1 1.707-2.564 1.707-4.121s-.606-3.021-1.707-4.121zm-34.293-4.824v2.016c-3.061.44-5.489 2.868-5.929 5.929h-2.016c.463-4.165 3.78-7.482 7.945-7.945zm-4 9.945v-1c0-2.757 2.243-5 5-5h1v-2.586l8-8 5 5v2l8.586 8.586h2l5 5-23.586 23.586-20.586-20.586 7-7zm7.707 30.879c-1.446 1.445-3.968 1.445-5.414 0l-15.172-15.172c-.712-.713-1.121-1.699-1.121-2.707s.409-1.994 1.121-2.707l1.879-1.879 20.586 20.586zm29.172-29.172-.879.879-5.586-5.586h-2l-7.414-7.414v-2l-5.586-5.586.879-.879c1.446-1.446 3.968-1.446 5.414 0l15.172 15.172c.723.723 1.121 1.685 1.121 2.707s-.398 1.984-1.121 2.707z"/><path d="m28 31c1.654 0 3-1.346 3-3s-1.346-3-3-3-3 1.346-3 3 1.346 3 3 3zm0-4c.551 0 1 .449 1 1s-.449 1-1 1-1-.449-1-1 .449-1 1-1z"/><path d="m19.25 45.654h2v9.192h-2z" transform="matrix(.707 -.707 .707 .707 -29.601 29.037)"/><path d="m49 17.172h2v5.657h-2z" transform="matrix(.707 -.707 .707 .707 .502 41.213)"/><circle cx="54" cy="24" r="1"/><circle cx="46" cy="16" r="1"/><path d="m9 28v1h6v-1c0-7.168 5.832-13 13-13h1v-6h-1c-10.477 0-19 8.523-19 19zm18-14.967c-7.476.495-13.472 6.491-13.967 13.967h-2.004c.5-8.579 7.392-15.471 15.971-15.971z"/><path d="m7 28c0-11.58 9.42-21 21-21h1v-6h-1c-14.888 0-27 12.112-27 27v1h6zm-3.98-1c.513-12.992 10.988-23.467 23.98-23.98v2.002c-11.888.511-21.467 10.09-21.979 21.978z"/><path d="m48.414 34-12.414-12.414-4.414 4.414 12.414 12.414zm-12.414-9.586 9.586 9.586-1.586 1.586-9.586-9.586z"/><path d="m35 28.929h2v14.142h-2z" transform="matrix(.707 -.707 .707 .707 -14.912 36)"/><path d="m32 31.929h2v14.142h-2z" transform="matrix(.707 -.707 .707 .707 -17.912 34.757)"/><path d="m29 34.929h2v14.142h-2z" transform="matrix(.707 -.707 .707 .707 -20.912 33.515)"/></svg>