<svg id="Layer_3" enable-background="new 0 0 64 64" height="512" viewBox="0 0 64 64" width="512" xmlns="http://www.w3.org/2000/svg"><path d="m58 1h-32c-2.757 0-5 2.243-5 5v16h2v-11h38v42h-38v-3h-2v8c0 2.757 2.243 5 5 5h32c2.757 0 5-2.243 5-5v-52c0-2.757-2.243-5-5-5zm-35 8v-3c0-1.654 1.346-3 3-3h32c1.654 0 3 1.346 3 3v3zm35 52h-32c-1.654 0-3-1.346-3-3v-3h38v3c0 1.654-1.346 3-3 3z"/><path d="m36 5h12v2h-12z"/><path d="m47 13h2v2h-2z"/><path d="m43 13h2v2h-2z"/><path d="m39 13h2v2h-2z"/><path d="m35 13h2v2h-2z"/><path d="m31 13h2v2h-2z"/><path d="m27 13h2v2h-2z"/><path d="m28 51h-24c-1.654 0-3-1.346-3-3v-24c0-1.654 1.346-3 3-3h24c1.654 0 3 1.346 3 3v24c0 1.654-1.346 3-3 3z" fill="#f0bc5e"/><path d="m16 25c-6.065 0-11 4.935-11 11s4.935 11 11 11 11-4.935 11-11-4.935-11-11-11zm-3 16c-.552 0-1-.448-1-1s.448-1 1-1h7c1.654 0 3-1.346 3-3s-1.346-3-3-3h-2c-.552 0-1-.448-1-1s.448-1 1-1h5.478c.96 1.431 1.522 3.151 1.522 5s-.562 3.569-1.522 5zm-1.936-12.517c.594.713.936 1.595.936 2.517 0 2.206-1.794 4-4 4-.313 0-.62-.047-.923-.119.334-2.672 1.838-4.982 3.987-6.398zm-4.018 8.433c.315.051.632.084.954.084 3.309 0 6-2.691 6-6 0-1.239-.398-2.433-1.111-3.434.971-.36 2.016-.566 3.111-.566 2.137 0 4.099.752 5.645 2h-3.645c-1.654 0-3 1.346-3 3s1.346 3 3 3h2c.552 0 1 .448 1 1s-.448 1-1 1h-7c-1.654 0-3 1.346-3 3s1.346 3 3 3h8.645c-1.545 1.248-3.508 2-5.645 2-4.654 0-8.493-3.55-8.954-8.084z"/><circle cx="6" cy="26" r="1"/><circle cx="27" cy="26" r="1"/><circle cx="6" cy="46" r="1"/><circle cx="27" cy="46" r="1"/><path d="m36 57h12v2h-12z"/><path d="m40 28h16v5h-16z" fill="#f0bc5e"/><path d="m40 39h16v5h-16z" fill="#f0bc5e"/><path d="m59 29h-22v-8h22zm-20-2h18v-4h-18z"/><path d="m59 40h-22v-8h22zm-20-2h18v-4h-18z"/><path d="m59 51h-22v-8h22zm-20-2h18v-4h-18z"/><path d="m47 17h2v2h-2z"/><path d="m27 17h2v2h-2z"/></svg>