<svg id="Layer_3" enable-background="new 0 0 64 64" height="512" viewBox="0 0 64 64" width="512" xmlns="http://www.w3.org/2000/svg"><path d="m53 45.775v-7.551l-3.641-.936c-.4-1.479-.989-2.896-1.755-4.229l1.809-3.059h-8.413l.357-2.859c-2.869.501-6.068.859-9.357.859-5.158 0-10.095-.879-13.885-1.813l-3.634 3.634 1.915 3.239c-.766 1.333-1.354 2.75-1.755 4.229l-3.641.936v7.551l3.641.936c.4 1.479.989 2.896 1.755 4.229l-1.915 3.238 5.339 5.341 3.239-1.915c1.335.767 2.753 1.354 4.229 1.755l.937 3.64h7.551l.936-3.641c1.477-.4 2.895-.988 4.229-1.755l3.239 1.915 5.339-5.341-1.915-3.238c.766-1.333 1.354-2.75 1.755-4.229zm-21 9.225c-7.18 0-13-5.82-13-13s5.82-13 13-13 13 5.82 13 13-5.82 13-13 13z" fill="#f0bc5e"/><path d="m51.46 25.614c1.19-.399 1.878-.672 1.912-.685l.628-.252v-7.677h1c1.654 0 3-1.346 3-3v-4c0-1.654-1.346-3-3-3h-8v-1c0-2.757-2.243-5-5-5h-6c-2.757 0-5 2.243-5 5v1h-22c-1.654 0-3 1.346-3 3v4c0 1.654 1.346 3 3 3h1v7.677l.628.252c.357.143 7.715 3.04 16.797 3.854-5.477 1.902-9.425 7.101-9.425 13.217 0 7.72 6.28 14 14 14s14-6.28 14-14c0-4.462-2.106-8.435-5.368-11h11.501zm.54-2.306c-.214.078-.481.173-.794.281l-.823-6.589h1.617zm3-14.308c.551 0 1 .448 1 1v4c0 .552-.449 1-1 1h-5.335c-.612-.932-1.558-1.611-2.665-1.871v-4.129zm-22-3c0-1.654 1.346-3 3-3h6c1.654 0 3 1.346 3 3v1h-12zm-25 8v-4c0-.552.449-1 1-1h36v4.129c-1.107.26-2.052.939-2.665 1.871h-33.335c-.551 0-1-.448-1-1zm4 3h29.617l-1.159 9.269c-2.944.478-5.789.731-8.458.731-9.124 0-17.659-2.845-20-3.693zm20 31c-3.309 0-6-2.691-6-6s2.691-6 6-6 6 2.691 6 6-2.691 6-6 6zm-1-17.949v4.019c-3.612.453-6.477 3.319-6.931 6.931h-4.019c.484-5.82 5.131-10.467 10.95-10.95zm-10.949 12.949h4.019c.453 3.612 3.319 6.477 6.931 6.931v4.019c-5.82-.484-10.467-5.131-10.95-10.95zm12.949 10.949v-4.019c3.612-.453 6.477-3.319 6.931-6.931h4.019c-.484 5.82-5.131 10.467-10.95 10.95zm10.949-12.949h-4.019c-.453-3.612-3.319-6.477-6.931-6.931v-4.019c5.82.484 10.467 5.131 10.95 10.95zm-7.368-12.215c1.185-.107 2.396-.266 3.62-.453l-.268 2.145c-1.026-.709-2.154-1.275-3.352-1.692zm5.552.215 1.487-11.899c.15-1.198 1.173-2.101 2.38-2.101s2.23.903 2.38 2.101l1.487 11.899z"/><path d="m32 23c-.646 0-1.298-.018-1.952-.049l-.096 1.998c.686.033 1.37.051 2.048.051z"/><path d="m13.698 21.953c3.369 1.067 8.872 2.378 14.213 2.854l.178-1.992c-5.18-.463-10.519-1.733-13.787-2.769z"/><path d="m32 38c-2.206 0-4 1.794-4 4s1.794 4 4 4 4-1.794 4-4-1.794-4-4-4zm0 6c-1.103 0-2-.897-2-2s.897-2 2-2 2 .897 2 2-.897 2-2 2z"/><path d="m59 21h2v2h-2z"/><path d="m59 25h2v2h-2z"/><path d="m61 23h2v2h-2z"/><path d="m57 23h2v2h-2z"/><path d="m55 31h2v2h-2z"/><path d="m55 35h2v2h-2z"/><path d="m57 33h2v2h-2z"/><path d="m53 33h2v2h-2z"/><path d="m3 19h2v2h-2z"/><path d="m3 23h2v2h-2z"/><path d="m5 21h2v2h-2z"/><path d="m1 21h2v2h-2z"/><path d="m7 31h2v2h-2z"/><path d="m7 35h2v2h-2z"/><path d="m9 33h2v2h-2z"/><path d="m5 33h2v2h-2z"/></svg>