<svg id="Layer_3" enable-background="new 0 0 64 64" height="512" viewBox="0 0 64 64" width="512" xmlns="http://www.w3.org/2000/svg"><path d="m44.93 46.282-2.413-.615 1.292-2.128-5.321-5.374-2.141 1.271-.591-2.418-7.562-.037-.615 2.413-2.128-1.292-5.374 5.321 1.271 2.141-2.418.591-.037 7.562 2.413.615-1.292 2.128 5.321 5.374 2.141-1.271.591 2.418 7.562.037.615-2.413 2.128 1.292 5.374-5.321-1.271-2.141 2.418-.591zm-13.048 9.718c-3.314-.016-5.987-2.716-5.971-6.029.016-3.314 2.716-5.987 6.029-5.971s5.987 2.716 5.971 6.029-2.715 5.987-6.029 5.971z" fill="#f0bc5e"/><path d="m31.914 57c-.012 0-.024 0-.036 0-1.87-.009-3.624-.746-4.939-2.074-1.316-1.329-2.035-3.09-2.026-4.96s.746-3.624 2.074-4.939c1.329-1.315 3.065-2.048 4.96-2.026 1.87.009 3.624.746 4.939 2.074 1.316 1.329 2.035 3.09 2.026 4.96s-.746 3.624-2.074 4.939c-1.321 1.307-3.068 2.026-4.924 2.026zm-.003-12c-1.326 0-2.574.513-3.517 1.447-.949.94-1.475 2.193-1.481 3.528-.007 1.335.507 2.594 1.447 3.543s2.193 1.475 3.528 1.481h.026c1.326 0 2.574-.513 3.517-1.447.949-.94 1.475-2.193 1.481-3.528.007-1.336-.507-2.594-1.447-3.543s-2.193-1.475-3.528-1.481c-.009 0-.018 0-.026 0z"/><path d="m14.975 37.107-.038 7.809-4-.02.038-7.809-2-.01-.045 9.144 3.974 5.353 4.026-5.313.044-9.143zm-3.048 9.795 2 .01-1.007 1.328z"/><path d="m57.947 42.817c.003-.646-.181-1.274-.532-1.817l-17.139-26.442 1.105-1.639-3.854-3.892-2.414-.012.024-5c.004-.801-.305-1.556-.868-2.125-.564-.57-1.316-.886-2.117-.89-.005 0-.01 0-.015 0-.795 0-1.544.308-2.11.868-.569.564-.885 1.316-.889 2.117l-.024 5-2.414-.012-3.892 3.854 1.054 1.598-8.321 11.94 1.641 1.144 7.865-11.286 1.85 2.805-8.813 13.287 1.667 1.105 8.343-12.578.02.031c.875 1.325 2.344 2.121 3.931 2.128h.024c1.295 0 2.508-.531 3.392-1.443l14.958 23.039c.563.867 1.492 1.393 2.513 1.476l-.02 4.031 2 .01.02-4.031c1.678-.153 3.006-1.547 3.015-3.266zm-26.81-38.821c.001-.267.106-.518.296-.706.189-.188.475-.266.708-.29.267.001.518.106.706.296s.291.441.29.708l-.024 5-2-.01zm.917 17.004c-.917-.004-1.766-.464-2.271-1.23l-4.403-6.675 2.138-2.117 9.172.045 2.116 2.138-4.468 6.632c-.513.76-1.385 1.207-2.284 1.207zm22.583 23.111c-.002 0-.004 0-.006 0l-1.442-.007c-.443-.002-.852-.225-1.093-.597l-15.373-23.677 2.338-3.469 16.676 25.727c.14.215.212.463.211.719-.004.72-.592 1.304-1.311 1.304z"/><path d="m32.093 13c-.005 0-.01 0-.015 0-1.647 0-2.992 1.336-3 2.985-.004.801.304 1.557.868 2.126s1.316.885 2.117.889h.015c1.647 0 2.992-1.336 3-2.985.004-.801-.304-1.557-.868-2.126s-1.315-.885-2.117-.889zm.985 3.005c-.002.551-.449.957-1.005.995-.267-.001-.518-.106-.706-.296-.188-.189-.291-.441-.289-.708.002-.55.451-.995 1-.995h.005c.268.001.518.107.706.296s.291.441.289.708z"/><path d="m13 38.907c-.012 0-.023 0-.035 0-1.87-.009-3.624-.746-4.939-2.074-1.316-1.329-2.035-3.091-2.026-4.96s.746-3.624 2.074-4.939c1.329-1.315 3.071-2.04 4.96-2.026 1.87.009 3.624.746 4.939 2.074 1.316 1.329 2.035 3.09 2.026 4.96-.018 3.848-3.154 6.965-6.999 6.965zm0-8.907c-.506 0-.982.196-1.341.552-.362.359-.563.836-.565 1.346-.003.51.194.989.552 1.351.359.362.836.563 1.346.565h.009c1.047 0 1.902-.849 1.907-1.898.003-.509-.194-.989-.552-1.351-.359-.362-.836-.563-1.346-.565-.004 0-.007 0-.01 0z" fill="#f0bc5e"/><path d="m13.015 28.907c-.005 0-.01 0-.015 0-1.647 0-2.992 1.336-3 2.985-.004.801.304 1.557.868 2.126s1.316.885 2.117.889h.015c1.647 0 2.992-1.336 3-2.985.008-1.654-1.331-3.006-2.985-3.015zm-.02 4c-.267-.001-.518-.106-.706-.296-.188-.189-.291-.441-.289-.708.002-.55.451-.995 1-.995h.005c.551.003.998.454.995 1.005s-.464 1.021-1.005.994z"/></svg>