<svg id="Layer_3" enable-background="new 0 0 64 64" height="512" viewBox="0 0 64 64" width="512" xmlns="http://www.w3.org/2000/svg"><path d="m49 45.775v-4.775h-42v4.775l3.641.936c.4 1.477.988 2.895 1.755 4.229l-1.916 3.24 5.341 5.339 3.238-1.915c1.333.766 2.75 1.354 4.229 1.755l.937 3.641h7.551l.936-3.641c1.479-.4 2.896-.989 4.229-1.755l3.238 1.915 5.341-5.339-1.915-3.239c.767-1.335 1.354-2.753 1.755-4.229zm-21 9.225c-7.18 0-13-5.82-13-13h26c0 7.18-5.82 13-13 13z" fill="#f0bc5e"/><path d="m30.621 28.379c-1.303-1.303-2.621-3.652-2.621-5.621v-3.758h2v-6h-17.343c-1.336 0-2.592.52-3.536 1.464l-2.121 2.122v.414c0 2.206 1.794 4 4 4h.414l1.121-1.122c.408-.408.915-.678 1.465-.8v13.922h6v-14h2v3.758c0 3.436 1.686 7.341 4.293 9.949l.707.707 4.328-4.328z" fill="#f0bc5e"/><path d="m61.257 11.157c1.124-1.124 1.743-2.618 1.743-4.207 0-3.281-2.669-5.95-5.95-5.95-1.589 0-3.083.619-4.207 1.742l-4.258 4.258h-45.585v30h-2v6h13.051c.516 7.253 6.567 13 13.949 13s13.433-5.747 13.949-13h13.051v-6h-2v-17.586zm-11.843-2.157 1.586-1.586 5.586 5.586-1.586 1.586zm-1.414 1.414 2.086 2.086-11.586 11.586-2.086-2.086zm-12.419 13.581 4.424 4.424-5.688 1.264zm6.419 3.591-2.086-2.086 11.586-11.586 2.086 2.086zm12.257-23.429c.746-.746 1.738-1.157 2.793-1.157 2.178 0 3.95 1.772 3.95 3.95 0 1.055-.411 2.047-1.157 2.793l-1.843 1.843-5.586-5.586zm-26.257 49.843c-6.28 0-11.438-4.851-11.949-11h4.019c.495 3.94 3.859 7 7.931 7s7.436-3.06 7.931-7h4.019c-.513 6.149-5.671 11-11.951 11zm-5.91-11h11.82c-.478 2.833-2.942 5-5.91 5s-5.431-2.167-5.91-5zm30.91-2h-50v-2h50zm-2-4h-46v-28h41.585l-12.498 12.499-2.404 10.818 10.818-2.404 8.499-8.499z"/><path d="m49 27h-2v6h-4v2h6z"/><path d="m39 33h2v2h-2z"/></svg>