<svg id="Layer_3" enable-background="new 0 0 64 64" height="512" viewBox="0 0 64 64" width="512" xmlns="http://www.w3.org/2000/svg"><g fill="#f0bc5e"><path d="m37.866 31.48-1.278-1.278-3.588.798.797-3.587-1.279-1.278-2.134 1.281-.603-2.416h-7.562l-.603 2.416-2.134-1.281-5.347 5.346 1.281 2.136-2.416.602v7.562l2.416.603-1.281 2.136 5.347 5.346 2.134-1.281.603 2.415h7.562l.603-2.416 2.134 1.281 5.347-5.346-1.281-2.136 2.416-.602v-7.562l-2.416-.603zm-11.866 12.52c-3.314 0-6-2.686-6-6s2.686-6 6-6 6 2.686 6 6-2.686 6-6 6z"/><path d="m52 23h10v4h-10z"/><path d="m52 31h6v4h-6z"/><path d="m52 39h8v4h-8z"/></g><path d="m63 6.95c0-3.281-2.669-5.95-5.95-5.95-1.589 0-3.083.619-4.208 1.743l-8.256 8.257h-38.586c-2.757 0-5 2.243-5 5v42c0 2.757 2.243 5 5 5h5v-8h42v-35.585l8.258-8.257c1.123-1.125 1.742-2.619 1.742-4.208zm-26.586 15.05 11.586-11.586 2.086 2.086-11.586 11.586zm-.833 1.995 4.424 4.424-5.688 1.264zm6.419 3.591-2.086-2.086 11.586-11.586 2.086 2.086zm7.414-18.586 1.586-1.586 5.586 5.586-1.586 1.586zm-40.414 52h-3c-1.654 0-3-1.346-3-3v-38.002c.836.629 1.875 1.002 3 1.002h3zm42-8h-40v-34h-5c-1.654 0-3-1.346-3-3s1.346-3 3-3h36.586l-8.499 8.499-2.404 10.818 10.818-2.404 8.499-8.499zm8.843-43.257-1.843 1.843-5.586-5.586 1.843-1.843c.746-.746 1.738-1.157 2.793-1.157 2.178 0 3.95 1.772 3.95 3.95 0 1.055-.411 2.047-1.157 2.793z"/><path d="m26 31c-3.86 0-7 3.141-7 7s3.14 7 7 7 7-3.141 7-7-3.14-7-7-7zm0 12c-2.757 0-5-2.243-5-5s2.243-5 5-5 5 2.243 5 5-2.243 5-5 5z"/><path d="m13 15h17v2h-17z"/><path d="m28 19h2v2h-2z"/><path d="m13 19h13v2h-13z"/><path d="m49 38h-2v11h-4v2h6z"/><path d="m47 34h2v2h-2z"/><path d="m47 30h2v2h-2z"/><path d="m5 57h2v2h-2z"/><path d="m5 53h2v2h-2z"/><path d="m5 49h2v2h-2z"/></svg>