<svg id="Layer_3" enable-background="new 0 0 64 64" height="512" viewBox="0 0 64 64" width="512" xmlns="http://www.w3.org/2000/svg"><g fill="#f0bc5e"><path d="m47 49h-16v-10h16z"/><path d="m9 22h16v9h-16z"/><path d="m43 22c0 1.654 1.346 3 3 3h1c.551 0 1 .449 1 1s-.449 1-1 1h-3c-1.654 0-3 1.346-3 3s1.346 3 3 3h10.634c4.447-3.066 7.366-8.19 7.366-14h-16c-1.654 0-3 1.346-3 3z"/><path d="m44 16c0-1.654-1.346-3-3-3h-1c-.551 0-1-.449-1-1s.449-1 1-1h3c1.654 0 3-1.346 3-3s-1.346-3-3-3h-7.634c-4.447 3.066-7.366 8.19-7.366 14h13c1.654 0 3-1.346 3-3z"/></g><path d="m57.506 12.701-1.785.901c.276.547.511 1.121.7 1.705l1.903-.615c-.22-.682-.495-1.352-.818-1.991z"/><path d="m55.01 9.213-1.43 1.398c.429.438.828.914 1.186 1.414l1.626-1.164c-.416-.583-.882-1.137-1.382-1.648z"/><path d="m50.638 8.405c.542.288 1.064.621 1.556.989l1.2-1.6c-.573-.43-1.184-.818-1.815-1.155z"/><path d="m36.053 29.769c.766.638 1.602 1.194 2.484 1.653l.924-1.773c-.756-.394-1.472-.871-2.129-1.417z"/><path d="m33.321 21.77-1.946.46c.573 2.423 1.791 4.658 3.523 6.463l1.443-1.385c-1.485-1.548-2.529-3.463-3.02-5.538z"/><path d="m17 33c-4.411 0-8 3.589-8 8s3.589 8 8 8 8-3.589 8-8-3.589-8-8-8zm0 14c-3.309 0-6-2.691-6-6s2.691-6 6-6 6 2.691 6 6-2.691 6-6 6z"/><path d="m9 29h16v2h-16z"/><path d="m23 25h2v2h-2z"/><path d="m9 25h12v2h-12z"/><path d="m9 21h16v2h-16z"/><path d="m63 19c0-9.925-8.075-18-18-18-9.61 0-17.461 7.575-17.953 17.065-.846-.658-1.895-1.065-3.047-1.065h-19v4h-4v38h22.101c.464 2.279 2.485 4 4.899 4s4.435-1.721 4.899-4h22.101v-25.044c4.82-3.233 8-8.729 8-14.956zm-34 8.209c2.99 5.805 9.033 9.791 16 9.791 1.376 0 2.711-.17 4-.464v16.464h-20zm-22-8.209h17c1.654 0 3 1.346 3 3v31h-20zm46 38h-22v1c0 1.654-1.346 3-3 3s-3-1.346-3-3v-1h-22v-34h2v32h46v-19.05c.687-.244 1.354-.527 2-.849zm-8-22c-8.822 0-16-7.178-16-16s7.178-16 16-16 16 7.178 16 16-7.178 16-16 16z"/></svg>