<svg id="Layer_3" enable-background="new 0 0 64 64" height="512" viewBox="0 0 64 64" width="512" xmlns="http://www.w3.org/2000/svg"><path d="m63 19v-11.414l-6.586-6.586h-9.414v8h-3c-1.654 0-3 1.346-3 3v19h-11v2h11v19c0 1.654 1.346 3 3 3h3v8h16v-11.414l-6.586-6.586h-9.414v8h-3c-.551 0-1-.448-1-1v-19h4v8h16v-11.414l-6.586-6.586h-9.414v8h-4v-19c0-.552.449-1 1-1h3v8zm-6 29.414 2.586 2.586h-2.586zm-8-1.414h6v6h6v8h-12zm8-20.586 2.586 2.586h-2.586zm-8-1.414h6v6h6v8h-12zm8-20.586 2.586 2.586h-2.586zm-8-1.414h6v6h6v8h-12z"/><path d="m51 5h2v2h-2z"/><path d="m51 9h2v2h-2z"/><path d="m51 13h7v2h-7z"/><path d="m51 27h2v2h-2z"/><path d="m51 31h2v2h-2z"/><path d="m51 35h8v2h-8z"/><path d="m51 49h2v2h-2z"/><path d="m51 53h2v2h-2z"/><path d="m51 57h8v2h-8z"/><path d="m18 45c-7.168 0-13-5.832-13-13s5.832-13 13-13 13 5.832 13 13-5.832 13-13 13z" fill="#f0bc5e"/><path d="m18 49v-2c.628 0 1.259-.039 1.876-.116l.248 1.984c-.698.088-1.413.132-2.124.132z"/><path d="m22.25 48.465-.499-1.938c5.598-1.44 9.91-6.039 10.986-11.714l1.965.373c-1.221 6.433-6.108 11.645-12.452 13.279z"/><path d="m16.124 17.116-.248-1.984c.698-.088 1.413-.132 2.124-.132v2c-.628 0-1.259.039-1.876.116z"/><path d="m3 32h-2c0-7.762 5.243-14.532 12.75-16.465l.499 1.938c-6.623 1.705-11.249 7.678-11.249 14.527z"/><path d="m14 31h12v2h-12z"/><path d="m10 31h2v2h-2z"/><path d="m24 35h2v2h-2z"/><path d="m10 35h12v2h-12z"/><path d="m10 27h16v2h-16z"/></svg>