<svg id="Layer_3" enable-background="new 0 0 64 64" height="512" viewBox="0 0 64 64" width="512" xmlns="http://www.w3.org/2000/svg"><path d="m43 45.775v-7.551l-3.641-.936c-.454-1.675-1.148-3.271-2.068-4.754l-.411-.414-3.537 3.537c1.051 1.878 1.657 4.038 1.657 6.343 0 7.18-5.82 13-13 13s-13-5.82-13-13 5.82-13 13-13c2.305 0 4.465.606 6.342 1.658l3.553-3.553-.251-.253-.18-.143c-1.485-.921-3.082-1.615-4.754-2.068l-.935-3.641h-7.551l-.936 3.641c-1.477.4-2.895.988-4.229 1.755l-3.239-1.916-5.339 5.341 1.915 3.238c-.766 1.333-1.354 2.75-1.755 4.229l-3.641.937v7.551l3.641.936c.4 1.479.989 2.896 1.755 4.229l-1.915 3.238 5.339 5.341 3.239-1.915c1.335.767 2.753 1.354 4.229 1.755l.937 3.64h7.551l.936-3.641c1.477-.4 2.895-.988 4.229-1.755l3.239 1.915 5.339-5.341-1.915-3.238c.766-1.333 1.354-2.75 1.755-4.229z" fill="#f0bc5e"/><path d="m51.535 8.121c-.723-.723-1.684-1.121-2.706-1.121-2.112 0-3.829 1.718-3.829 3.828 0 1.023.398 1.984 1.122 2.707l4.343 4.344c.723.723 1.684 1.121 2.706 1.121 2.112 0 3.829-1.718 3.829-3.828 0-1.023-.398-1.984-1.122-2.707zm1.636 8.879c-.488 0-.948-.19-1.293-.535l-4.343-4.344c-.34-.341-.535-.811-.535-1.293 0-1.008.82-1.828 1.829-1.828.488 0 .948.19 1.293.535l4.343 4.344c.34.341.535.811.535 1.293 0 1.008-.82 1.828-1.829 1.828z"/><path d="m60.429 11.015-7.443-7.443c-1.659-1.659-3.863-2.572-6.208-2.572-4.84 0-8.778 3.938-8.778 8.778v9.808l-9.847 9.847c-1.912-.937-4.022-1.433-6.153-1.433-7.72 0-14 6.28-14 14s6.28 14 14 14 14-6.28 14-14c0-2.131-.495-4.241-1.433-6.153l9.847-9.847h9.808c4.84 0 8.778-3.938 8.778-8.778 0-2.345-.913-4.549-2.571-6.207zm-39.842 35.983-2.163-.008 17.782-17.783c1.525-1.525 1.727-3.871.623-5.623l2.17-2.17 3.587 3.586zm-3.586-3.586 18.353-18.352c.363.913.177 1.995-.561 2.733l-17.783 17.783zm16.999-1.412c0 6.617-5.383 12-12 12s-12-5.383-12-12 5.383-12 12-12c1.594 0 3.172.332 4.638.948l-11.64 11.64.025 6.389 6.389.025.588-.588 3 3 2.707-2.707-1.414-1.414-1.293 1.293-1.586-1.586 4.586-4.586 1.586 1.586-1.293 1.293 1.414 1.414 2.707-2.707-3-3 3.638-3.638c.617 1.466.948 3.044.948 4.638zm20.222-18h-9.808l-4.414-4.414v-9.808c0-3.737 3.041-6.778 6.778-6.778 1.811 0 3.513.705 4.793 1.985l7.443 7.443c1.28 1.28 1.985 2.982 1.985 4.793.001 3.738-3.04 6.779-6.777 6.779z"/><circle cx="43" cy="18" r="1"/><circle cx="46" cy="21" r="1"/><path d="m22 34v-2c-3.344 0-6.453 1.661-8.315 4.443l1.662 1.113c1.49-2.227 3.978-3.556 6.653-3.556z"/><path d="m12.248 39.778 1.95.443c.14-.616.353-1.214.633-1.776l-1.791-.891c-.351.705-.617 1.454-.792 2.224z"/></svg>