<svg id="Layer_3" enable-background="new 0 0 64 64" height="512" viewBox="0 0 64 64" width="512" xmlns="http://www.w3.org/2000/svg"><path d="m32 63v-2c13.005 0 24.501-8.745 27.958-21.266l1.928.532c-3.695 13.385-15.984 22.734-29.886 22.734z"/><path d="m62.38 38.199-1.96-.397c.129-.638.239-1.289.325-1.934l1.982.265c-.092.688-.208 1.384-.347 2.066z"/><path d="m62.933 34.065-1.996-.131c.042-.639.063-1.284.063-1.934h2c0 .688-.023 1.383-.067 2.065z"/><path d="m4.042 24.266-1.928-.532c3.695-13.385 15.984-22.734 29.886-22.734v2c-13.005 0-24.501 8.745-27.958 21.266z"/><path d="m3.255 28.132-1.982-.265c.092-.689.208-1.384.347-2.066l1.96.397c-.129.639-.239 1.289-.325 1.934z"/><path d="m3 32h-2c0-.688.023-1.383.067-2.065l1.996.131c-.042.639-.063 1.284-.063 1.934z"/><path d="m24 57.414-17.414-17.414 6-6-.464-.464c-.724-.724-1.122-1.685-1.122-2.707 0-2.112 1.717-3.829 3.829-3.829 1.022 0 1.984.398 2.707 1.122l.464.464 5.293-5.293 1.414 1.414-6.707 6.707-1.878-1.878c-.346-.346-.805-.536-1.293-.536-1.009 0-1.829.82-1.829 1.829 0 .488.19.947.536 1.293l1.878 1.878-6 6 14.586 14.586 15.293-15.293 1.414 1.414z"/><path d="m40 41.414-6-6-.464.464c-.724.724-1.685 1.122-2.707 1.122-2.112 0-3.829-1.717-3.829-3.829 0-1.022.398-1.984 1.122-2.707l.464-.464-6-6 7.414-7.414 1.878 1.878c.346.346.805.536 1.293.536 1.009 0 1.829-.82 1.829-1.829 0-.488-.19-.947-.536-1.293l-1.878-1.878 7.414-7.414 6 6 .464-.464c.723-.724 1.685-1.122 2.707-1.122 2.112 0 3.829 1.717 3.829 3.829 0 1.022-.398 1.984-1.122 2.707l-.464.464 6 6-7.414 7.414-1.878-1.878c-.346-.346-.805-.536-1.293-.536-1.009 0-1.829.82-1.829 1.829 0 .488.19.947.536 1.293l1.878 1.878z" fill="#f0bc5e"/><path d="m32 59v-2c.643 0 1.29-.024 1.924-.073l.152 1.994c-.684.053-1.383.079-2.076.079z"/><path d="m36.153 58.683-.306-1.977c.644-.1 1.291-.226 1.923-.375l.46 1.946c-.683.162-1.382.298-2.077.406z"/><path d="m40.308 57.698-.615-1.903c10.352-3.345 17.307-12.907 17.307-23.795h2c0 11.758-7.512 22.085-18.692 25.698z"/><path d="m30.076 7.073-.152-1.994c.684-.053 1.383-.079 2.076-.079v2c-.643 0-1.29.024-1.924.073z"/><path d="m26.23 7.669-.46-1.946c.683-.162 1.382-.298 2.077-.405l.306 1.977c-.644.099-1.291.225-1.923.374z"/><path d="m7 32h-2c0-11.758 7.512-22.085 18.692-25.698l.615 1.903c-10.352 3.345-17.307 12.907-17.307 23.795z"/><path d="m24.707 51.707-1.414-1.414 1.343-1.343 1.414 1.414zm2.757-2.757-1.414-1.414 1.414-1.414 1.414 1.414zm2.829-2.829-1.414-1.414 1.414-1.414 1.414 1.414z"/></svg>