<svg id="Layer_3" enable-background="new 0 0 64 64" height="512" viewBox="0 0 64 64" width="512" xmlns="http://www.w3.org/2000/svg"><g fill="#f0bc5e"><path d="m24 30v4c0 1.105-.895 2-2 2-1.105 0-2-.895-2-2v-4z"/><path d="m32 30v4c0 1.105-.895 2-2 2-1.105 0-2-.895-2-2v-4z"/><path d="m40 30v4c0 1.105-.895 2-2 2-1.105 0-2-.895-2-2v-4z"/><path d="m37 47h-14c-2.757 0-5 2.243-5 5v1.91c.326.055.659.09 1 .09h23v-2c0-2.757-2.243-5-5-5z"/></g><path d="m62.086 7.672-5.758-5.758c-.581-.581-1.385-.914-2.207-.914-1.721 0-3.121 1.4-3.121 3.121v1.293l1.586 1.586-1.586 1.586-2-2-10.257 10.257c-.05.05-.094.105-.143.157h-6.6v-.297c1.912-1.71 3-4.126 3-6.703 0-2.558-1.094-5.004-3.002-6.71-1.906-1.704-4.465-2.518-7.03-2.231-4.078.456-7.4 3.741-7.898 7.812-.364 2.971.728 5.863 2.931 7.833v.296h-3c-2.757 0-5 2.243-5 5v3.491l-6.47 4.706c-2.838 2.063-4.531 5.388-4.531 8.895v12.908c0 6.065 4.935 11 11 11h42v-1c0-4.963-4.037-9-9-9h-26c-2.757 0-5-2.243-5-5v-9.515c0-1.336.521-2.592 1.465-3.536l3.949-3.949h20.586c1.654 0 3-1.346 3-3v-1.002c1.57-.013 3.045-.628 4.157-1.74l10.257-10.258-2-2 1.586-1.586 1.586 1.586h1.293c1.721 0 3.121-1.4 3.121-3.121 0-.834-.324-1.618-.914-2.207zm-40.086 9.328h8v3c0 .551-.448 1-1 1h-6c-.552 0-1-.449-1-1zm-2.946-7.887c.388-3.162 2.969-5.713 6.137-6.067.274-.031.547-.046.819-.046 1.726 0 3.354.618 4.655 1.781 1.483 1.327 2.335 3.229 2.335 5.219 0 1.9-.765 3.685-2.114 5h-3.886v-3h-2v3h-3.878c-1.566-1.525-2.339-3.675-2.068-5.887zm-2.054 9.887h3v1c0 1.654 1.346 3 3 3h6c1.654 0 3-1.346 3-3v-1h5.369c-.238.649-.369 1.339-.369 2.05 0 1.516.575 2.898 1.512 3.95h-24.512v-3c0-1.654 1.346-3 3-3zm-2.949 14.535c-1.322 1.322-2.051 3.08-2.051 4.95v9.515c0 3.859 3.141 7 7 7h26c3.521 0 6.442 2.612 6.929 6h-39.929c-4.963 0-9-4.037-9-9v-12.908c0-2.869 1.386-5.59 3.706-7.278l6.619-4.814h4.675v2.586zm26.949-5.535c0 .551-.448 1-1 1h-20v-2h21zm13.586-13-8.843 8.843c-.746.746-1.738 1.157-2.793 1.157-2.178 0-3.95-1.772-3.95-3.95 0-1.055.411-2.047 1.157-2.793l8.843-8.843.586.586 4.414 4.414zm-.586-3.414-1.586-1.586 1.586-1.586 1.586 1.586zm5.879-.586h-.465l-1-1-4.414-4.414-1-1v-.465c0-.618.503-1.121 1.121-1.121.295 0 .584.12.793.328l5.758 5.758c.212.212.328.493.328.793 0 .618-.503 1.121-1.121 1.121z"/><path d="m7 52v-8h-2v8c0 3.859 3.141 7 7 7h2v-2h-2c-2.757 0-5-2.243-5-5z"/><path d="m16 57h2v2h-2z"/><path d="m20 57h2v2h-2z"/><path d="m26 13c-1.654 0-3-1.346-3-3s1.346-3 3-3 3 1.346 3 3-1.346 3-3 3z" fill="#f0bc5e"/></svg>