<svg id="Layer_3" enable-background="new 0 0 64 64" height="512" viewBox="0 0 64 64" width="512" xmlns="http://www.w3.org/2000/svg"><path d="m20 46c-.665 0-1.322-.093-1.954-.276l.559-1.921c.45.131.919.197 1.395.197 2.757 0 5-2.243 5-5s-2.243-5-5-5-5 2.243-5 5c0 1.397.591 2.741 1.622 3.687l-1.352 1.474c-1.443-1.324-2.27-3.204-2.27-5.161 0-3.86 3.141-7 7-7s7 3.14 7 7-3.141 7-7 7z"/><path d="m43.553 44.94-.282.235c-2.031 1.69-7.364 2.825-13.271 2.825-4.222 0-7.112-1.706-10.459-3.682-4.221-2.491-9.004-5.314-17.525-5.318.343 12.76 10.787 23 23.63 23 4.709 0 9.225-1.871 12.554-5.2 1.844-1.844 3.259-4.071 4.145-6.524l1.924-5.329zm-31.553 6.06c-1.105 0-2-.895-2-2s.895-2 2-2 2 .895 2 2-.895 2-2 2zm8 6c-1.657 0-3-1.343-3-3s1.343-3 3-3 3 1.343 3 3-1.343 3-3 3zm11 0c-1.105 0-2-.895-2-2s.895-2 2-2 2 .895 2 2-.895 2-2 2z" fill="#f0bc5e"/><path d="m63 10c0-4.962-4.037-9-9-9h-.414l-3.586 3.586-2-2-5.414 5.414 1.594 1.594-30.795 11.121c-2.574.929-4.957 2.443-6.892 4.378-3.542 3.541-5.493 8.251-5.493 13.261 0 13.59 11.056 24.646 24.646 24.646 5.009 0 9.719-1.951 13.262-5.493 1.935-1.935 3.448-4.317 4.378-6.891l11.12-30.796 1.594 1.594 5.414-5.414-2-2 3.586-3.586zm-18.469 31.277c-2.335-1.931-7.083-2.898-11.531-3.182v-2.877l-2.416-.603 1.281-2.134-5.346-5.347-2.136 1.281-.602-2.415h-7.562l-.603 2.416-2.136-1.281-5.346 5.347 1.281 2.134-2.415.603v4.147c.692.105 1.364.224 2 .366v-2.951l1.949-.487.535-.203.464-1.142-1.296-2.158 3.139-3.138 2.159 1.296 1.22-.503.611-2.446h4.438l.611 2.446 1.22.503 2.159-1.296 3.139 3.138-1.296 2.158.496 1.22 2.452.612v4.438l-1.949.487-.534.202-.465 1.142 1.296 2.16-2.452 2.452c.79.174 1.63.274 2.519.309l2.451-2.452-1.28-2.135 2.414-.603v-2.681c6.013.392 9.839 1.861 10.777 3.265l-2.373 6.571c-.83 2.299-2.183 4.428-3.911 6.157-3.165 3.164-7.373 4.907-11.847 4.907-12.487 0-22.646-10.159-22.646-22.646 0-4.476 1.743-8.683 4.907-11.847 1.729-1.729 3.857-3.081 6.157-3.911l31.678-11.439 7.102 7.102zm11.469-22.691-10.586-10.586 2.586-2.586 10.586 10.586zm2-6-6.586-6.586 2.988-2.989c3.54.202 6.385 3.046 6.586 6.586z"/><path d="m32.655 15.974h11.622v2h-11.622z" transform="matrix(.941 -.34 .34 .941 -3.478 14.074)"/><path d="m30.024 18.654h2.036v2h-2.036z" transform="matrix(.941 -.34 .34 .941 -4.832 11.72)"/><path d="m45.158 26.941h2v2h-2z" transform="matrix(.339 -.941 .941 .339 4.209 61.874)"/><path d="m43.799 30.703h2v2h-2z" transform="matrix(.339 -.941 .941 .339 -.228 63.082)"/><path d="m42.441 34.465h2v2h-2z" transform="matrix(.339 -.941 .941 .339 -4.664 64.289)"/><path d="m20 58c2.206 0 4-1.794 4-4s-1.794-4-4-4-4 1.794-4 4 1.794 4 4 4zm0-6c1.103 0 2 .897 2 2s-.897 2-2 2-2-.897-2-2 .897-2 2-2z"/><path d="m31 58c1.654 0 3-1.346 3-3s-1.346-3-3-3-3 1.346-3 3 1.346 3 3 3zm0-4c.552 0 1 .449 1 1s-.448 1-1 1-1-.449-1-1 .448-1 1-1z"/><path d="m12 52c1.654 0 3-1.346 3-3s-1.346-3-3-3-3 1.346-3 3 1.346 3 3 3zm0-4c.552 0 1 .449 1 1s-.448 1-1 1-1-.449-1-1 .448-1 1-1z"/></svg>