<svg id="Layer_3" enable-background="new 0 0 64 64" height="512" viewBox="0 0 64 64" width="512" xmlns="http://www.w3.org/2000/svg"><g fill="#f0bc5e"><path d="m26 43 5-9-1-1-9 5 1 4z"/><path d="m42 30c-4.411 0-8-3.589-8-8s3.589-8 8-8 8 3.589 8 8-3.589 8-8 8zm0-11c-1.654 0-3 1.346-3 3s1.346 3 3 3 3-1.346 3-3-1.346-3-3-3z"/><path d="m12.505 42.721c2.056-5.227 4.927-10.082 8.506-14.391l-.263-.263-.458.035c-13.232 1.014-16.122 9.232-16.238 9.582l-.44 1.316h1.388c2.751 0 5.354 1.221 7.198 3.414z"/><path d="m21.283 51.493.367.367c2.129 1.787 3.35 4.39 3.35 7.14v1.388l1.316-.439c.35-.117 8.567-3.005 9.582-16.239l.035-.458-.263-.263c-4.308 3.578-9.162 6.448-14.387 8.504z"/></g><path d="m31.293 21.949-4.896 4.896c-.795.795-1.579 1.636-2.33 2.499l1.51 1.312c.72-.828 1.472-1.635 2.234-2.397l4.896-4.896z"/><path d="m21.611 32.405 1.607 1.19c.494-.667 1.004-1.321 1.53-1.96l-1.545-1.271c-.547.666-1.078 1.346-1.592 2.041z"/><path d="m30.308 40.854 1.186 1.61c.547-.403 1.087-.817 1.618-1.242l-1.25-1.562c-.51.408-1.029.806-1.554 1.194z"/><path d="m33.364 38.405 1.314 1.508c.512-.446 1.016-.904 1.511-1.371l-1.375-1.453c-.473.448-.958.887-1.45 1.316z"/><path d="m36.637 34.707h2v2h-2z" transform="matrix(.707 -.707 .707 .707 -14.225 37.072)"/><path d="m42 18c-2.206 0-4 1.794-4 4s1.794 4 4 4 4-1.794 4-4-1.794-4-4-4zm0 6c-1.103 0-2-.897-2-2s.897-2 2-2 2 .897 2 2-.897 2-2 2z"/><circle cx="56" cy="8" r="1"/><path d="m47.587 32.827c6.079-6.079 10.661-13.625 13.25-21.825l2.037-6.45c.084-.266.126-.542.126-.819 0-1.507-1.226-2.733-2.732-2.733-.279 0-.556.042-.823.127l-6.446 2.036c-8.198 2.589-15.745 7.171-21.825 13.25l-7.604 7.604c-5.513 5.513-9.836 12.299-12.502 19.626l-4.403 3.669c-1.694 1.411-2.665 3.484-2.665 5.688v1h1.347c.085 0 .167-.009.252-.012l-2.184 2.184c-1.558 1.556-2.415 3.626-2.415 5.828v1h1c2.201 0 4.271-.857 5.828-2.414l2.184-2.184c-.003.084-.012.167-.012.251v1.347h1c2.205 0 4.278-.971 5.689-2.665l3.668-4.402c7.327-2.668 14.113-6.99 19.626-12.503zm6.013-27.757 6.446-2.036c.461-.142.953.219.954.699 0 .075-.012.15-.033.221l-2.036 6.446c-.404 1.28-.877 2.535-1.38 3.779-3.566-1.309-6.42-4.163-7.729-7.73 1.243-.503 2.498-.975 3.778-1.379zm-40.44 38.677c.287-.758.598-1.507.921-2.252l8.423 8.424c-.744.323-1.493.634-2.25.92zm1.817-4.185c.661-1.367 1.381-2.705 2.16-4.011l2.96 2.96 1.079 4.313 4.313 1.078 2.96 2.96c-1.306.779-2.645 1.5-4.012 2.161zm-8.874 12.386c.238-1.204.881-2.298 1.843-3.1l4.084-3.404 1.056 1.056-3.917 3.917c-.841.84-1.909 1.37-3.066 1.531zm.311 7.224c-.917.917-2.068 1.513-3.319 1.733.221-1.251.816-2.402 1.733-3.319l5.755-5.755 3.917-3.917 1.586 1.586-3.917 3.917zm8.738-3.117c-.801.962-1.896 1.604-3.101 1.842.161-1.157.69-2.226 1.531-3.066l3.917-3.917 1.056 1.056zm15.047-10.27-3.689-3.688-3.687-.922-.921-3.687-3.689-3.688c1.964-3.018 4.233-5.835 6.769-8.37l7.604-7.604c4.427-4.427 9.665-8.025 15.368-10.596 1.515 4.047 4.768 7.3 8.814 8.814-2.572 5.704-6.17 10.942-10.597 15.368l-7.604 7.604c-2.533 2.536-5.35 4.805-8.368 6.769z"/><path d="m62.319 41.68c-1.174-1.176-3.439-.795-6.548 1.064-1.165-.476-2.437-.744-3.771-.744-5.514 0-10 4.486-10 10 0 1.334.268 2.606.744 3.771-1.858 3.108-2.239 5.373-1.063 6.549.457.457 1.065.685 1.822.685 1.079 0 2.459-.464 4.128-1.392.198-.11.402-.234.604-.355 1.163.475 2.433.742 3.765.742 5.514 0 10-4.486 10-10 0-1.332-.267-2.602-.742-3.766.121-.202.245-.406.355-.604 1.578-2.839 1.816-4.841.706-5.95zm-10.319 2.32c2.996 0 5.609 1.658 6.98 4.102-1.249 1.893-2.954 3.951-4.941 5.937s-4.044 3.692-5.937 4.94c-2.444-1.37-4.102-3.983-4.102-6.979 0-4.411 3.589-8 8-8zm-8.905 16.905c-.132-.132-.27-1.02.791-3.084.636.884 1.41 1.658 2.294 2.294-1.91.977-2.903.973-3.085.79zm16.905-8.905c0 4.411-3.589 8-8 8-.555 0-1.097-.057-1.62-.165 1.663-1.212 3.398-2.705 5.073-4.381 1.676-1.676 3.17-3.411 4.381-5.074.109.523.166 1.065.166 1.62zm-2.179-8.115c2.065-1.061 2.951-.924 3.084-.791.182.182.187 1.173-.79 3.085-.636-.883-1.41-1.658-2.294-2.294z"/><path d="m52 48v-2c-3.309 0-6 2.691-6 6h2c0-2.206 1.794-4 4-4z"/><path d="m2.742 8.234c-.475 1.164-.742 2.434-.742 3.766 0 5.514 4.486 10 10 10 1.332 0 2.602-.267 3.765-.742.202.121.406.245.604.355 1.67.928 3.049 1.392 4.128 1.392.757 0 1.365-.229 1.822-.685 1.176-1.176.795-3.441-1.063-6.549.476-1.165.744-2.437.744-3.771 0-5.514-4.486-10-10-10-1.334 0-2.606.268-3.771.744-3.107-1.857-5.373-2.24-6.548-1.064-1.11 1.109-.872 3.111.706 5.95.11.198.234.402.355.604zm9.258 11.766c-4.411 0-8-3.589-8-8 0-.555.057-1.097.165-1.62 1.212 1.663 2.705 3.398 4.381 5.074s3.41 3.169 5.073 4.381c-.522.108-1.064.165-1.619.165zm8.905.906c-.182.184-1.174.188-3.085-.791.884-.636 1.658-1.41 2.294-2.294 1.061 2.064.924 2.952.791 3.085zm-.905-8.906c0 2.996-1.658 5.609-4.102 6.98-1.893-1.249-3.95-2.954-5.937-4.94s-3.692-4.045-4.941-5.938c1.371-2.444 3.984-4.102 6.98-4.102 4.411 0 8 3.589 8 8zm-16.905-8.906c.133-.132 1.018-.27 3.084.791-.884.636-1.658 1.41-2.294 2.294-.977-1.911-.973-2.903-.79-3.085z"/><path d="m16 12h2c0-3.309-2.691-6-6-6v2c2.206 0 4 1.794 4 4z"/></svg>