<?xml version="1.0" encoding="utf-8"?>
<!-- Generator: Adobe Illustrator 21.1.0, SVG Export Plug-In . SVG Version: 6.00 Build 0)  -->
<svg version="1.1" id="OBJECTS" xmlns="http://www.w3.org/2000/svg" xmlns:xlink="http://www.w3.org/1999/xlink" x="0px" y="0px"
	 viewBox="0 0 410.7 173.3" style="enable-background:new 0 0 410.7 173.3;" xml:space="preserve">
<style type="text/css">
	.st0{fill:#FDFEFF;}
	.st1{fill:none;stroke:#000000;stroke-width:2;stroke-miterlimit:10;}
	.st2{fill:none;stroke:#FEDD16;stroke-width:2;stroke-miterlimit:10;}
	.st3{fill:#FEDD16;}
	.st4{fill:none;}
</style>
<rect x="0" y="0.2" class="st0" width="410.7" height="173.3"/>
<line class="st1" x1="268.1" y1="84.3" x2="450.8" y2="3.6"/>
<line class="st1" x1="326.2" y1="91.1" x2="508.9" y2="10.4"/>
<line class="st1" x1="-142.9" y1="238.3" x2="39.8" y2="157.6"/>
<line class="st1" x1="4.7" y1="18" x2="187.4" y2="-62.7"/>
<line class="st2" x1="301.6" y1="52.3" x2="484.3" y2="-28.4"/>
<line class="st2" x1="143.6" y1="19.7" x2="326.2" y2="-60.9"/>
<line class="st2" x1="96.7" y1="220.1" x2="279.4" y2="139.5"/>
<line class="st2" x1="347.4" y1="65.3" x2="530.1" y2="-15.3"/>
<g>
	<rect x="17.7" y="27.6" class="st3" width="98" height="98"/>
</g>
<g>
	<g>
		<ellipse transform="matrix(0.9187 -0.395 0.395 0.9187 9.2171 77.7279)" class="st3" cx="193.4" cy="16.5" rx="1.7" ry="1.7"/>
		<ellipse transform="matrix(0.9187 -0.395 0.395 0.9187 13.1666 83.3892)" class="st3" cx="209.1" cy="9.7" rx="1.7" ry="1.7"/>
		<ellipse transform="matrix(0.9187 -0.395 0.395 0.9187 17.1163 89.0507)" class="st3" cx="224.8" cy="3" rx="1.7" ry="1.7"/>
		<ellipse transform="matrix(0.9187 -0.395 0.395 0.9187 21.0658 94.712)" class="st3" cx="240.5" cy="-3.8" rx="1.7" ry="1.7"/>
		<ellipse transform="matrix(0.9187 -0.395 0.395 0.9187 25.0154 100.3736)" class="st3" cx="256.3" cy="-10.6" rx="1.7" ry="1.7"/>
		<ellipse transform="matrix(0.9187 -0.395 0.395 0.9187 28.9616 106.0284)" class="st3" cx="272" cy="-17.3" rx="1.7" ry="1.7"/>
		<ellipse transform="matrix(0.9187 -0.395 0.395 0.9187 32.911 111.6897)" class="st3" cx="287.7" cy="-24.1" rx="1.7" ry="1.7"/>
		<ellipse transform="matrix(0.9187 -0.395 0.395 0.9187 36.8601 117.3505)" class="st3" cx="303.4" cy="-30.8" rx="1.7" ry="1.7"/>
		<ellipse transform="matrix(0.9187 -0.395 0.395 0.9187 40.8095 123.0119)" class="st3" cx="319.2" cy="-37.6" rx="1.7" ry="1.7"/>
		<ellipse transform="matrix(0.9187 -0.395 0.395 0.9187 44.7631 128.6804)" class="st3" cx="334.9" cy="-44.4" rx="1.7" ry="1.7"/>
		<ellipse transform="matrix(0.9187 -0.395 0.395 0.9187 48.7129 134.3421)" class="st3" cx="350.6" cy="-51.1" rx="1.7" ry="1.7"/>
		<ellipse transform="matrix(0.9187 -0.395 0.395 0.9187 52.6622 140.0032)" class="st3" cx="366.3" cy="-57.9" rx="1.7" ry="1.7"/>
	</g>
	<g>
		<ellipse transform="matrix(0.9187 -0.395 0.395 0.9187 5.5242 80.3014)" class="st3" cx="197.8" cy="26.7" rx="1.7" ry="1.7"/>
		<ellipse transform="matrix(0.9187 -0.395 0.395 0.9187 9.4719 85.9571)" class="st3" cx="213.5" cy="20" rx="1.7" ry="1.7"/>
		<ellipse transform="matrix(0.9187 -0.395 0.395 0.9187 13.421 91.6182)" class="st3" cx="229.2" cy="13.2" rx="1.7" ry="1.7"/>
		<ellipse transform="matrix(0.9187 -0.395 0.395 0.9187 17.37 97.279)" class="st3" cx="245" cy="6.5" rx="1.7" ry="1.7"/>
		<ellipse transform="matrix(0.9187 -0.395 0.395 0.9187 21.3192 102.9401)" class="st3" cx="260.7" cy="-0.3" rx="1.7" ry="1.7"/>
		<ellipse transform="matrix(0.9187 -0.395 0.395 0.9187 25.2712 108.6075)" class="st3" cx="276.4" cy="-7.1" rx="1.7" ry="1.7"/>
		<ellipse transform="matrix(0.9187 -0.395 0.395 0.9187 29.2207 114.269)" class="st3" cx="292.1" cy="-13.8" rx="1.7" ry="1.7"/>
		<ellipse transform="matrix(0.9187 -0.395 0.395 0.9187 33.17 119.93)" class="st3" cx="307.8" cy="-20.6" rx="1.7" ry="1.7"/>
		<ellipse transform="matrix(0.9187 -0.395 0.395 0.9187 37.1196 125.5915)" class="st3" cx="323.6" cy="-27.4" rx="1.7" ry="1.7"/>
		<ellipse transform="matrix(0.9187 -0.395 0.395 0.9187 41.0688 131.2525)" class="st3" cx="339.3" cy="-34.1" rx="1.7" ry="1.7"/>
		<ellipse transform="matrix(0.9187 -0.395 0.395 0.9187 45.0184 136.9141)" class="st3" cx="355" cy="-40.9" rx="1.7" ry="1.7"/>
		<ellipse transform="matrix(0.9187 -0.395 0.395 0.9187 48.9626 142.5664)" class="st3" cx="370.7" cy="-47.6" rx="1.7" ry="1.7"/>
	</g>
	<g>
		<ellipse transform="matrix(0.9187 -0.395 0.395 0.9187 1.8321 82.8771)" class="st3" cx="202.2" cy="37" rx="1.7" ry="1.7"/>
		<ellipse transform="matrix(0.9187 -0.395 0.395 0.9187 5.7815 88.5384)" class="st3" cx="217.9" cy="30.2" rx="1.7" ry="1.7"/>
		<ellipse transform="matrix(0.9187 -0.395 0.395 0.9187 9.731 94.1996)" class="st3" cx="233.6" cy="23.5" rx="1.7" ry="1.7"/>
		<ellipse transform="matrix(0.9187 -0.395 0.395 0.9187 13.6804 99.8609)" class="st3" cx="249.4" cy="16.7" rx="1.7" ry="1.7"/>
		<ellipse transform="matrix(0.9187 -0.395 0.395 0.9187 17.6298 105.5222)" class="st3" cx="265.1" cy="9.9" rx="1.7" ry="1.7"/>
		<ellipse transform="matrix(0.9187 -0.395 0.395 0.9187 21.5792 111.1834)" class="st3" cx="280.8" cy="3.2" rx="1.7" ry="1.7"/>
		<ellipse transform="matrix(0.9187 -0.395 0.395 0.9187 25.5254 116.8375)" class="st3" cx="296.5" cy="-3.6" rx="1.7" ry="1.7"/>
		<ellipse transform="matrix(0.9187 -0.395 0.395 0.9187 29.4745 122.4985)" class="st3" cx="312.3" cy="-10.3" rx="1.7" ry="1.7"/>
		<ellipse transform="matrix(0.9187 -0.395 0.395 0.9187 33.4236 128.1594)" class="st3" cx="328" cy="-17.1" rx="1.7" ry="1.7"/>
		<ellipse transform="matrix(0.9187 -0.395 0.395 0.9187 37.3727 133.8204)" class="st3" cx="343.7" cy="-23.9" rx="1.7" ry="1.7"/>
		<ellipse transform="matrix(0.9187 -0.395 0.395 0.9187 41.3218 139.4814)" class="st3" cx="359.4" cy="-30.6" rx="1.7" ry="1.7"/>
		<ellipse transform="matrix(0.9187 -0.395 0.395 0.9187 45.2757 145.151)" class="st3" cx="375.1" cy="-37.4" rx="1.7" ry="1.7"/>
	</g>
	<g>
		<ellipse transform="matrix(0.9187 -0.395 0.395 0.9187 -1.86 85.4528)" class="st3" cx="206.6" cy="47.2" rx="1.7" ry="1.7"/>
		<ellipse transform="matrix(0.9187 -0.395 0.395 0.9187 2.0894 91.1141)" class="st3" cx="222.3" cy="40.5" rx="1.7" ry="1.7"/>
		<ellipse transform="matrix(0.9187 -0.395 0.395 0.9187 6.0372 96.7692)" class="st3" cx="238" cy="33.7" rx="1.7" ry="1.7"/>
		<ellipse transform="matrix(0.9187 -0.395 0.395 0.9187 9.9862 102.4302)" class="st3" cx="253.8" cy="27" rx="1.7" ry="1.7"/>
		<ellipse transform="matrix(0.9187 -0.395 0.395 0.9187 13.9353 108.0911)" class="st3" cx="269.5" cy="20.2" rx="1.7" ry="1.7"/>
		<ellipse transform="matrix(0.9187 -0.395 0.395 0.9187 17.8844 113.7521)" class="st3" cx="285.2" cy="13.4" rx="1.7" ry="1.7"/>
		<ellipse transform="matrix(0.9187 -0.395 0.395 0.9187 21.8365 119.4204)" class="st3" cx="300.9" cy="6.7" rx="1.7" ry="1.7"/>
		<ellipse transform="matrix(0.9187 -0.395 0.395 0.9187 25.7859 125.0817)" class="st3" cx="316.7" cy="-0.1" rx="1.7" ry="1.7"/>
		<ellipse transform="matrix(0.9187 -0.395 0.395 0.9187 29.7353 130.7429)" class="st3" cx="332.4" cy="-6.8" rx="1.7" ry="1.7"/>
		<ellipse transform="matrix(0.9187 -0.395 0.395 0.9187 33.6847 136.4042)" class="st3" cx="348.1" cy="-13.6" rx="1.7" ry="1.7"/>
		<ellipse transform="matrix(0.9187 -0.395 0.395 0.9187 37.6342 142.0655)" class="st3" cx="363.8" cy="-20.4" rx="1.7" ry="1.7"/>
		<ellipse transform="matrix(0.9187 -0.395 0.395 0.9187 41.5836 147.7267)" class="st3" cx="379.6" cy="-27.1" rx="1.7" ry="1.7"/>
	</g>
	<g>
		<ellipse transform="matrix(0.9187 -0.395 0.395 0.9187 -5.5526 88.0253)" class="st3" cx="211" cy="57.5" rx="1.7" ry="1.7"/>
		<ellipse transform="matrix(0.9187 -0.395 0.395 0.9187 -1.6034 93.6863)" class="st3" cx="226.7" cy="50.7" rx="1.7" ry="1.7"/>
		<ellipse transform="matrix(0.9187 -0.395 0.395 0.9187 2.3473 99.3538)" class="st3" cx="242.5" cy="44" rx="1.7" ry="1.7"/>
		<ellipse transform="matrix(0.9187 -0.395 0.395 0.9187 6.2969 105.0152)" class="st3" cx="258.2" cy="37.2" rx="1.7" ry="1.7"/>
		<ellipse transform="matrix(0.9187 -0.395 0.395 0.9187 10.2464 110.6766)" class="st3" cx="273.9" cy="30.5" rx="1.7" ry="1.7"/>
		<ellipse transform="matrix(0.9187 -0.395 0.395 0.9187 14.196 116.338)" class="st3" cx="289.6" cy="23.7" rx="1.7" ry="1.7"/>
		<ellipse transform="matrix(0.9187 -0.395 0.395 0.9187 18.1456 121.9994)" class="st3" cx="305.3" cy="16.9" rx="1.7" ry="1.7"/>
		<ellipse transform="matrix(0.9187 -0.395 0.395 0.9187 22.0951 127.6608)" class="st3" cx="321.1" cy="10.2" rx="1.7" ry="1.7"/>
		<ellipse transform="matrix(0.9187 -0.395 0.395 0.9187 26.0412 133.314)" class="st3" cx="336.8" cy="3.4" rx="1.7" ry="1.7"/>
		<ellipse transform="matrix(0.9187 -0.395 0.395 0.9187 29.9905 138.9751)" class="st3" cx="352.5" cy="-3.3" rx="1.7" ry="1.7"/>
		<ellipse transform="matrix(0.9187 -0.395 0.395 0.9187 33.9397 144.6361)" class="st3" cx="368.2" cy="-10.1" rx="1.7" ry="1.7"/>
		<ellipse transform="matrix(0.9187 -0.395 0.395 0.9187 37.8889 150.2972)" class="st3" cx="384" cy="-16.9" rx="1.7" ry="1.7"/>
	</g>
	<g>
		<ellipse transform="matrix(0.9187 -0.395 0.395 0.9187 -9.2443 90.6042)" class="st3" cx="215.4" cy="67.8" rx="1.7" ry="1.7"/>
		<ellipse transform="matrix(0.9187 -0.395 0.395 0.9187 -5.2949 96.2655)" class="st3" cx="231.1" cy="61" rx="1.7" ry="1.7"/>
		<ellipse transform="matrix(0.9187 -0.395 0.395 0.9187 -1.3454 101.9268)" class="st3" cx="246.9" cy="54.2" rx="1.7" ry="1.7"/>
		<ellipse transform="matrix(0.9187 -0.395 0.395 0.9187 2.6024 107.5811)" class="st3" cx="262.6" cy="47.5" rx="1.7" ry="1.7"/>
		<ellipse transform="matrix(0.9187 -0.395 0.395 0.9187 6.5515 113.2421)" class="st3" cx="278.3" cy="40.7" rx="1.7" ry="1.7"/>
		<ellipse transform="matrix(0.9187 -0.395 0.395 0.9187 10.5006 118.9031)" class="st3" cx="294" cy="33.9" rx="1.7" ry="1.7"/>
		<ellipse transform="matrix(0.9187 -0.395 0.395 0.9187 14.4496 124.564)" class="st3" cx="309.8" cy="27.2" rx="1.7" ry="1.7"/>
		<ellipse transform="matrix(0.9187 -0.395 0.395 0.9187 18.3987 130.225)" class="st3" cx="325.5" cy="20.4" rx="1.7" ry="1.7"/>
		<ellipse transform="matrix(0.9187 -0.395 0.395 0.9187 22.3511 135.8944)" class="st3" cx="341.2" cy="13.7" rx="1.7" ry="1.7"/>
		<ellipse transform="matrix(0.9187 -0.395 0.395 0.9187 26.3005 141.5556)" class="st3" cx="356.9" cy="6.9" rx="1.7" ry="1.7"/>
		<ellipse transform="matrix(0.9187 -0.395 0.395 0.9187 30.2499 147.2169)" class="st3" cx="372.7" cy="0.1" rx="1.7" ry="1.7"/>
		<ellipse transform="matrix(0.9187 -0.395 0.395 0.9187 34.1993 152.8782)" class="st3" cx="388.4" cy="-6.6" rx="1.7" ry="1.7"/>
	</g>
</g>
<g>
	<g>
		<g>
			<ellipse transform="matrix(0.9187 -0.395 0.395 0.9187 -57.9702 53.303)" cx="100.5" cy="167.4" rx="1.1" ry="1.1"/>
			<ellipse transform="matrix(0.9187 -0.395 0.395 0.9187 -55.3647 57.0379)" cx="110.8" cy="163" rx="1.1" ry="1.1"/>
			<ellipse transform="matrix(0.9187 -0.395 0.395 0.9187 -52.7591 60.7728)" cx="121.2" cy="158.5" rx="1.1" ry="1.1"/>
			<ellipse transform="matrix(0.9187 -0.395 0.395 0.9187 -50.1535 64.5076)" cx="131.6" cy="154.1" rx="1.1" ry="1.1"/>
			<ellipse transform="matrix(0.9187 -0.395 0.395 0.9187 -47.5466 68.2394)" cx="142" cy="149.6" rx="1.1" ry="1.1"/>
			<ellipse transform="matrix(0.9187 -0.395 0.395 0.9187 -44.9424 71.9773)" cx="152.3" cy="145.1" rx="1.1" ry="1.1"/>
			<ellipse transform="matrix(0.9187 -0.395 0.395 0.9187 -42.3369 75.7122)" cx="162.7" cy="140.7" rx="1.1" ry="1.1"/>
			<ellipse transform="matrix(0.9187 -0.395 0.395 0.9187 -39.7312 79.4469)" cx="173.1" cy="136.2" rx="1.1" ry="1.1"/>
			<ellipse transform="matrix(0.9187 -0.395 0.395 0.9187 -37.1257 83.1819)" cx="183.4" cy="131.7" rx="1.1" ry="1.1"/>
			<ellipse transform="matrix(0.9187 -0.395 0.395 0.9187 -34.5195 86.9128)" cx="193.8" cy="127.3" rx="1.1" ry="1.1"/>
			<ellipse transform="matrix(0.9187 -0.395 0.395 0.9187 -31.9146 90.6516)" cx="204.2" cy="122.8" rx="1.1" ry="1.1"/>
			<ellipse transform="matrix(0.9187 -0.395 0.395 0.9187 -29.309 94.3865)" cx="214.6" cy="118.4" rx="1.1" ry="1.1"/>
		</g>
		<g>
			<ellipse transform="matrix(0.9187 -0.395 0.395 0.9187 -60.4012 54.9958)" cx="103.4" cy="174.2" rx="1.1" ry="1.1"/>
			<ellipse transform="matrix(0.9187 -0.395 0.395 0.9187 -57.796 58.7303)" cx="113.7" cy="169.7" rx="1.1" ry="1.1"/>
			<ellipse transform="matrix(0.9187 -0.395 0.395 0.9187 -55.189 62.4618)" cx="124.1" cy="165.3" rx="1.1" ry="1.1"/>
			<ellipse transform="matrix(0.9187 -0.395 0.395 0.9187 -52.5856 66.1995)" cx="134.5" cy="160.8" rx="1.1" ry="1.1"/>
			<ellipse transform="matrix(0.9187 -0.395 0.395 0.9187 -49.9803 69.9339)" cx="144.9" cy="156.4" rx="1.1" ry="1.1"/>
			<ellipse transform="matrix(0.9187 -0.395 0.395 0.9187 -47.3751 73.6685)" cx="155.2" cy="151.9" rx="1.1" ry="1.1"/>
			<ellipse transform="matrix(0.9187 -0.395 0.395 0.9187 -44.7698 77.4029)" cx="165.6" cy="147.4" rx="1.1" ry="1.1"/>
			<ellipse transform="matrix(0.9187 -0.395 0.395 0.9187 -42.1635 81.1338)" cx="176" cy="143" rx="1.1" ry="1.1"/>
			<ellipse transform="matrix(0.9187 -0.395 0.395 0.9187 -39.5594 84.8721)" cx="186.4" cy="138.5" rx="1.1" ry="1.1"/>
			<ellipse transform="matrix(0.9187 -0.395 0.395 0.9187 -36.9541 88.6067)" cx="196.7" cy="134.1" rx="1.1" ry="1.1"/>
			<ellipse transform="matrix(0.9187 -0.395 0.395 0.9187 -34.3489 92.3412)" cx="207.1" cy="129.6" rx="1.1" ry="1.1"/>
			<ellipse transform="matrix(0.9187 -0.395 0.395 0.9187 -31.7437 96.0758)" cx="217.5" cy="125.1" rx="1.1" ry="1.1"/>
		</g>
		<g>
			<ellipse transform="matrix(0.9187 -0.395 0.395 0.9187 -62.8396 56.6987)" cx="106.3" cy="181" rx="1.1" ry="1.1"/>
			<ellipse transform="matrix(0.9187 -0.395 0.395 0.9187 -60.2362 60.4365)" cx="116.7" cy="176.5" rx="1.1" ry="1.1"/>
			<ellipse transform="matrix(0.9187 -0.395 0.395 0.9187 -57.6307 64.1714)" cx="127" cy="172" rx="1.1" ry="1.1"/>
			<ellipse transform="matrix(0.9187 -0.395 0.395 0.9187 -55.0251 67.9062)" cx="137.4" cy="167.6" rx="1.1" ry="1.1"/>
			<ellipse transform="matrix(0.9187 -0.395 0.395 0.9187 -52.4195 71.641)" cx="147.8" cy="163.1" rx="1.1" ry="1.1"/>
			<ellipse transform="matrix(0.9187 -0.395 0.395 0.9187 -49.8125 75.3721)" cx="158.1" cy="158.7" rx="1.1" ry="1.1"/>
			<ellipse transform="matrix(0.9187 -0.395 0.395 0.9187 -47.2084 79.1108)" cx="168.5" cy="154.2" rx="1.1" ry="1.1"/>
			<ellipse transform="matrix(0.9187 -0.395 0.395 0.9187 -44.6028 82.8456)" cx="178.9" cy="149.7" rx="1.1" ry="1.1"/>
			<ellipse transform="matrix(0.9187 -0.395 0.395 0.9187 -41.9973 86.5805)" cx="189.3" cy="145.3" rx="1.1" ry="1.1"/>
			<ellipse transform="matrix(0.9187 -0.395 0.395 0.9187 -39.3917 90.3154)" cx="199.6" cy="140.8" rx="1.1" ry="1.1"/>
			<ellipse transform="matrix(0.9187 -0.395 0.395 0.9187 -36.7862 94.0502)" cx="210" cy="136.4" rx="1.1" ry="1.1"/>
			<ellipse transform="matrix(0.9187 -0.395 0.395 0.9187 -34.18 97.781)" cx="220.4" cy="131.9" rx="1.1" ry="1.1"/>
		</g>
		<g>
			<ellipse transform="matrix(0.9187 -0.395 0.395 0.9187 -65.2724 58.3939)" cx="109.2" cy="187.7" rx="1.1" ry="1.1"/>
			<ellipse transform="matrix(0.9187 -0.395 0.395 0.9187 -62.6672 62.1286)" cx="119.6" cy="183.3" rx="1.1" ry="1.1"/>
			<ellipse transform="matrix(0.9187 -0.395 0.395 0.9187 -60.0619 65.863)" cx="129.9" cy="178.8" rx="1.1" ry="1.1"/>
			<ellipse transform="matrix(0.9187 -0.395 0.395 0.9187 -57.4549 69.5941)" cx="140.3" cy="174.3" rx="1.1" ry="1.1"/>
			<ellipse transform="matrix(0.9187 -0.395 0.395 0.9187 -54.8514 73.3321)" cx="150.7" cy="169.9" rx="1.1" ry="1.1"/>
			<ellipse transform="matrix(0.9187 -0.395 0.395 0.9187 -52.2462 77.0666)" cx="161" cy="165.4" rx="1.1" ry="1.1"/>
			<ellipse transform="matrix(0.9187 -0.395 0.395 0.9187 -49.641 80.8012)" cx="171.4" cy="161" rx="1.1" ry="1.1"/>
			<ellipse transform="matrix(0.9187 -0.395 0.395 0.9187 -47.0357 84.5357)" cx="181.8" cy="156.5" rx="1.1" ry="1.1"/>
			<ellipse transform="matrix(0.9187 -0.395 0.395 0.9187 -44.4294 88.2662)" cx="192.2" cy="152" rx="1.1" ry="1.1"/>
			<ellipse transform="matrix(0.9187 -0.395 0.395 0.9187 -41.8243 92.0006)" cx="202.5" cy="147.6" rx="1.1" ry="1.1"/>
			<ellipse transform="matrix(0.9187 -0.395 0.395 0.9187 -39.2201 95.7397)" cx="212.9" cy="143.1" rx="1.1" ry="1.1"/>
			<ellipse transform="matrix(0.9187 -0.395 0.395 0.9187 -36.6148 99.4739)" cx="223.3" cy="138.7" rx="1.1" ry="1.1"/>
		</g>
		<g>
			<ellipse transform="matrix(0.9187 -0.395 0.395 0.9187 -67.708 60.0931)" cx="112.1" cy="194.5" rx="1.1" ry="1.1"/>
			<ellipse transform="matrix(0.9187 -0.395 0.395 0.9187 -65.1005 63.8243)" cx="122.5" cy="190" rx="1.1" ry="1.1"/>
			<ellipse transform="matrix(0.9187 -0.395 0.395 0.9187 -62.4975 67.562)" cx="132.8" cy="185.6" rx="1.1" ry="1.1"/>
			<ellipse transform="matrix(0.9187 -0.395 0.395 0.9187 -59.8923 71.2966)" cx="143.2" cy="181.1" rx="1.1" ry="1.1"/>
			<ellipse transform="matrix(0.9187 -0.395 0.395 0.9187 -57.287 75.0311)" cx="153.6" cy="176.6" rx="1.1" ry="1.1"/>
			<ellipse transform="matrix(0.9187 -0.395 0.395 0.9187 -54.6818 78.7657)" cx="164" cy="172.2" rx="1.1" ry="1.1"/>
			<ellipse transform="matrix(0.9187 -0.395 0.395 0.9187 -52.0785 82.5054)" cx="174.3" cy="167.7" rx="1.1" ry="1.1"/>
			<ellipse transform="matrix(0.9187 -0.395 0.395 0.9187 -49.4731 86.2402)" cx="184.7" cy="163.3" rx="1.1" ry="1.1"/>
			<ellipse transform="matrix(0.9187 -0.395 0.395 0.9187 -46.8688 89.979)" cx="195.1" cy="158.8" rx="1.1" ry="1.1"/>
			<ellipse transform="matrix(0.9187 -0.395 0.395 0.9187 -44.2633 93.7142)" cx="205.4" cy="154.3" rx="1.1" ry="1.1"/>
			<ellipse transform="matrix(0.9187 -0.395 0.395 0.9187 -41.6577 97.4488)" cx="215.8" cy="149.9" rx="1.1" ry="1.1"/>
			<ellipse transform="matrix(0.9187 -0.395 0.395 0.9187 -39.0522 101.1836)" cx="226.2" cy="145.4" rx="1.1" ry="1.1"/>
		</g>
		<g>
			<ellipse transform="matrix(0.9187 -0.395 0.395 0.9187 -70.1491 61.7994)" cx="115" cy="201.3" rx="1.1" ry="1.1"/>
			<ellipse transform="matrix(0.9187 -0.395 0.395 0.9187 -67.5436 65.5343)" cx="125.4" cy="196.8" rx="1.1" ry="1.1"/>
			<ellipse transform="matrix(0.9187 -0.395 0.395 0.9187 -64.938 69.2692)" cx="135.7" cy="192.3" rx="1.1" ry="1.1"/>
			<ellipse transform="matrix(0.9187 -0.395 0.395 0.9187 -62.3324 73.004)" cx="146.1" cy="187.9" rx="1.1" ry="1.1"/>
			<ellipse transform="matrix(0.9187 -0.395 0.395 0.9187 -59.725 76.7352)" cx="156.5" cy="183.4" rx="1.1" ry="1.1"/>
			<ellipse transform="matrix(0.9187 -0.395 0.395 0.9187 -57.1196 80.4699)" cx="166.9" cy="179" rx="1.1" ry="1.1"/>
			<ellipse transform="matrix(0.9187 -0.395 0.395 0.9187 -54.5157 84.2084)" cx="177.2" cy="174.5" rx="1.1" ry="1.1"/>
			<ellipse transform="matrix(0.9187 -0.395 0.395 0.9187 -51.9102 87.9435)" cx="187.6" cy="170" rx="1.1" ry="1.1"/>
			<ellipse transform="matrix(0.9187 -0.395 0.395 0.9187 -49.3047 91.6786)" cx="198" cy="165.6" rx="1.1" ry="1.1"/>
			<ellipse transform="matrix(0.9187 -0.395 0.395 0.9187 -46.6991 95.4132)" cx="208.4" cy="161.1" rx="1.1" ry="1.1"/>
			<ellipse transform="matrix(0.9187 -0.395 0.395 0.9187 -44.0925 99.1435)" cx="218.7" cy="156.7" rx="1.1" ry="1.1"/>
			<ellipse transform="matrix(0.9187 -0.395 0.395 0.9187 -41.4879 102.8829)" cx="229.1" cy="152.2" rx="1.1" ry="1.1"/>
		</g>
	</g>
</g>
<g>
	<g>
		<g>
			<ellipse transform="matrix(0.9187 -0.3951 0.3951 0.9187 6.0087 151.567)" cx="371.1" cy="61.2" rx="0.9" ry="0.9"/>
			<ellipse transform="matrix(0.9187 -0.395 0.395 0.9187 7.9638 154.3517)" cx="378.9" cy="57.8" rx="0.9" ry="0.9"/>
			<ellipse transform="matrix(0.9187 -0.395 0.395 0.9187 9.9255 157.1633)" cx="386.7" cy="54.5" rx="0.9" ry="0.9"/>
			<ellipse transform="matrix(0.9187 -0.3951 0.3951 0.9187 11.896 160.0059)" cx="394.5" cy="51.1" rx="0.9" ry="0.9"/>
			<ellipse transform="matrix(0.9187 -0.395 0.395 0.9187 13.8559 162.81)" cx="402.3" cy="47.8" rx="0.9" ry="0.9"/>
			<ellipse transform="matrix(0.9187 -0.395 0.395 0.9187 15.8145 165.6109)" cx="410.1" cy="44.4" rx="0.9" ry="0.9"/>
			<ellipse transform="matrix(0.9187 -0.395 0.395 0.9187 17.7737 168.4144)" cx="417.9" cy="41" rx="0.9" ry="0.9"/>
			<ellipse transform="matrix(0.9187 -0.395 0.395 0.9187 19.7428 171.2485)" cx="425.7" cy="37.7" rx="0.9" ry="0.9"/>
			<ellipse transform="matrix(0.9187 -0.3951 0.3951 0.9187 21.7083 174.0708)" cx="433.6" cy="34.3" rx="0.9" ry="0.9"/>
			<ellipse transform="matrix(0.9187 -0.395 0.395 0.9187 23.6593 176.8508)" cx="441.4" cy="31" rx="0.9" ry="0.9"/>
			<ellipse transform="matrix(0.9187 -0.395 0.395 0.9187 25.6302 179.6882)" cx="449.2" cy="27.6" rx="0.9" ry="0.9"/>
			<ellipse transform="matrix(0.9187 -0.3951 0.3951 0.9187 27.5957 182.5097)" cx="457" cy="24.2" rx="0.9" ry="0.9"/>
		</g>
		<g>
			<ellipse transform="matrix(0.9187 -0.3951 0.3951 0.9187 4.1741 152.8469)" cx="373.3" cy="66.3" rx="0.9" ry="0.9"/>
			<ellipse transform="matrix(0.9187 -0.395 0.395 0.9187 6.1345 155.6512)" cx="381.1" cy="62.9" rx="0.9" ry="0.9"/>
			<ellipse transform="matrix(0.9187 -0.395 0.395 0.9187 8.0915 158.4438)" cx="388.9" cy="59.6" rx="0.9" ry="0.9"/>
			<ellipse transform="matrix(0.9187 -0.395 0.395 0.9187 10.0559 161.2652)" cx="396.7" cy="56.2" rx="0.9" ry="0.9"/>
			<ellipse transform="matrix(0.9187 -0.395 0.395 0.9187 12.0211 164.0887)" cx="404.5" cy="52.9" rx="0.9" ry="0.9"/>
			<ellipse transform="matrix(0.9187 -0.395 0.395 0.9187 13.984 166.9036)" cx="412.3" cy="49.5" rx="0.9" ry="0.9"/>
			<ellipse transform="matrix(0.9187 -0.395 0.395 0.9187 15.9395 169.6939)" cx="420.1" cy="46.1" rx="0.9" ry="0.9"/>
			<ellipse transform="matrix(0.9187 -0.395 0.395 0.9187 17.9015 172.5064)" cx="427.9" cy="42.8" rx="0.9" ry="0.9"/>
			<ellipse transform="matrix(0.9187 -0.3951 0.3951 0.9187 19.8738 175.3506)" cx="435.8" cy="39.4" rx="0.9" ry="0.9"/>
			<ellipse transform="matrix(0.9187 -0.395 0.395 0.9187 21.833 178.1539)" cx="443.6" cy="36.1" rx="0.9" ry="0.9"/>
			<ellipse transform="matrix(0.9187 -0.395 0.395 0.9187 23.7874 180.944)" cx="451.4" cy="32.7" rx="0.9" ry="0.9"/>
			<ellipse transform="matrix(0.9187 -0.3951 0.3951 0.9187 25.7612 183.7895)" cx="459.2" cy="29.3" rx="0.9" ry="0.9"/>
		</g>
		<g>
			<ellipse transform="matrix(0.9187 -0.395 0.395 0.9187 2.3352 154.1069)" cx="375.4" cy="71.4" rx="0.9" ry="0.9"/>
			<ellipse transform="matrix(0.9187 -0.395 0.395 0.9187 4.3 156.931)" cx="383.3" cy="68" rx="0.9" ry="0.9"/>
			<ellipse transform="matrix(0.9187 -0.395 0.395 0.9187 6.2623 159.7439)" cx="391.1" cy="64.7" rx="0.9" ry="0.9"/>
			<ellipse transform="matrix(0.9187 -0.395 0.395 0.9187 8.2215 162.5448)" cx="398.9" cy="61.3" rx="0.9" ry="0.9"/>
			<ellipse transform="matrix(0.9187 -0.395 0.395 0.9187 10.1812 165.3484)" cx="406.7" cy="57.9" rx="0.9" ry="0.9"/>
			<ellipse transform="matrix(0.9187 -0.395 0.395 0.9187 12.1493 168.1824)" cx="414.5" cy="54.6" rx="0.9" ry="0.9"/>
			<ellipse transform="matrix(0.9187 -0.395 0.395 0.9187 14.1113 170.9941)" cx="422.3" cy="51.2" rx="0.9" ry="0.9"/>
			<ellipse transform="matrix(0.9187 -0.395 0.395 0.9187 16.0675 173.7871)" cx="430.1" cy="47.9" rx="0.9" ry="0.9"/>
			<ellipse transform="matrix(0.9187 -0.395 0.395 0.9187 18.0322 176.6081)" cx="437.9" cy="44.5" rx="0.9" ry="0.9"/>
			<ellipse transform="matrix(0.9187 -0.395 0.395 0.9187 19.9985 179.4337)" cx="445.8" cy="41.2" rx="0.9" ry="0.9"/>
			<ellipse transform="matrix(0.9187 -0.395 0.395 0.9187 21.9608 182.2466)" cx="453.6" cy="37.8" rx="0.9" ry="0.9"/>
			<ellipse transform="matrix(0.9187 -0.395 0.395 0.9187 23.9186 185.0461)" cx="461.4" cy="34.4" rx="0.9" ry="0.9"/>
		</g>
		<g>
			<ellipse transform="matrix(0.9187 -0.3951 0.3951 0.9187 0.505 155.4066)" cx="377.6" cy="76.5" rx="0.9" ry="0.9"/>
			<ellipse transform="matrix(0.9187 -0.395 0.395 0.9187 2.4608 158.1895)" cx="385.4" cy="73.1" rx="0.9" ry="0.9"/>
			<ellipse transform="matrix(0.9187 -0.395 0.395 0.9187 4.4281 161.0246)" cx="393.3" cy="69.8" rx="0.9" ry="0.9"/>
			<ellipse transform="matrix(0.9187 -0.3951 0.3951 0.9187 6.3924 163.8455)" cx="401.1" cy="66.4" rx="0.9" ry="0.9"/>
			<ellipse transform="matrix(0.9187 -0.395 0.395 0.9187 8.347 166.628)" cx="408.9" cy="63" rx="0.9" ry="0.9"/>
			<ellipse transform="matrix(0.9187 -0.395 0.395 0.9187 10.309 169.4405)" cx="416.7" cy="59.7" rx="0.9" ry="0.9"/>
			<ellipse transform="matrix(0.9187 -0.395 0.395 0.9187 12.2771 172.275)" cx="424.5" cy="56.3" rx="0.9" ry="0.9"/>
			<ellipse transform="matrix(0.9187 -0.395 0.395 0.9187 14.2394 175.0878)" cx="432.3" cy="53" rx="0.9" ry="0.9"/>
			<ellipse transform="matrix(0.9187 -0.395 0.395 0.9187 16.1979 177.8878)" cx="440.1" cy="49.6" rx="0.9" ry="0.9"/>
			<ellipse transform="matrix(0.9187 -0.395 0.395 0.9187 18.1573 180.6918)" cx="447.9" cy="46.2" rx="0.9" ry="0.9"/>
			<ellipse transform="matrix(0.9187 -0.395 0.395 0.9187 20.1264 183.5263)" cx="455.8" cy="42.9" rx="0.9" ry="0.9"/>
			<ellipse transform="matrix(0.9187 -0.3951 0.3951 0.9187 22.0921 186.3493)" cx="463.6" cy="39.5" rx="0.9" ry="0.9"/>
		</g>
		<g>
			<ellipse transform="matrix(0.9187 -0.3951 0.3951 0.9187 -1.3295 156.6865)" cx="379.8" cy="81.6" rx="0.9" ry="0.9"/>
			<ellipse transform="matrix(0.9187 -0.395 0.395 0.9187 0.6311 159.4906)" cx="387.6" cy="78.2" rx="0.9" ry="0.9"/>
			<ellipse transform="matrix(0.9187 -0.395 0.395 0.9187 2.5887 162.2825)" cx="395.5" cy="74.9" rx="0.9" ry="0.9"/>
			<ellipse transform="matrix(0.9187 -0.3951 0.3951 0.9187 4.5579 165.1254)" cx="403.3" cy="71.5" rx="0.9" ry="0.9"/>
			<ellipse transform="matrix(0.9187 -0.395 0.395 0.9187 6.5183 167.9301)" cx="411.1" cy="68.1" rx="0.9" ry="0.9"/>
			<ellipse transform="matrix(0.9187 -0.395 0.395 0.9187 8.4747 170.7201)" cx="418.9" cy="64.8" rx="0.9" ry="0.9"/>
			<ellipse transform="matrix(0.9187 -0.395 0.395 0.9187 10.4367 173.5326)" cx="426.7" cy="61.4" rx="0.9" ry="0.9"/>
			<ellipse transform="matrix(0.9187 -0.395 0.395 0.9187 12.405 176.3676)" cx="434.5" cy="58.1" rx="0.9" ry="0.9"/>
			<ellipse transform="matrix(0.9187 -0.3951 0.3951 0.9187 14.3702 179.1902)" cx="442.3" cy="54.7" rx="0.9" ry="0.9"/>
			<ellipse transform="matrix(0.9187 -0.395 0.395 0.9187 16.3227 181.9702)" cx="450.1" cy="51.3" rx="0.9" ry="0.9"/>
			<ellipse transform="matrix(0.9187 -0.395 0.395 0.9187 18.2847 184.7827)" cx="457.9" cy="48" rx="0.9" ry="0.9"/>
			<ellipse transform="matrix(0.9187 -0.3951 0.3951 0.9187 20.2575 187.6291)" cx="465.8" cy="44.6" rx="0.9" ry="0.9"/>
		</g>
		<g>
			<ellipse transform="matrix(0.9187 -0.395 0.395 0.9187 -3.1679 157.9458)" cx="382" cy="86.7" rx="0.9" ry="0.9"/>
			<ellipse transform="matrix(0.9187 -0.395 0.395 0.9187 -1.2034 160.7703)" cx="389.8" cy="83.3" rx="0.9" ry="0.9"/>
			<ellipse transform="matrix(0.9187 -0.395 0.395 0.9187 0.7589 163.5832)" cx="397.6" cy="79.9" rx="0.9" ry="0.9"/>
			<ellipse transform="matrix(0.9187 -0.395 0.395 0.9187 2.7185 166.3838)" cx="405.5" cy="76.6" rx="0.9" ry="0.9"/>
			<ellipse transform="matrix(0.9187 -0.395 0.395 0.9187 4.6836 169.2088)" cx="413.3" cy="73.2" rx="0.9" ry="0.9"/>
			<ellipse transform="matrix(0.9187 -0.395 0.395 0.9187 6.6459 172.0217)" cx="421.1" cy="69.9" rx="0.9" ry="0.9"/>
			<ellipse transform="matrix(0.9187 -0.395 0.395 0.9187 8.6027 174.8133)" cx="428.9" cy="66.5" rx="0.9" ry="0.9"/>
			<ellipse transform="matrix(0.9187 -0.395 0.395 0.9187 10.5644 177.6247)" cx="436.7" cy="63.2" rx="0.9" ry="0.9"/>
			<ellipse transform="matrix(0.9187 -0.3951 0.3951 0.9187 12.5356 180.4701)" cx="444.5" cy="59.8" rx="0.9" ry="0.9"/>
			<ellipse transform="matrix(0.9187 -0.395 0.395 0.9187 14.4952 183.273)" cx="452.3" cy="56.4" rx="0.9" ry="0.9"/>
			<ellipse transform="matrix(0.9187 -0.395 0.395 0.9187 16.4504 186.0622)" cx="460.1" cy="53.1" rx="0.9" ry="0.9"/>
			<ellipse transform="matrix(0.9187 -0.395 0.395 0.9187 18.4156 188.8851)" cx="468" cy="49.7" rx="0.9" ry="0.9"/>
		</g>
	</g>
</g>
<rect class="st4" width="410.7" height="173.3"/>
</svg>
