<svg xmlns="http://www.w3.org/2000/svg" viewBox="0 0 91.38 176.74"><defs><style>.cls-1,.cls-2{fill:#42ffff;}.cls-1{opacity:0.5;}</style></defs><title>Asset 1</title><g id="Layer_2" data-name="Layer 2"><g id="Ñëîé_1" data-name="Ñëîé 1"><polygon class="cls-1" points="12.76 10.17 0 2.8 0 0 12.76 7.37 12.76 10.17"/><polygon class="cls-1" points="19.3 13.95 14.71 11.29 14.71 8.49 19.3 11.14 19.3 13.95"/><polygon class="cls-1" points="24.37 16.87 21.25 15.07 21.25 12.27 24.37 14.07 24.37 16.87"/><polygon class="cls-1" points="6.95 13.22 0 9.2 0 6.4 6.95 10.41 6.95 13.22"/><polygon class="cls-1" points="17.42 19.26 8.9 14.34 8.9 11.54 17.42 16.46 17.42 19.26"/><polygon class="cls-1" points="22.49 22.19 19.37 20.39 19.37 17.58 22.49 19.39 22.49 22.19"/><polygon class="cls-1" points="27.32 24.98 24.2 23.17 24.2 20.37 27.32 22.17 27.32 24.98"/><polygon class="cls-2" points="5.03 18.51 0 15.6 0 12.8 5.03 15.71 5.03 18.51"/><polygon class="cls-2" points="8.7 20.63 6.98 19.63 6.98 16.83 8.7 17.82 8.7 20.63"/><polygon class="cls-1" points="13.77 23.55 10.65 21.75 10.65 18.95 13.77 20.75 13.77 23.55"/><polygon class="cls-1" points="18.57 32.72 0 22 0 19.2 18.57 29.92 18.57 32.72"/><polygon class="cls-1" points="25.11 36.5 20.52 33.85 20.52 31.05 25.11 33.7 25.11 36.5"/><polygon class="cls-1" points="5.03 31.31 0 28.41 0 25.6 5.03 28.51 5.03 31.31"/><polygon class="cls-1" points="16.84 38.13 6.98 32.44 6.98 29.63 16.84 35.32 16.84 38.13"/><polygon class="cls-1" points="21.91 41.05 18.78 39.25 18.78 36.45 21.91 38.25 21.91 41.05"/><polygon class="cls-1" points="10.29 40.75 0 34.81 0 32 10.29 37.95 10.29 40.75"/><polygon class="cls-2" points="19.68 46.17 12.24 41.87 12.24 39.07 19.68 43.37 19.68 46.17"/><polygon class="cls-1" points="26.66 50.2 21.63 47.3 21.63 44.49 26.66 47.4 26.66 50.2"/><polygon class="cls-1" points="3.48 43.21 0 41.21 0 38.41 3.48 40.41 3.48 43.21"/><polygon class="cls-1" points="10.02 46.99 5.42 44.34 5.42 41.54 10.02 44.19 10.02 46.99"/><polygon class="cls-1" points="19.37 52.39 11.97 48.12 11.97 45.31 19.37 49.59 19.37 52.39"/><polygon class="cls-1" points="10.65 53.76 0 47.61 0 44.8 10.65 50.95 10.65 53.76"/><polygon class="cls-1" points="22.57 60.64 12.6 54.88 12.6 52.08 22.57 57.84 22.57 60.64"/><polygon class="cls-2" points="27.64 63.57 24.52 61.77 24.52 58.96 27.64 60.77 27.64 63.57"/><polygon class="cls-1" points="32.51 66.38 29.39 64.58 29.39 61.77 32.51 63.58 32.51 66.38"/><polygon class="cls-1" points="6.38 57.69 0 54.01 0 51.21 6.38 54.89 6.38 57.69"/><polygon class="cls-2" points="33.06 21.89 41.91 27 41.91 24.2 33.06 19.09 33.06 21.89"/><polygon class="cls-1" points="34.95 29.38 41.91 33.4 41.91 30.6 34.95 26.58 34.95 29.38"/><polygon class="cls-1" points="36.88 36.9 41.91 39.8 41.91 37 36.88 34.09 36.88 36.9"/><polygon class="cls-1" points="34.59 41.98 41.91 46.2 41.91 43.4 34.59 39.17 34.59 41.98"/><polygon class="cls-1" points="36.88 49.7 41.91 52.6 41.91 49.8 36.88 46.89 36.88 49.7"/><polygon class="cls-1" points="35.53 55.32 41.91 59 41.91 56.2 35.53 52.52 35.53 55.32"/><polygon class="cls-1" points="38.43 63.4 41.91 65.4 41.91 62.6 38.43 60.59 38.43 63.4"/><polygon class="cls-1" points="35.17 67.91 41.91 71.8 41.91 69 35.17 65.11 35.17 67.91"/><polygon class="cls-1" points="35.53 74.52 41.91 78.2 41.91 75.4 35.53 71.72 35.53 74.52"/><polygon class="cls-1" points="11.04 60.38 8.33 58.82 8.33 56.02 11.04 57.58 11.04 60.38"/><polygon class="cls-1" points="19.1 65.03 12.99 61.51 12.99 58.71 19.1 62.23 19.1 65.03"/><polygon class="cls-1" points="62.24 38.63 49.48 31.26 49.48 28.46 62.24 35.82 62.24 38.63"/><polygon class="cls-1" points="68.78 42.4 64.19 39.75 64.19 36.95 68.78 39.6 68.78 42.4"/><polygon class="cls-2" points="73.85 45.33 70.73 43.53 70.73 40.73 73.85 42.53 73.85 45.33"/><polygon class="cls-1" points="56.43 41.67 49.48 37.66 49.48 34.86 56.43 38.87 56.43 41.67"/><polygon class="cls-1" points="66.9 47.72 58.38 42.8 58.38 40 66.9 44.91 66.9 47.72"/><polygon class="cls-2" points="71.97 50.65 68.85 48.84 68.85 46.04 71.97 47.84 71.97 50.65"/><polygon class="cls-1" points="76.8 53.43 73.67 51.63 73.67 48.83 76.8 50.63 76.8 53.43"/><polygon class="cls-1" points="54.51 46.96 49.48 44.06 49.48 41.26 54.51 44.16 54.51 46.96"/><polygon class="cls-1" points="58.18 49.08 56.46 48.09 56.46 45.29 58.18 46.28 58.18 49.08"/><polygon class="cls-1" points="63.25 52.01 60.13 50.21 60.13 47.41 63.25 49.21 63.25 52.01"/><polygon class="cls-1" points="68.04 61.18 49.48 50.46 49.48 47.66 68.04 58.38 68.04 61.18"/><polygon class="cls-1" points="74.59 64.96 69.99 62.3 69.99 59.5 74.59 62.16 74.59 64.96"/><polygon class="cls-1" points="54.51 59.77 49.48 56.86 49.48 54.06 54.51 56.96 54.51 59.77"/><polygon class="cls-1" points="66.31 66.58 56.46 60.89 56.46 58.09 66.31 63.78 66.31 66.58"/><polygon class="cls-1" points="71.38 69.51 68.26 67.71 68.26 64.9 71.38 66.71 71.38 69.51"/><polygon class="cls-2" points="59.77 69.2 49.48 63.26 49.48 60.46 59.77 66.4 59.77 69.2"/><polygon class="cls-1" points="69.16 74.63 61.72 70.33 61.72 67.53 69.16 71.83 69.16 74.63"/><polygon class="cls-1" points="76.14 78.66 71.11 75.75 71.11 72.95 76.14 75.85 76.14 78.66"/><polygon class="cls-1" points="52.95 71.67 49.48 69.66 49.48 66.86 52.95 68.87 52.95 71.67"/><polygon class="cls-1" points="59.5 75.45 54.9 72.8 54.9 69.99 59.5 72.64 59.5 75.45"/><polygon class="cls-2" points="68.85 80.85 61.45 76.57 61.45 73.77 68.85 78.04 68.85 80.85"/><polygon class="cls-1" points="60.13 82.21 49.48 76.06 49.48 73.26 60.13 79.41 60.13 82.21"/><polygon class="cls-1" points="72.05 89.1 62.08 83.34 62.08 80.53 72.05 86.29 72.05 89.1"/><polygon class="cls-1" points="77.12 92.02 74 90.22 74 87.42 77.12 89.22 77.12 92.02"/><polygon class="cls-1" points="81.99 94.83 78.87 93.03 78.87 90.23 81.99 92.03 81.99 94.83"/><polygon class="cls-1" points="55.86 86.15 49.48 82.46 49.48 79.66 55.86 83.35 55.86 86.15"/><polygon class="cls-2" points="82.54 50.35 91.39 55.45 91.39 52.65 82.54 47.54 82.54 50.35"/><polygon class="cls-1" points="84.43 57.84 91.39 61.85 91.39 59.05 84.43 55.04 84.43 57.84"/><polygon class="cls-1" points="86.36 65.35 91.39 68.25 91.39 65.45 86.36 62.55 86.36 65.35"/><polygon class="cls-1" points="84.07 70.43 91.39 74.66 91.39 71.85 84.07 67.63 84.07 70.43"/><polygon class="cls-1" points="86.36 78.15 91.39 81.06 91.39 78.25 86.36 75.35 86.36 78.15"/><polygon class="cls-1" points="85 83.77 91.39 87.46 91.39 84.66 85 80.97 85 83.77"/><polygon class="cls-1" points="87.91 91.85 91.39 93.86 91.39 91.06 87.91 89.05 87.91 91.85"/><polygon class="cls-1" points="84.65 96.37 91.39 100.26 91.39 97.46 84.65 93.57 84.65 96.37"/><polygon class="cls-1" points="85 102.98 91.39 106.66 91.39 103.86 85 100.17 85 102.98"/><polygon class="cls-2" points="60.52 88.84 57.81 87.27 57.81 84.47 60.52 86.04 60.52 88.84"/><polygon class="cls-1" points="68.58 93.49 62.47 89.97 62.47 87.16 68.58 90.69 68.58 93.49"/><polygon class="cls-1" points="12.76 67.81 0 60.45 0 57.64 12.76 65.01 12.76 67.81"/><polygon class="cls-1" points="19.3 71.59 14.71 68.94 14.71 66.14 19.3 68.79 19.3 71.59"/><polygon class="cls-1" points="24.37 74.52 21.25 72.72 21.25 69.91 24.37 71.72 24.37 74.52"/><polygon class="cls-1" points="6.95 70.86 0 66.85 0 64.05 6.95 68.06 6.95 70.86"/><polygon class="cls-1" points="17.42 76.91 8.9 71.99 8.9 69.18 17.42 74.1 17.42 76.91"/><polygon class="cls-1" points="22.49 79.83 19.37 78.03 19.37 75.23 22.49 77.03 22.49 79.83"/><polygon class="cls-1" points="27.32 82.62 24.2 80.82 24.2 78.01 27.32 79.82 27.32 82.62"/><polygon class="cls-1" points="5.03 76.15 0 73.25 0 70.45 5.03 73.35 5.03 76.15"/><polygon class="cls-1" points="8.7 78.27 6.98 77.28 6.98 74.47 8.7 75.47 8.7 78.27"/><polygon class="cls-1" points="13.77 81.2 10.65 79.39 10.65 76.59 13.77 78.39 13.77 81.2"/><polygon class="cls-1" points="18.57 90.37 0 79.65 0 76.85 18.57 87.57 18.57 90.37"/><polygon class="cls-1" points="25.11 94.14 20.52 91.49 20.52 88.69 25.11 91.34 25.11 94.14"/><polygon class="cls-1" points="5.03 88.95 0 86.05 0 83.25 5.03 86.15 5.03 88.95"/><polygon class="cls-1" points="16.84 95.77 6.98 90.08 6.98 87.28 16.84 92.97 16.84 95.77"/><polygon class="cls-1" points="21.91 98.7 18.78 96.89 18.78 94.09 21.91 95.89 21.91 98.7"/><polygon class="cls-1" points="10.29 98.39 0 92.45 0 89.65 10.29 95.59 10.29 98.39"/><polygon class="cls-1" points="19.68 103.81 12.24 99.52 12.24 96.72 19.68 101.01 19.68 103.81"/><polygon class="cls-1" points="26.66 107.84 21.63 104.94 21.63 102.14 26.66 105.04 26.66 107.84"/><polygon class="cls-1" points="3.48 100.86 0 98.85 0 96.05 3.48 98.06 3.48 100.86"/><polygon class="cls-1" points="10.02 104.64 5.42 101.98 5.42 99.18 10.02 101.83 10.02 104.64"/><polygon class="cls-1" points="19.37 110.03 11.97 105.76 11.97 102.96 19.37 107.23 19.37 110.03"/><polygon class="cls-1" points="10.65 111.4 0 105.25 0 102.45 10.65 108.6 10.65 111.4"/><polygon class="cls-1" points="22.57 118.28 12.6 112.52 12.6 109.72 22.57 115.48 22.57 118.28"/><polygon class="cls-1" points="27.64 121.21 24.52 119.41 24.52 116.61 27.64 118.41 27.64 121.21"/><polygon class="cls-1" points="32.51 124.02 29.39 122.22 29.39 119.42 32.51 121.22 32.51 124.02"/><polygon class="cls-1" points="6.38 115.33 0 111.65 0 108.85 6.38 112.53 6.38 115.33"/><polygon class="cls-1" points="33.06 79.53 41.91 84.64 41.91 81.84 33.06 76.73 33.06 79.53"/><polygon class="cls-1" points="34.95 87.03 41.91 91.04 41.91 88.24 34.95 84.23 34.95 87.03"/><polygon class="cls-1" points="36.88 94.54 41.91 97.44 41.91 94.64 36.88 91.74 36.88 94.54"/><polygon class="cls-1" points="34.59 99.62 41.91 103.84 41.91 101.04 34.59 96.82 34.59 99.62"/><polygon class="cls-1" points="36.88 107.34 41.91 110.24 41.91 107.44 36.88 104.54 36.88 107.34"/><polygon class="cls-1" points="35.53 112.96 41.91 116.64 41.91 113.84 35.53 110.16 35.53 112.96"/><polygon class="cls-1" points="38.43 121.04 41.91 123.05 41.91 120.24 38.43 118.24 38.43 121.04"/><polygon class="cls-1" points="35.17 125.56 41.91 129.45 41.91 126.64 35.17 122.76 35.17 125.56"/><polygon class="cls-1" points="35.53 132.16 41.91 135.85 41.91 133.04 35.53 129.36 35.53 132.16"/><polygon class="cls-1" points="11.04 118.03 8.33 116.46 8.33 113.66 11.04 115.22 11.04 118.03"/><polygon class="cls-1" points="19.1 122.68 12.99 119.15 12.99 116.35 19.1 119.88 19.1 122.68"/><polygon class="cls-1" points="24.15 144.21 13.84 138.26 13.84 135.46 24.15 141.41 24.15 144.21"/><polygon class="cls-1" points="31.21 148.28 27.15 145.94 27.15 143.14 31.21 145.48 31.21 148.28"/><polygon class="cls-1" points="62.24 96.27 49.48 88.9 49.48 86.1 62.24 93.47 62.24 96.27"/><polygon class="cls-1" points="68.78 100.05 64.19 97.39 64.19 94.59 68.78 97.24 68.78 100.05"/><polygon class="cls-1" points="73.85 102.97 70.73 101.17 70.73 98.37 73.85 100.17 73.85 102.97"/><polygon class="cls-1" points="56.43 99.32 49.48 95.3 49.48 92.5 56.43 96.52 56.43 99.32"/><polygon class="cls-1" points="66.9 105.36 58.38 100.44 58.38 97.64 66.9 102.56 66.9 105.36"/><polygon class="cls-1" points="71.97 108.29 68.85 106.49 68.85 103.69 71.97 105.49 71.97 108.29"/><polygon class="cls-1" points="76.8 111.08 73.67 109.27 73.67 106.47 76.8 108.27 76.8 111.08"/><polygon class="cls-1" points="54.51 104.61 49.48 101.7 49.48 98.9 54.51 101.81 54.51 104.61"/><polygon class="cls-1" points="58.18 106.73 56.46 105.73 56.46 102.93 58.18 103.92 58.18 106.73"/><polygon class="cls-1" points="63.25 109.65 60.13 107.85 60.13 105.05 63.25 106.85 63.25 109.65"/><polygon class="cls-1" points="68.04 118.82 49.48 108.11 49.48 105.3 68.04 116.02 68.04 118.82"/><polygon class="cls-1" points="74.59 122.6 69.99 119.95 69.99 117.15 74.59 119.8 74.59 122.6"/><polygon class="cls-1" points="54.51 117.41 49.48 114.5 49.48 111.7 54.51 114.61 54.51 117.41"/><polygon class="cls-1" points="66.31 124.22 56.46 118.53 56.46 115.73 66.31 121.42 66.31 124.22"/><polygon class="cls-1" points="71.38 127.15 68.26 125.35 68.26 122.55 71.38 124.35 71.38 127.15"/><polygon class="cls-1" points="59.77 126.85 49.48 120.91 49.48 118.1 59.77 124.05 59.77 126.85"/><polygon class="cls-1" points="69.16 132.27 61.72 127.97 61.72 125.17 69.16 129.47 69.16 132.27"/><polygon class="cls-1" points="76.14 136.3 71.11 133.4 71.11 130.59 76.14 133.5 76.14 136.3"/><polygon class="cls-1" points="52.95 129.31 49.48 127.31 49.48 124.5 52.95 126.51 52.95 129.31"/><polygon class="cls-1" points="59.5 133.09 54.9 130.44 54.9 127.64 59.5 130.29 59.5 133.09"/><polygon class="cls-1" points="68.85 138.49 61.45 134.22 61.45 131.41 68.85 135.69 68.85 138.49"/><polygon class="cls-1" points="60.13 139.85 49.48 133.71 49.48 130.91 60.13 137.05 60.13 139.85"/><polygon class="cls-1" points="72.05 146.74 62.08 140.98 62.08 138.18 72.05 143.94 72.05 146.74"/><polygon class="cls-1" points="77.12 149.67 74 147.87 74 145.06 77.12 146.87 77.12 149.67"/><polygon class="cls-1" points="81.99 152.48 78.87 150.68 78.87 147.87 81.99 149.68 81.99 152.48"/><polygon class="cls-1" points="55.86 143.79 49.48 140.11 49.48 137.31 55.86 140.99 55.86 143.79"/><polygon class="cls-1" points="82.54 107.99 91.39 113.1 91.39 110.3 82.54 105.19 82.54 107.99"/><polygon class="cls-1" points="84.43 115.48 91.39 119.5 91.39 116.7 84.43 112.68 84.43 115.48"/><polygon class="cls-1" points="86.36 123 91.39 125.9 91.39 123.1 86.36 120.19 86.36 123"/><polygon class="cls-1" points="84.07 128.07 91.39 132.3 91.39 129.5 84.07 125.27 84.07 128.07"/><polygon class="cls-1" points="86.36 135.8 91.39 138.7 91.39 135.9 86.36 132.99 86.36 135.8"/><polygon class="cls-1" points="85 141.42 91.39 145.1 91.39 142.3 85 138.62 85 141.42"/><polygon class="cls-1" points="87.91 149.5 91.39 151.5 91.39 148.7 87.91 146.69 87.91 149.5"/><polygon class="cls-1" points="84.65 154.01 91.39 157.9 91.39 155.1 84.65 151.21 84.65 154.01"/><polygon class="cls-1" points="85 160.62 91.39 164.3 91.39 161.5 85 157.82 85 160.62"/><polygon class="cls-1" points="60.52 146.48 57.81 144.92 57.81 142.12 60.52 143.68 60.52 146.48"/><polygon class="cls-1" points="68.58 151.13 62.47 147.61 62.47 144.81 68.58 148.33 68.58 151.13"/><polygon class="cls-1" points="73.63 172.66 63.32 166.72 63.32 163.91 73.63 169.86 73.63 172.66"/><polygon class="cls-1" points="80.69 176.74 76.63 174.4 76.63 171.59 80.69 173.94 80.69 176.74"/></g></g></svg>