<?xml version="1.0" encoding="utf-8"?>
<!-- Generator: Adobe Illustrator 21.1.0, SVG Export Plug-In . SVG Version: 6.00 Build 0)  -->
<svg version="1.1" id="Layer_1" xmlns="http://www.w3.org/2000/svg" xmlns:xlink="http://www.w3.org/1999/xlink" x="0px" y="0px"
	 viewBox="0 0 2500.1 2500.2" style="enable-background:new 0 0 2500.1 2500.2;" xml:space="preserve">
<style type="text/css">
	.st0{fill:#FFFFFF;}
</style>
<path class="st0" d="M833.5,1250.1c0-230.1,186.5-416.7,416.6-416.7s416.7,186.6,416.7,416.7s-186.6,416.7-416.7,416.7
	S833.5,1480.2,833.5,1250.1 M608.2,1250.1c0,354.5,287.4,641.9,641.9,641.9s641.9-287.4,641.9-641.9s-287.4-641.9-641.9-641.9
	S608.2,895.6,608.2,1250.1 M1767.4,582.7c0,82.9,67.1,150,150,150.1c82.9,0,150-67.1,150.1-150s-67.1-150-150-150.1h-0.1
	C1834.6,432.8,1767.5,499.9,1767.4,582.7 M745.1,2267.7c-121.9-5.6-188.1-25.9-232.2-43c-58.4-22.7-100-49.8-143.8-93.5
	s-70.9-85.3-93.5-143.7c-17.2-44-37.5-110.3-43-232.2c-6.1-131.8-7.3-171.4-7.3-505.2s1.3-373.3,7.3-505.2
	c5.6-121.9,26-188,43-232.2c22.7-58.4,49.8-100,93.5-143.8s85.3-70.9,143.8-93.5c44-17.2,110.3-37.5,232.2-43
	c131.8-6.1,171.4-7.3,505-7.3s373.3,1.3,505.2,7.3c121.9,5.6,188,26,232.2,43c58.4,22.6,100,49.8,143.8,93.5s70.8,85.4,93.5,143.8
	c17.2,44,37.5,110.3,43,232.2c6.1,131.9,7.3,171.4,7.3,505.2s-1.2,373.3-7.3,505.2c-5.6,121.9-26,188.1-43,232.2
	c-22.7,58.4-49.8,100-93.5,143.7s-85.4,70.8-143.8,93.5c-44,17.2-110.3,37.5-232.2,43c-131.8,6.1-171.4,7.3-505.2,7.3
	S876.8,2273.8,745.1,2267.7 M734.7,7.6c-133.1,6.1-224,27.2-303.4,58.1c-82.2,31.9-151.9,74.7-221.4,144.2S97.5,349,65.6,431.3
	c-30.9,79.5-52,170.4-58.1,303.4C1.4,868,0,910.6,0,1250.1s1.4,382.1,7.6,515.4c6.1,133.1,27.2,224,58.1,303.4
	c31.9,82.2,74.6,152,144.2,221.4c69.6,69.4,139.2,112.2,221.4,144.2c79.6,30.9,170.4,52,303.4,58.1c133.4,6.1,175.9,7.6,515.4,7.6
	s382.1-1.4,515.4-7.6c133.1-6.1,224-27.2,303.4-58.1c82.2-32,151.9-74.7,221.4-144.2c69.6-69.5,112.2-139.3,144.2-221.4
	c30.9-79.5,52.1-170.4,58.1-303.4c6.1-133.4,7.5-175.9,7.5-515.4s-1.4-382.1-7.5-515.4c-6.1-133.1-27.2-224-58.1-303.4
	c-32-82.2-74.7-151.9-144.2-221.4c-69.5-69.6-139.3-112.3-221.3-144.2c-79.6-30.9-170.5-52.1-303.4-58.1
	C1632.3,1.5,1589.7,0,1250.3,0S868.1,1.4,734.7,7.6"/>
</svg>
