<svg xmlns="http://www.w3.org/2000/svg" xmlns:xlink="http://www.w3.org/1999/xlink" viewBox="0 0 385.89 287.54"><defs><style>.cls-1{mask:url(#mask);filter:url(#luminosity-noclip-9);}.cls-10,.cls-12,.cls-14,.cls-16,.cls-2,.cls-4,.cls-6,.cls-8{mix-blend-mode:multiply;}.cls-2{fill:url(#Áåçûìÿííûé_ãðàäèåíò_57);}.cls-3{mask:url(#mask-2);filter:url(#luminosity-noclip-14);}.cls-4{fill:url(#Áåçûìÿííûé_ãðàäèåíò_57-2);}.cls-5{mask:url(#mask-3);filter:url(#luminosity-noclip-15);}.cls-6{fill:url(#Áåçûìÿííûé_ãðàäèåíò_57-3);}.cls-7{mask:url(#mask-4);filter:url(#luminosity-noclip-16);}.cls-8{fill:url(#Áåçûìÿííûé_ãðàäèåíò_57-4);}.cls-9{mask:url(#mask-5);filter:url(#luminosity-noclip-10);}.cls-10{fill:url(#Áåçûìÿííûé_ãðàäèåíò_57-5);}.cls-11{mask:url(#mask-6);filter:url(#luminosity-noclip-11);}.cls-12{fill:url(#Áåçûìÿííûé_ãðàäèåíò_57-6);}.cls-13{mask:url(#mask-7);filter:url(#luminosity-noclip-12);}.cls-14{fill:url(#Áåçûìÿííûé_ãðàäèåíò_57-7);}.cls-15{mask:url(#mask-8);filter:url(#luminosity-noclip-13);}.cls-16{fill:url(#Áåçûìÿííûé_ãðàäèåíò_57-8);}.cls-17{fill:none;}.cls-18{mask:url(#mask-9);}.cls-19,.cls-21,.cls-23,.cls-25,.cls-27,.cls-29,.cls-31,.cls-33{opacity:0.66;}.cls-19{fill:url(#Áåçûìÿííûé_ãðàäèåíò_32);}.cls-20{mask:url(#mask-10);}.cls-21{fill:url(#Áåçûìÿííûé_ãðàäèåíò_32-2);}.cls-22{mask:url(#mask-11);}.cls-23{fill:url(#Áåçûìÿííûé_ãðàäèåíò_32-3);}.cls-24{mask:url(#mask-12);}.cls-25{fill:url(#Áåçûìÿííûé_ãðàäèåíò_32-4);}.cls-26{mask:url(#mask-13);}.cls-27{fill:url(#Áåçûìÿííûé_ãðàäèåíò_32-5);}.cls-28{mask:url(#mask-14);}.cls-29{fill:url(#Áåçûìÿííûé_ãðàäèåíò_32-6);}.cls-30{mask:url(#mask-15);}.cls-31{fill:url(#Áåçûìÿííûé_ãðàäèåíò_32-7);}.cls-32{mask:url(#mask-16);}.cls-33{fill:url(#Áåçûìÿííûé_ãðàäèåíò_32-8);}.cls-34{fill:url(#Áåçûìÿííûé_ãðàäèåíò_20);}.cls-35{fill:url(#Áåçûìÿííûé_ãðàäèåíò_28);}.cls-36{fill:url(#Áåçûìÿííûé_ãðàäèåíò_29);}.cls-37{fill:#242993;}.cls-38{opacity:0.51;}.cls-39{fill:#4553c7;}.cls-40{fill:url(#Áåçûìÿííûé_ãðàäèåíò_29-2);}.cls-41{fill:url(#Áåçûìÿííûé_ãðàäèåíò_28-2);}.cls-42{fill:#2859cb;}.cls-43{fill:#adc8ff;}.cls-44{fill:#91afff;}.cls-45{fill:url(#Áåçûìÿííûé_ãðàäèåíò_28-3);}.cls-46{opacity:0.11;}.cls-47{clip-path:url(#clip-path);}.cls-48{fill:url(#Áåçûìÿííûé_ãðàäèåíò_28-4);}.cls-49{fill:url(#Áåçûìÿííûé_ãðàäèåíò_28-5);}.cls-50{fill:#42ffff;}.cls-51{filter:url(#luminosity-noclip-8);}.cls-52{filter:url(#luminosity-noclip-7);}.cls-53{filter:url(#luminosity-noclip-6);}.cls-54{filter:url(#luminosity-noclip-5);}.cls-55{filter:url(#luminosity-noclip-4);}.cls-56{filter:url(#luminosity-noclip-3);}.cls-57{filter:url(#luminosity-noclip-2);}.cls-58{filter:url(#luminosity-noclip);}</style><filter id="luminosity-noclip" x="0" y="-8300.81" width="209.59" height="32766" filterUnits="userSpaceOnUse" color-interpolation-filters="sRGB"><feFlood flood-color="#fff" result="bg"/><feBlend in="SourceGraphic" in2="bg"/></filter><mask id="mask" x="0" y="-8300.81" width="209.59" height="32766" maskUnits="userSpaceOnUse"><g class="cls-58"/></mask><linearGradient id="Áåçûìÿííûé_ãðàäèåíò_57" x1="-673.27" y1="1791.44" x2="-673.27" y2="1587.11" gradientTransform="matrix(0.87, -0.5, 1, 0.58, -994.61, -1097.87)" gradientUnits="userSpaceOnUse"><stop offset="0"/><stop offset="0.06" stop-color="#2a2a2a"/><stop offset="0.15" stop-color="#626262"/><stop offset="0.23" stop-color="#929292"/><stop offset="0.31" stop-color="#b6b6b6"/><stop offset="0.39" stop-color="#d1d1d1"/><stop offset="0.45" stop-color="#e0e0e0"/><stop offset="0.51" stop-color="#e6e6e6"/><stop offset="0.55" stop-color="#dedede"/><stop offset="0.62" stop-color="#c9c9c9"/><stop offset="0.71" stop-color="#a7a7a7"/><stop offset="0.8" stop-color="#787878"/><stop offset="0.91" stop-color="#3b3b3b"/><stop offset="1"/></linearGradient><filter id="luminosity-noclip-2" x="85.72" y="-8300.81" width="264.59" height="32766" filterUnits="userSpaceOnUse" color-interpolation-filters="sRGB"><feFlood flood-color="#fff" result="bg"/><feBlend in="SourceGraphic" in2="bg"/></filter><mask id="mask-2" x="85.72" y="-8300.81" width="264.59" height="32766" maskUnits="userSpaceOnUse"><g class="cls-57"/></mask><linearGradient id="Áåçûìÿííûé_ãðàäèåíò_57-2" x1="-465.23" y1="1751.34" x2="-465.23" y2="1491.84" xlink:href="#Áåçûìÿííûé_ãðàäèåíò_57"/><filter id="luminosity-noclip-3" x="89.31" y="-8300.81" width="225.76" height="32766" filterUnits="userSpaceOnUse" color-interpolation-filters="sRGB"><feFlood flood-color="#fff" result="bg"/><feBlend in="SourceGraphic" in2="bg"/></filter><mask id="mask-3" x="89.31" y="-8300.81" width="225.76" height="32766" maskUnits="userSpaceOnUse"><g class="cls-56"/></mask><linearGradient id="Áåçûìÿííûé_ãðàäèåíò_57-3" x1="-551.83" y1="1791.44" x2="-551.83" y2="1570.89" xlink:href="#Áåçûìÿííûé_ãðàäèåíò_57"/><filter id="luminosity-noclip-4" x="131.85" y="-8300.81" width="97.67" height="32766" filterUnits="userSpaceOnUse" color-interpolation-filters="sRGB"><feFlood flood-color="#fff" result="bg"/><feBlend in="SourceGraphic" in2="bg"/></filter><mask id="mask-4" x="131.85" y="-8300.81" width="97.67" height="32766" maskUnits="userSpaceOnUse"><g class="cls-55"/></mask><linearGradient id="Áåçûìÿííûé_ãðàäèåíò_57-4" x1="-521.47" y1="1679.18" x2="-521.47" y2="1587.11" xlink:href="#Áåçûìÿííûé_ãðàäèåíò_57"/><filter id="luminosity-noclip-5" x="75.15" y="-8300.81" width="112.04" height="32766" filterUnits="userSpaceOnUse" color-interpolation-filters="sRGB"><feFlood flood-color="#fff" result="bg"/><feBlend in="SourceGraphic" in2="bg"/></filter><mask id="mask-5" x="75.15" y="-8300.81" width="112.04" height="32766" maskUnits="userSpaceOnUse"><g class="cls-54"/></mask><linearGradient id="Áåçûìÿííûé_ãðàäèåíò_57-5" x1="-642.91" y1="1742.52" x2="-642.91" y2="1636.03" xlink:href="#Áåçûìÿííûé_ãðàäèåíò_57"/><filter id="luminosity-noclip-6" x="123.34" y="-8300.81" width="138.99" height="32766" filterUnits="userSpaceOnUse" color-interpolation-filters="sRGB"><feFlood flood-color="#fff" result="bg"/><feBlend in="SourceGraphic" in2="bg"/></filter><mask id="mask-6" x="123.34" y="-8300.81" width="138.99" height="32766" maskUnits="userSpaceOnUse"><g class="cls-53"/></mask><linearGradient id="Áåçûìÿííûé_ãðàäèåíò_57-6" x1="-612.55" y1="1791.44" x2="-612.55" y2="1657.92" xlink:href="#Áåçûìÿííûé_ãðàäèåíò_57"/><filter id="luminosity-noclip-7" x="24.11" y="-8300.81" width="264.59" height="32766" filterUnits="userSpaceOnUse" color-interpolation-filters="sRGB"><feFlood flood-color="#fff" result="bg"/><feBlend in="SourceGraphic" in2="bg"/></filter><mask id="mask-7" x="24.11" y="-8300.81" width="264.59" height="32766" maskUnits="userSpaceOnUse"><g class="cls-52"/></mask><linearGradient id="Áåçûìÿííûé_ãðàäèåíò_57-7" x1="-582.19" y1="1791.44" x2="-582.19" y2="1531.94" xlink:href="#Áåçûìÿííûé_ãðàäèåíò_57"/><filter id="luminosity-noclip-8" x="121.29" y="-8300.81" width="264.59" height="32766" filterUnits="userSpaceOnUse" color-interpolation-filters="sRGB"><feFlood flood-color="#fff" result="bg"/><feBlend in="SourceGraphic" in2="bg"/></filter><mask id="mask-8" x="121.29" y="-8300.81" width="264.59" height="32766" maskUnits="userSpaceOnUse"><g class="cls-51"/></mask><linearGradient id="Áåçûìÿííûé_ãðàäèåíò_57-8" x1="-494.3" y1="1812.35" x2="-494.3" y2="1552.85" xlink:href="#Áåçûìÿííûé_ãðàäèåíò_57"/><filter id="luminosity-noclip-9" x="0" y="158.57" width="209.59" height="122.33" filterUnits="userSpaceOnUse" color-interpolation-filters="sRGB"><feFlood flood-color="#fff" result="bg"/><feBlend in="SourceGraphic" in2="bg"/></filter><mask id="mask-9" x="0" y="158.57" width="209.59" height="122.33" maskUnits="userSpaceOnUse"><g class="cls-1"><path class="cls-2" d="M3.43,159.95l-1,.56c-3.61,2.06-3.18,5.7,1,8.12L192.11,278.88c4.15,2.42,10.44,2.72,14.05.66l1-.56c3.61-2.06,3.18-5.7-1-8.12L17.48,160.6C13.33,158.18,7,157.89,3.43,159.95Z"/></g></mask><linearGradient id="Áåçûìÿííûé_ãðàäèåíò_32" x1="-673.27" y1="1791.44" x2="-673.27" y2="1587.11" gradientTransform="matrix(0.87, -0.5, 1, 0.58, -994.61, -1097.87)" gradientUnits="userSpaceOnUse"><stop offset="0" stop-color="#5778ff"/><stop offset="0.01" stop-color="#567cff"/><stop offset="0.13" stop-color="#4fabff"/><stop offset="0.24" stop-color="#49cfff"/><stop offset="0.34" stop-color="#45eaff"/><stop offset="0.43" stop-color="#43f9ff"/><stop offset="0.51" stop-color="#42ffff"/><stop offset="0.57" stop-color="#43f7ff"/><stop offset="0.67" stop-color="#46e3ff"/><stop offset="0.8" stop-color="#4cc0ff"/><stop offset="0.93" stop-color="#5391ff"/><stop offset="1" stop-color="#5778ff"/></linearGradient><filter id="luminosity-noclip-10" x="75.15" y="172.03" width="112.04" height="65.33" filterUnits="userSpaceOnUse" color-interpolation-filters="sRGB"><feFlood flood-color="#fff" result="bg"/><feBlend in="SourceGraphic" in2="bg"/></filter><mask id="mask-10" x="75.15" y="172.03" width="112.04" height="65.33" maskUnits="userSpaceOnUse"><g class="cls-9"><path class="cls-10" d="M78.57,173.4l-1,.56c-3.61,2.06-3.18,5.7,1,8.12l91.14,53.25c4.15,2.42,10.44,2.72,14.05.66l1-.56c3.61-2.06,3.18-5.7-1-8.12L92.63,174.06C88.48,171.64,82.19,171.34,78.57,173.4Z"/></g></mask><linearGradient id="Áåçûìÿííûé_ãðàäèåíò_32-2" x1="-642.91" y1="1742.52" x2="-642.91" y2="1636.03" xlink:href="#Áåçûìÿííûé_ãðàäèåíò_32"/><filter id="luminosity-noclip-11" x="123.34" y="169.74" width="138.99" height="81.08" filterUnits="userSpaceOnUse" color-interpolation-filters="sRGB"><feFlood flood-color="#fff" result="bg"/><feBlend in="SourceGraphic" in2="bg"/></filter><mask id="mask-11" x="123.34" y="169.74" width="138.99" height="81.08" maskUnits="userSpaceOnUse"><g class="cls-11"><path class="cls-12" d="M126.77,171.11l-1,.56c-3.61,2.06-3.18,5.7,1,8.12l118.09,69c4.15,2.42,10.44,2.72,14.05.66l1-.56c3.61-2.06,3.18-5.7-1-8.12l-118.09-69C136.67,169.34,130.38,169.05,126.77,171.11Z"/></g></mask><linearGradient id="Áåçûìÿííûé_ãðàäèåíò_32-3" x1="-612.55" y1="1791.44" x2="-612.55" y2="1657.92" xlink:href="#Áåçûìÿííûé_ãðàäèåíò_32"/><filter id="luminosity-noclip-12" x="24.11" y="81.31" width="264.59" height="154.47" filterUnits="userSpaceOnUse" color-interpolation-filters="sRGB"><feFlood flood-color="#fff" result="bg"/><feBlend in="SourceGraphic" in2="bg"/></filter><mask id="mask-12" x="24.11" y="81.31" width="264.59" height="154.47" maskUnits="userSpaceOnUse"><g class="cls-13"><path class="cls-14" d="M27.54,82.68l-1,.56c-3.61,2.06-3.18,5.7,1,8.12L271.22,233.75c4.15,2.42,10.44,2.72,14.05.66l1-.56c3.61-2.06,3.18-5.7-1-8.12L41.59,83.34C37.44,80.92,31.15,80.62,27.54,82.68Z"/></g></mask><linearGradient id="Áåçûìÿííûé_ãðàäèåíò_32-4" x1="-582.19" y1="1791.44" x2="-582.19" y2="1531.94" xlink:href="#Áåçûìÿííûé_ãðàäèåíò_32"/><filter id="luminosity-noclip-13" x="121.29" y="49.94" width="264.59" height="154.47" filterUnits="userSpaceOnUse" color-interpolation-filters="sRGB"><feFlood flood-color="#fff" result="bg"/><feBlend in="SourceGraphic" in2="bg"/></filter><mask id="mask-13" x="121.29" y="49.94" width="264.59" height="154.47" maskUnits="userSpaceOnUse"><g class="cls-15"><path class="cls-16" d="M124.72,51.31l-1,.56c-3.61,2.06-3.18,5.7,1,8.12L368.4,202.38c4.15,2.42,10.44,2.72,14.05.66l1-.56c3.61-2.06,3.18-5.7-1-8.12L138.78,52C134.63,49.55,128.34,49.25,124.72,51.31Z"/></g></mask><linearGradient id="Áåçûìÿííûé_ãðàäèåíò_32-5" x1="-494.3" y1="1812.35" x2="-494.3" y2="1552.85" xlink:href="#Áåçûìÿííûé_ãðàäèåíò_32"/><filter id="luminosity-noclip-14" x="85.72" y="0" width="264.59" height="154.47" filterUnits="userSpaceOnUse" color-interpolation-filters="sRGB"><feFlood flood-color="#fff" result="bg"/><feBlend in="SourceGraphic" in2="bg"/></filter><mask id="mask-14" x="85.72" y="0" width="264.59" height="154.47" maskUnits="userSpaceOnUse"><g class="cls-3"><path class="cls-4" d="M89.15,1.37l-1,.56c-3.61,2.06-3.18,5.7,1,8.12L332.83,152.44c4.15,2.42,10.44,2.72,14.05.66l1-.56c3.61-2.06,3.18-5.7-1-8.12L103.2,2C99.05-.4,92.76-.69,89.15,1.37Z"/></g></mask><linearGradient id="Áåçûìÿííûé_ãðàäèåíò_32-6" x1="-465.23" y1="1751.34" x2="-465.23" y2="1491.84" xlink:href="#Áåçûìÿííûé_ãðàäèåíò_32"/><filter id="luminosity-noclip-15" x="89.31" y="88.96" width="225.76" height="131.78" filterUnits="userSpaceOnUse" color-interpolation-filters="sRGB"><feFlood flood-color="#fff" result="bg"/><feBlend in="SourceGraphic" in2="bg"/></filter><mask id="mask-15" x="89.31" y="88.96" width="225.76" height="131.78" maskUnits="userSpaceOnUse"><g class="cls-5"><path class="cls-6" d="M92.73,90.33l-1,.56c-3.61,2.06-3.18,5.7,1,8.12l204.86,119.7c4.15,2.42,10.44,2.72,14.05.66l1-.56c3.61-2.06,3.18-5.7-1-8.12L106.79,91C102.64,88.56,96.35,88.27,92.73,90.33Z"/></g></mask><linearGradient id="Áåçûìÿííûé_ãðàäèåíò_32-7" x1="-551.83" y1="1791.44" x2="-551.83" y2="1570.89" xlink:href="#Áåçûìÿííûé_ãðàäèåíò_32"/><filter id="luminosity-noclip-16" x="131.85" y="83.36" width="97.67" height="56.94" filterUnits="userSpaceOnUse" color-interpolation-filters="sRGB"><feFlood flood-color="#fff" result="bg"/><feBlend in="SourceGraphic" in2="bg"/></filter><mask id="mask-16" x="131.85" y="83.36" width="97.67" height="56.94" maskUnits="userSpaceOnUse"><g class="cls-7"><path class="cls-8" d="M135.27,84.73l-1,.56c-3.61,2.06-3.18,5.7,1,8.12L212,138.27c4.15,2.42,10.44,2.72,14.05.66l1-.56c3.61-2.06,3.18-5.7-1-8.12L149.33,85.39C145.18,83,138.89,82.67,135.27,84.73Z"/></g></mask><linearGradient id="Áåçûìÿííûé_ãðàäèåíò_32-8" x1="-521.47" y1="1679.18" x2="-521.47" y2="1587.11" xlink:href="#Áåçûìÿííûé_ãðàäèåíò_32"/><linearGradient id="Áåçûìÿííûé_ãðàäèåíò_20" x1="-1735.06" y1="219.06" x2="-1500.74" y2="219.06" gradientTransform="matrix(-1, 0, 0, 1, -1470.61, 0)" gradientUnits="userSpaceOnUse"><stop offset="0" stop-color="#42ffff"/><stop offset="0.15" stop-color="#43faff"/><stop offset="0.33" stop-color="#45ecff"/><stop offset="0.52" stop-color="#49d4ff"/><stop offset="0.72" stop-color="#4eb3ff"/><stop offset="0.93" stop-color="#5489ff"/><stop offset="1" stop-color="#5778ff"/></linearGradient><linearGradient id="Áåçûìÿííûé_ãðàäèåíò_28" x1="-1766.23" y1="106.58" x2="-1588.61" y2="106.58" gradientTransform="matrix(-1, 0, 0, 1, -1470.61, 0)" gradientUnits="userSpaceOnUse"><stop offset="0" stop-color="#c0d6ff"/><stop offset="0.3" stop-color="#c5dbff"/><stop offset="0.65" stop-color="#d3e9ff"/><stop offset="1" stop-color="#e9ffff"/></linearGradient><linearGradient id="Áåçûìÿííûé_ãðàäèåíò_29" x1="-1766.22" y1="152.13" x2="-1735.73" y2="152.13" gradientTransform="matrix(-1, 0, 0, 1, -1470.61, 0)" gradientUnits="userSpaceOnUse"><stop offset="0" stop-color="#5778ff"/><stop offset="0.18" stop-color="#5c7dff"/><stop offset="0.39" stop-color="#6a8aff"/><stop offset="0.61" stop-color="#82a0ff"/><stop offset="0.85" stop-color="#a3beff"/><stop offset="1" stop-color="#bcd5ff"/></linearGradient><linearGradient id="Áåçûìÿííûé_ãðàäèåíò_29-2" x1="-1742.43" y1="203.34" x2="-1491.58" y2="203.34" xlink:href="#Áåçûìÿííûé_ãðàäèåíò_29"/><linearGradient id="Áåçûìÿííûé_ãðàäèåíò_28-2" x1="-1658.14" y1="194.97" x2="-1407.16" y2="194.97" xlink:href="#Áåçûìÿííûé_ãðàäèåíò_28"/><linearGradient id="Áåçûìÿííûé_ãðàäèåíò_28-3" x1="-1615.64" y1="209.22" x2="-1551.39" y2="209.22" xlink:href="#Áåçûìÿííûé_ãðàäèåíò_28"/><clipPath id="clip-path"><polygon id="SVGID" class="cls-17" points="139.43 10.37 287.63 95.94 269.25 204.29 121.15 118.78 139.43 10.37"/></clipPath><linearGradient id="Áåçûìÿííûé_ãðàäèåíò_28-4" x1="-1754.03" y1="139.34" x2="-1503.05" y2="139.34" xlink:href="#Áåçûìÿííûé_ãðàäèåíò_28"/><linearGradient id="Áåçûìÿííûé_ãðàäèåíò_28-5" x1="-1770.55" y1="120.92" x2="-1706.31" y2="120.92" xlink:href="#Áåçûìÿííûé_ãðàäèåíò_28"/></defs><title>Asset 2</title><g id="Layer_2" data-name="Layer 2"><g id="Ñëîé_1" data-name="Ñëîé 1"><g class="cls-18"><path class="cls-19" d="M3.43,159.95l-1,.56c-3.61,2.06-3.18,5.7,1,8.12L192.11,278.88c4.15,2.42,10.44,2.72,14.05.66l1-.56c3.61-2.06,3.18-5.7-1-8.12L17.48,160.6C13.33,158.18,7,157.89,3.43,159.95Z"/></g><g class="cls-20"><path class="cls-21" d="M78.57,173.4l-1,.56c-3.61,2.06-3.18,5.7,1,8.12l91.14,53.25c4.15,2.42,10.44,2.72,14.05.66l1-.56c3.61-2.06,3.18-5.7-1-8.12L92.63,174.06C88.48,171.64,82.19,171.34,78.57,173.4Z"/></g><g class="cls-22"><path class="cls-23" d="M126.77,171.11l-1,.56c-3.61,2.06-3.18,5.7,1,8.12l118.09,69c4.15,2.42,10.44,2.72,14.05.66l1-.56c3.61-2.06,3.18-5.7-1-8.12l-118.09-69C136.67,169.34,130.38,169.05,126.77,171.11Z"/></g><g class="cls-24"><path class="cls-25" d="M27.54,82.68l-1,.56c-3.61,2.06-3.18,5.7,1,8.12L271.22,233.75c4.15,2.42,10.44,2.72,14.05.66l1-.56c3.61-2.06,3.18-5.7-1-8.12L41.59,83.34C37.44,80.92,31.15,80.62,27.54,82.68Z"/></g><g class="cls-26"><path class="cls-27" d="M124.72,51.31l-1,.56c-3.61,2.06-3.18,5.7,1,8.12L368.4,202.38c4.15,2.42,10.44,2.72,14.05.66l1-.56c3.61-2.06,3.18-5.7-1-8.12L138.78,52C134.63,49.55,128.34,49.25,124.72,51.31Z"/></g><g class="cls-28"><path class="cls-29" d="M89.15,1.37l-1,.56c-3.61,2.06-3.18,5.7,1,8.12L332.83,152.44c4.15,2.42,10.44,2.72,14.05.66l1-.56c3.61-2.06,3.18-5.7-1-8.12L103.2,2C99.05-.4,92.76-.69,89.15,1.37Z"/></g><g class="cls-30"><path class="cls-31" d="M92.73,90.33l-1,.56c-3.61,2.06-3.18,5.7,1,8.12l204.86,119.7c4.15,2.42,10.44,2.72,14.05.66l1-.56c3.61-2.06,3.18-5.7-1-8.12L106.79,91C102.64,88.56,96.35,88.27,92.73,90.33Z"/></g><g class="cls-32"><path class="cls-33" d="M135.27,84.73l-1,.56c-3.61,2.06-3.18,5.7,1,8.12L212,138.27c4.15,2.42,10.44,2.72,14.05.66l1-.56c3.61-2.06,3.18-5.7-1-8.12L149.33,85.39C145.18,83,138.89,82.67,135.27,84.73Z"/></g><path class="cls-34" d="M176.36,287.54a13.07,13.07,0,0,1-6.54-1.75L31.73,206.07a3.21,3.21,0,0,1,0-5.57l86.48-49.93.67.39,144,83.12a3.21,3.21,0,0,1,0,5.57L182.9,285.79A13.07,13.07,0,0,1,176.36,287.54ZM118.21,153.67,33.07,202.82a.53.53,0,0,0,0,.92l138.09,79.73a10.42,10.42,0,0,0,10.4,0l79.94-46.15a.53.53,0,0,0,0-.92Z"/><path class="cls-35" d="M118,117.63,137.27,3.49l-1.55-.65L138,1.51h0a1.67,1.67,0,0,1,1.79.12L293.58,90.41a4.34,4.34,0,0,1,2,3.91l-19.39,115a1.44,1.44,0,0,1-.81,1.17h0l-2.27,1.31-.39-2.12.13,0L120,121.54A4.34,4.34,0,0,1,118,117.63Z"/><path class="cls-36" d="M292.73,93.54l2.53-1.12a3.48,3.48,0,0,1,.33,1.9l-19.39,115a1.44,1.44,0,0,1-.81,1.17h0l-2.27,1.31-.39-2.12.13,0-7.73-4.46Z"/><path class="cls-37" d="M117.61,122.92l153.75,88.77c1.19.69,2.2.29,2.41-.94l19.39-115a4.34,4.34,0,0,0-2-3.91L137.42,3c-1.19-.69-2.2-.29-2.41.94L115.62,119A4.34,4.34,0,0,0,117.61,122.92Z"/><g class="cls-38"><polygon class="cls-39" points="139.43 10.37 287.63 95.94 269.25 204.29 121.15 118.78 139.43 10.37"/></g><path class="cls-40" d="M21,177.39l8.39,4.38,84.14-48.58a6.1,6.1,0,0,1,5.49.23L264.1,217.2c1.39-.78,7.72-3.82,7.72-3.82l-3.07,8h0a1.83,1.83,0,0,1-.86,1l-88.61,51.16a6.1,6.1,0,0,1-5.49-.23L25.27,187.52A2.65,2.65,0,0,1,24,186.2h0Z"/><path class="cls-41" d="M22.26,178.77l152.19,87.87a6.26,6.26,0,0,0,5.63.23l90.82-52.43c1.44-.83,1.26-2.29-.4-3.25L118.3,123.32a6.26,6.26,0,0,0-5.63-.23L21.86,175.52C20.41,176.35,20.59,177.8,22.26,178.77Z"/><path class="cls-42" d="M220.35,247.62V246c0-.16-.1-.23-.21-.16l-5.89,3.4a.51.51,0,0,0-.21.41v1.67c0,.16.1.23.21.16l5.89-3.4A.51.51,0,0,0,220.35,247.62Z"/><path class="cls-42" d="M211.55,252.71V251c0-.16-.1-.23-.21-.16l-5.89,3.4a.51.51,0,0,0-.21.41v1.67c0,.16.1.23.21.16l5.89-3.4A.51.51,0,0,0,211.55,252.71Z"/><path class="cls-43" d="M247.22,209.52l-126.47-73a2.72,2.72,0,0,0-2.72,0L73,162.56a1,1,0,0,0,0,1.68l126.41,73a2.72,2.72,0,0,0,2.72,0l45.1-26A1,1,0,0,0,247.22,209.52Z"/><path class="cls-44" d="M247.22,211.2l-.45.26-126-72.76a2.72,2.72,0,0,0-2.72,0L73.44,164.5l-.45-.26a1,1,0,0,1,0-1.68l45-26.06a2.72,2.72,0,0,1,2.72,0l126.47,73A1,1,0,0,1,247.22,211.2Z"/><polygon class="cls-37" points="114.63 143.1 224.48 206.53 229.37 203.71 119.51 140.28 114.63 143.1"/><polygon class="cls-37" points="102.65 150.02 205.69 209.51 210.58 206.69 107.53 147.2 102.65 150.02"/><polygon class="cls-37" points="94.85 154.52 216.17 224.56 221.06 221.75 99.73 151.7 94.85 154.52"/><polygon class="cls-37" points="87.05 159.02 208.37 229.07 213.25 226.25 91.94 156.2 87.05 159.02"/><polygon class="cls-37" points="79.25 163.53 200.57 233.57 205.46 230.75 84.14 160.71 79.25 163.53"/><polygon class="cls-37" points="231.12 210.36 236 213.18 240.89 210.36 236 207.54 231.12 210.36"/><polygon class="cls-37" points="213.89 214.24 224.03 220.1 228.91 217.28 218.78 211.42 213.89 214.24"/><path class="cls-45" d="M115.88,227.19,81.78,207.5c-1.33-.77-1.33-2,0-2.79l23.32-13.46a5.33,5.33,0,0,1,4.83,0L144,210.94c1.33.77,1.33,2,0,2.79l-23.32,13.46A5.33,5.33,0,0,1,115.88,227.19Z"/><path class="cls-44" d="M144,212.08l-34.1-19.69a5.33,5.33,0,0,0-4.83,0L81.78,205.86a2.09,2.09,0,0,0-.84.82c-.35-.67-.08-1.43.84-2l23.32-13.46a5.33,5.33,0,0,1,4.83,0L144,210.94c.92.53,1.19,1.29.84,2A2.09,2.09,0,0,0,144,212.08Z"/><g class="cls-46"><g class="cls-47"><path class="cls-48" d="M118.15,123.13,270.34,211a6.26,6.26,0,0,0,5.63.23l90.82-52.43c1.44-.83,1.26-2.29-.4-3.25L214.19,67.69a6.26,6.26,0,0,0-5.63-.23l-90.82,52.43C116.31,120.72,116.49,122.17,118.15,123.13Z"/><path class="cls-49" d="M270.79,138.89l-34.1-19.69c-1.33-.77-1.33-2,0-2.79L260,103a5.33,5.33,0,0,1,4.83,0l34.1,19.69c1.33.77,1.33,2,0,2.79l-23.32,13.46A5.33,5.33,0,0,1,270.79,138.89Z"/><path class="cls-44" d="M298.94,123.78l-34.1-19.69a5.33,5.33,0,0,0-4.83,0l-23.32,13.46a2.09,2.09,0,0,0-.84.82c-.35-.67-.08-1.43.84-2L260,103a5.33,5.33,0,0,1,4.83,0l34.1,19.69c.92.53,1.19,1.29.84,2A2.09,2.09,0,0,0,298.94,123.78Z"/><path class="cls-43" d="M313.93,169.66l-126.47-73a2.72,2.72,0,0,0-2.72,0l-45,26.06a1,1,0,0,0,0,1.68l126.41,73a2.72,2.72,0,0,0,2.72,0l45.1-26A1,1,0,0,0,313.93,169.66Z"/><path class="cls-44" d="M313.93,171.34l-.45.26-126-72.76a2.72,2.72,0,0,0-2.72,0l-44.58,25.79-.45-.26a1,1,0,0,1,0-1.68l45-26.06a2.72,2.72,0,0,1,2.72,0l126.47,73A1,1,0,0,1,313.93,171.34Z"/><polygon class="cls-37" points="151.49 120.92 261.66 184.53 257.3 187.05 147.12 123.44 151.49 120.92"/><polygon class="cls-37" points="163.09 114.22 267.82 174.68 263.45 177.2 158.73 116.74 163.09 114.22"/><polygon class="cls-37" points="275.64 179.19 285.42 184.84 281.05 187.36 271.27 181.71 275.64 179.19"/><polygon class="cls-37" points="267 187.61 273.81 191.54 269.44 194.06 262.63 190.13 267 187.61"/><polygon class="cls-37" points="170.37 110.02 292.69 180.64 288.33 183.16 166 112.54 170.37 110.02"/><polygon class="cls-37" points="177.64 105.82 299.96 176.44 295.6 178.96 173.28 108.34 177.64 105.82"/><polygon class="cls-37" points="184.92 101.62 307.24 172.24 302.87 174.76 180.55 104.14 184.92 101.62"/></g></g><polygon class="cls-50" points="273.93 102.35 276.86 104.22 277.21 102.05 274.29 100.18 273.93 102.35"/><polygon class="cls-50" points="271.54 117.02 274.46 118.89 276.53 106.2 273.61 104.33 271.54 117.02"/><polygon class="cls-50" points="270.39 124.04 273.31 125.91 274.14 120.87 271.21 119 270.39 124.04"/><polygon class="cls-50" points="269.2 131.31 272.13 133.18 272.95 128.14 270.03 126.27 269.2 131.31"/><polygon class="cls-50" points="268.43 106.58 271.35 108.45 272.18 103.41 269.25 101.54 268.43 106.58"/><polygon class="cls-50" points="266.86 116.21 269.78 118.08 270.99 110.68 268.06 108.81 266.86 116.21"/><polygon class="cls-50" points="265.41 125.08 268.33 126.95 269.37 120.6 266.44 118.73 265.41 125.08"/><polygon class="cls-50" points="268.02 138.58 270.94 140.45 271.76 135.41 268.84 133.54 268.02 138.58"/><polygon class="cls-50" points="269.57 99.57 272.5 101.43 272.85 99.27 269.93 97.4 269.57 99.57"/><polygon class="cls-50" points="264.69 144.25 269.79 147.51 270.13 145.4 265.03 142.14 264.69 144.25"/></g></g></svg>