<?xml version="1.0" encoding="utf-8"?>
<!-- Generator: Adobe Illustrator 21.1.0, SVG Export Plug-In . SVG Version: 6.00 Build 0)  -->
<svg version="1.1" id="Layer_1" xmlns="http://www.w3.org/2000/svg" xmlns:xlink="http://www.w3.org/1999/xlink" x="0px" y="0px"
	 viewBox="0 0 2500 2500" style="enable-background:new 0 0 2500 2500;" xml:space="preserve">
<style type="text/css">
	.st0{fill:#FFFFFF;}
</style>
<g>
	<path class="st0" d="M1566.8,2031.3c19.5,28.2,31.5,26,46.7,19.5c15.2-6.5,796.4-270.2,820.3-278.9c23.9-8.7,16.3-16.3,8.7-28.2
		c-7.6-11.9-268-365.7-281-386.3c-13-20.6-19.5-16.3-40.1-9.8l-828.2,215.5C1293.1,1563.2,1547.3,2003,1566.8,2031.3z M2500,1671
		v-414c-93.2,24.8-211,56.2-257.5,68.6C2312.6,1419.5,2422.4,1566.5,2500,1671z M2241.7,815.6c-12.8,2.9-295.4,54-312.8,56.3
		c-17.4,2.3-11.6,12.2-4.6,22.1l248.7,341.2c0,0,304.1-75.4,322.7-79.5c1.5-0.3,3-0.7,4.4-1v-45.2
		c-55.3-70.1-205.9-260.9-218.9-278.8C2265.5,809.3,2254.4,812.7,2241.7,815.6L2241.7,815.6z"/>
	<path class="st0" d="M463.4,279.6c61.2-2.8,66.8,11.1,93.7,51L1232.6,1460l849.4-203.5c-47.1-66.7-260.7-369.6-281.3-398.5
		c-23.2-32.5,0.6-47.6,38.3-54c37.7-6.4,362.7-60.9,390.5-65c27.9-4.1,49.9-13.9,95.2,40.6c23.2,27.9,101.7,125.7,175.4,217.3V468.8
		c0-129.1-45.8-239.5-137.5-331.2C2270.8,45.8,2160.4,0,2031.3,0H468.8C339.6,0,229.2,45.8,137.5,137.5
		c-52.6,52.6-90,111.4-112.4,176.3C178.2,301.2,420.6,281.6,463.4,279.6L463.4,279.6z"/>
	<path class="st0" d="M1643.4,2183.2c-71.6,21.7-103.7,32.5-150.4-32.6c-34.9-48.8-223.9-389.1-316.5-556.9
		c-175.3,45.9-496.2,129.7-588.8,151.9c-90.3,21.7-128.9-32.5-143.7-65.8c-10.4-23.4-275.2-594.3-444-960.6v1312
		c0,129.1,45.8,239.5,137.5,331.2c91.7,91.7,202.1,137.5,331.2,137.5h1562.5c129.1,0,239.5-45.8,331.2-137.5
		c91.7-91.7,137.5-202.1,137.5-331.2v-154.1C2308.2,1947.3,1691.7,2168.6,1643.4,2183.2z"/>
	<path class="st0" d="M590,1614.1c25.4-5.8,501.1-119.7,511.3-121.8c10.2-2.2,16.7-8,5.8-26.8c-10.9-18.8-634.1-1094.6-634.1-1094.6
		c-5.8-9.9-4.1-13.2-19.7-12.3c-13.9,0.7-366.6,32.2-448.2,39c-2.4,17.3-3.9,34.6-4.5,52.1C83.3,619.3,559,1600.3,561.7,1608.3
		C564.6,1617,564.6,1619.9,590,1614.1L590,1614.1z"/>
</g>
</svg>
