<?xml version="1.0" encoding="utf-8"?>
<!-- Generator: Adobe Illustrator 21.1.0, SVG Export Plug-In . SVG Version: 6.00 Build 0)  -->
<svg version="1.1" id="Layer_1" xmlns="http://www.w3.org/2000/svg" xmlns:xlink="http://www.w3.org/1999/xlink" x="0px" y="0px"
	 viewBox="0 0 657.8 662" style="enable-background:new 0 0 657.8 662;" xml:space="preserve">
<style type="text/css">
	.st0{fill:#006699;}
	.st1{fill:#FFFFFF;}
</style>
<g>
	<polygon class="st0" points="0,47.4 0,47.4 0,47.4 	"/>
	<path class="st1" d="M609.2,0H48.6C21.8,0,0,21.2,0,47.4v567.2C0,640.8,21.8,662,48.6,662h560.6c26.9,0,48.6-21.2,48.6-47.4V47.4
		C657.8,21.2,636.1,0,609.2,0z M100.1,554.2V255.2h99.4v298.9H100.1z M149.8,214.4L149.8,214.4h-0.7c-33.3,0-54.9-23-54.9-51.6
		c0-29.3,22.2-51.7,56.2-51.7c34,0,54.9,22.3,55.5,51.7C206,191.5,184.4,214.4,149.8,214.4z M557.7,554.2h-99.4V394.3
		c0-40.2-14.4-67.6-50.3-67.6c-27.5,0-43.8,18.5-51,36.3c-2.6,6.4-3.3,15.3-3.3,24.2v166.9h-99.4l0,0c0,0,1.3-270.9,0-298.9h99.4
		v42.3c13.2-20.4,36.8-49.3,89.5-49.3c65.4,0,114.4,42.7,114.4,134.5V554.2z"/>
</g>
</svg>
