<svg xmlns="http://www.w3.org/2000/svg" xmlns:xlink="http://www.w3.org/1999/xlink" viewBox="0 0 501.3 532.44"><defs><style>.cls-1{fill:none;}.cls-2{isolation:isolate;}.cls-3{fill:#3554ef;}.cls-4{fill:#1afba6;}.cls-10,.cls-11,.cls-12,.cls-13,.cls-5,.cls-6,.cls-7,.cls-8,.cls-9{opacity:0.18;}.cls-5{fill:url(#linear-gradient);}.cls-6{fill:url(#linear-gradient-2);}.cls-7{fill:url(#linear-gradient-3);}.cls-8{fill:url(#linear-gradient-4);}.cls-9{fill:url(#linear-gradient-5);}.cls-10{fill:url(#linear-gradient-6);}.cls-11{fill:url(#linear-gradient-7);}.cls-12{fill:url(#linear-gradient-8);}.cls-13{fill:url(#linear-gradient-9);}.cls-14{opacity:0.61;fill:url(#linear-gradient-10);}.cls-15{opacity:0.65;fill:url(#linear-gradient-11);}.cls-16{mix-blend-mode:overlay;fill:url(#linear-gradient-12);}.cls-17{opacity:0.74;fill:url(#linear-gradient-13);}.cls-18{opacity:0.3;}.cls-19{clip-path:url(#clip-path);}.cls-20{fill:url(#radial-gradient);}</style><linearGradient id="linear-gradient" x1="96.85" y1="230.43" x2="98.84" y2="230.43" gradientUnits="userSpaceOnUse"><stop offset="0" stop-color="#1e256b" stop-opacity="0"/><stop offset="1" stop-color="#1e256b"/></linearGradient><linearGradient id="linear-gradient-2" x1="96.62" y1="228.8" x2="96.63" y2="228.8" xlink:href="#linear-gradient"/><linearGradient id="linear-gradient-3" x1="96.63" y1="228.96" x2="96.85" y2="228.96" xlink:href="#linear-gradient"/><linearGradient id="linear-gradient-4" x1="100.91" y1="270.27" x2="215.58" y2="270.27" xlink:href="#linear-gradient"/><linearGradient id="linear-gradient-5" x1="185.12" y1="152.04" x2="228.99" y2="152.04" xlink:href="#linear-gradient"/><linearGradient id="linear-gradient-6" x1="233.11" y1="236.25" x2="406.42" y2="236.25" xlink:href="#linear-gradient"/><linearGradient id="linear-gradient-7" x1="315.08" y1="398.37" x2="319.14" y2="398.37" xlink:href="#linear-gradient"/><linearGradient id="linear-gradient-8" x1="203.68" y1="413.17" x2="319.34" y2="413.17" xlink:href="#linear-gradient"/><linearGradient id="linear-gradient-9" x1="187.85" y1="117.84" x2="278.57" y2="117.84" xlink:href="#linear-gradient"/><linearGradient id="linear-gradient-10" x1="440.96" y1="319.09" x2="230.4" y2="312.67" xlink:href="#linear-gradient"/><linearGradient id="linear-gradient-11" x1="384.03" y1="388.71" x2="321.12" y2="371.38" xlink:href="#linear-gradient"/><linearGradient id="linear-gradient-12" x1="128.98" y1="143.46" x2="211.65" y2="226.13" gradientUnits="userSpaceOnUse"><stop offset="0" stop-color="#25e7f8" stop-opacity="0"/><stop offset="1" stop-color="#25e7f8"/></linearGradient><linearGradient id="linear-gradient-13" x1="110.02" y1="192.11" x2="197.33" y2="133.05" gradientUnits="userSpaceOnUse"><stop offset="0.09" stop-color="#fff" stop-opacity="0"/><stop offset="1" stop-color="#fff"/></linearGradient><clipPath id="clip-path"><circle class="cls-1" cx="250.65" cy="266.22" r="174.64"/></clipPath><radialGradient id="radial-gradient" cx="250.88" cy="267.92" r="174.63" gradientTransform="matrix(0, 1.06, -1.8, 0, 734.02, -0.17)" gradientUnits="userSpaceOnUse"><stop offset="0.6" stop-color="#3554ef" stop-opacity="0"/><stop offset="1" stop-color="#3554ef"/></radialGradient></defs><title>Asset 1</title><g class="cls-2"><g id="Layer_2" data-name="Layer 2"><g id="OBJECTS"><circle class="cls-3" cx="250.65" cy="266.22" r="162.34"/><path class="cls-4" d="M96.85,229.1h0l2,2.65Z"/><path class="cls-5" d="M96.85,229.1h0l2,2.65Z"/><path class="cls-4" d="M96.63,228.81Z"/><path class="cls-6" d="M96.63,228.81Z"/><path class="cls-4" d="M96.63,228.81l.22.3h0Z"/><path class="cls-7" d="M96.63,228.81l.22.3h0Z"/><path class="cls-4" d="M139.68,340.71c5.27,11,17.44,8,25.7,19.32,4.67,6.4,4.7,5.58,5.3,13,.53,6.55-8.29,14.75-.35,20.9,11.75,9.1,30.46-41,32.73-52,2.49-12-1.17-19.93,5.6-31.18,7.9-13.12,22.13-18.92,5.87-32.75-8.71-7.41-20.87-8.56-31.64-9-9.44-.38-28.48,2.7-36.88-1.46-5.25-2.6-4.64-8-8.26-10.26-2.56-1.59-10.15-.88-12.08-2.63-13.68-12.39.42-8.75,7.62-15.25,4.12-3.72,2.9-7,5.74-9.91,1.9-1.94,5.69-5.73,7.27-7.49,10.89-12.11,23.05-10.67,35.78-17.93,17.68-10.09,8.47-16.36-1.28-25.77-4.28-4.13-12.21-11-15.34-15.86-2.16-3.31-1-11-4.53-13.13-3-2.21-13.1-4.65-19.65-3.15a162.32,162.32,0,0,0-46.94,76,13.49,13.49,0,0,0,2.49,6.92l2,2.65-2-2.65c8.37,11.19-1.61,24.51,1.78,36.6,5.9,21,11.8,11.2,26.05,14.17,10.71,2.23,11.51,10.32,14.68,21.27C143,313.64,133.56,328,139.68,340.71Z"/><path class="cls-8" d="M173.69,388.35c-.49-.64-.32-1.66,1.2-5.58,1.17-3,2.51-6.46,2.2-10.24-.62-7.64-1.1-9-5.12-14.4l-1.39-1.89c-5-6.91-11.23-9.58-16.2-11.72-4.75-2-7.3-3.27-8.9-6.6-2.45-5.09-1.42-11-.24-17.82s2.36-13.64.31-20.75c-.38-1.3-.72-2.56-1-3.77-2.57-9.46-5.23-19.24-18.49-22a36.4,36.4,0,0,0-7.51-.76c-2,0-3.68.14-5.21.25-1.14.09-2.12.17-2.94.17-1.37,0-2.92,0-5.52-9.28-1-3.7-.24-8.15.61-12.87,1.22-6.83,2.71-15.15-1.63-23.05l.18-.14-2-2.66a6.32,6.32,0,0,1-1.08-2.61,155.7,155.7,0,0,1,43.33-70.38c.52,0,1.08-.07,1.67-.07a28.66,28.66,0,0,1,11,2.25,27.64,27.64,0,0,1,.63,3.3c.4,2.68.86,5.73,2.52,8.28,2.9,4.45,8.62,9.8,13.21,14.1,1.12,1,2.17,2,3,2.88s1.65,1.58,2.46,2.34c2.51,2.37,6.72,6.34,6.86,7.82h0s-.57,1.89-6.76,5.42a63.89,63.89,0,0,1-13,5.18c-7.73,2.45-16.49,5.22-24.42,14-1.06,1.18-3.38,3.52-5.23,5.41l-1.86,1.89a15.77,15.77,0,0,0-3.71,6.57,5.7,5.7,0,0,1-1.74,3.06c-1.38,1.24-3.76,2-5.86,2.74-3.53,1.18-8.36,2.79-9.45,8-1.16,5.53,3.36,10.17,7.68,14.09,2.57,2.33,6.06,2.67,9.76,3,1,.09,2.43.24,3.25.4.23.37.54,1,.79,1.54,1.23,2.58,3.09,6.48,8,8.91,4,2,9.46,2.87,17.32,2.87,4,0,8.27-.23,12-.44,3.19-.17,6.2-.34,8.61-.34.54,0,1.06,0,1.54,0,9.63.38,20.5,1.31,27.73,7.46,2.06,1.76,5.48,5,5.17,7.18-.27,1.91-2.79,4.91-5.24,7.81a74.39,74.39,0,0,0-7.15,9.56c-5.16,8.56-5.3,15.57-5.44,22.34a56.54,56.54,0,0,1-.95,10.84c-.88,4.24-4.86,16.09-10,27.3C180.3,381.94,175.61,387.08,173.69,388.35Z"/><path class="cls-4" d="M233.3,149.7c-7.41-5.26-22.23-10.58-28-10.19-9.68.66-30.77,10-25.94,20.57,4.17,9.13,13.66,1.77,21.39.55,5.79-.92,26.63,1.58,34.61-.41a3.47,3.47,0,0,0,2.26-4.81A16.58,16.58,0,0,0,233.3,149.7Z"/><path class="cls-9" d="M185.89,158.17h-.22a3.54,3.54,0,0,1-.43-.74c-.14-.32-.28-.62.26-1.53,2.69-4.52,13.89-9.53,20.28-10H206c4.42,0,16.53,4.27,23,8.61-1,0-2.18.07-3.56.07h0c-3.62,0-7.59-.16-11.43-.32-3.39-.14-6.59-.27-9.2-.27a32.9,32.9,0,0,0-5,.29,43.89,43.89,0,0,0-7.74,2.21C189.84,157.29,187.33,158.17,185.89,158.17Z"/><path class="cls-4" d="M355.46,142.26c-13.2,1.78-9.5,10.56-19.92,17.42-11.7,7.7-29.64,2.6-42.26,3.25-15.4.8-30.13-2.87-45.35,1.22-7.86,2.11-20.53,2.57-21.85,11.44.08-.51,7.94,16.81,8.23,17.19,7.5,9.92,29.8,13.77,24.91,27.08C254,233.94,224,229,229,245.71c3.67,12.41,12.49,3.85,19.94,7.67,5.95,3,11.24,8.78,15.59,14.05,8.83,10.71,9.75,17.19,9.9,31.07.19,17.44.61,41.91,25.21,26.21,17.21-11,18.08-33,21.68-50.82.65-3.2,1-23.75,3.76-25.08,10.32-5,7.87,9.48,12.46,10.81,13.12,3.81,12.68-11.73,26,4.19,5.4,6.43,11.3,29.17,20.82,29.32,5,.08,8.71-10.95,10.61-13.65,3.61-5.14,15.2-12.88,17.93-18.08A162,162,0,0,0,355.46,142.26Z"/><path class="cls-10" d="M286.38,323.33c-5.31,0-5.49-16.81-5.58-24.89-.16-14.66-1.33-22.9-11.37-35.08-4.43-5.37-10.43-12-17.62-15.68a17,17,0,0,0-7.94-1.78,41,41,0,0,0-4.24.28c-1,.1-1.91.19-2.64.19a3.12,3.12,0,0,1-.86-.08,7.64,7.64,0,0,1-1-2.39c-.7-2.38-1-3.27,9.5-6.79,7.67-2.58,17.23-5.8,20.62-15,4.94-13.43-7.35-20.73-15.48-25.57-3.9-2.32-7.92-4.71-10-7.21-.44-.92-1.42-3-2.3-4.93-1.85-4-3.22-6.93-4.31-9.11,1.83-1.84,6.84-2.85,11-3.69,1.83-.37,3.73-.76,5.47-1.22a57.76,57.76,0,0,1,15.24-1.75c3.73,0,7.44.2,11.37.42s8.09.45,12.28.45c1.81,0,3.49,0,5.14-.13.69,0,1.4-.05,2.13-.05,2.93,0,6.19.25,9.65.51,3.88.3,7.88.6,11.93.6,5.83,0,14.44-.56,21.74-5.37a30.2,30.2,0,0,0,10-11.14c1.59-2.72,2.34-4,4.6-4.73a156.12,156.12,0,0,1,52.78,110.38,79.61,79.61,0,0,1-7.32,6.91c-3.74,3.26-7.28,6.35-9.37,9.33a32.33,32.33,0,0,0-2.28,4.16,42.16,42.16,0,0,1-3.66,6.43c-2.66-1.9-6.84-10.83-8.71-14.83-2.28-4.87-4.26-9.08-6.6-11.88-4-4.76-8.92-9.63-15.15-9.63a15.79,15.79,0,0,0-7.72,2.36c-1.73.92-2.7,1.4-4,1.4a6.31,6.31,0,0,1-.72,0c-.16-.45-.32-1-.44-1.36-1.14-3.6-3.51-11.08-11.58-11.08a15,15,0,0,0-6.59,1.7c-4.86,2.37-5.68,8.2-6.81,24.27-.15,2.09-.33,4.68-.44,5.34-.59,2.9-1.11,6-1.62,8.93-2.53,14.76-5.15,30-17.22,37.73C290.66,322.8,287.67,323.33,286.38,323.33Z"/><path class="cls-4" d="M317.65,398.51Z"/><path class="cls-11" d="M317.65,398.51Z"/><path class="cls-4" d="M320.81,412.65c7-4.6,10.8-10.49-3.16-14.14-13-3.41-22.06,6.29-34.25,7.09-14.48,1-22.23-2.24-36.83,2.68-13,4.38-19.84,3.05-33,1.18-6.5-.92-26-3-32.2,3.6a162.66,162.66,0,0,0,139.43-.41Z"/><path class="cls-12" d="M250.65,422.14a155.05,155.05,0,0,1-47-7.19c3.77.2,7.08.61,9,.88l2,.29a108.54,108.54,0,0,0,15.59,1.52,55.43,55.43,0,0,0,18.32-3.27A45,45,0,0,1,264,411.87c1.94,0,3.9.08,6,.16,2.33.09,4.74.19,7.4.19,2.22,0,4.32-.07,6.41-.2,6-.4,11.25-2.53,15.86-4.4s8.36-3.4,12.41-3.4a15.22,15.22,0,0,1,3.92.51,26.72,26.72,0,0,1,3.32,1.07c-.44.36-1,.78-1.7,1.26A154.46,154.46,0,0,1,250.65,422.14Z"/><path class="cls-4" d="M257.31,123.26c10.24-2.9,18.44-4.94,29-3.74,14.22,1.62,21.68,1.09,35.18.59a162.67,162.67,0,0,0-136.16-2.54c-6.46,4.25-9.26,9.62,4.18,13.39-1.45-.41-2.53-.71,0,0,4.58,1.28,2,.55,0,0,13,3.64,22-5.91,34.36-6.52C237.37,123.79,244,127,257.31,123.26Z"/><path class="cls-13" d="M195.46,125.38a15.41,15.41,0,0,1-4.21-.59h0a28.41,28.41,0,0,1-3.38-1.15l.57-.41a154.78,154.78,0,0,1,62.22-12.92,157.2,157.2,0,0,1,27.92,2.47c-8,.23-15.17,2.09-23,4.31a40.07,40.07,0,0,1-11.37,1.62c-2.29,0-4.59-.16-7-.34-2.78-.2-5.94-.43-9.51-.43-1.39,0-2.73,0-4.1.1-6.12.3-11.39,2.36-16,4.17-4.37,1.7-8.14,3.17-12.06,3.17Z"/><path class="cls-14" d="M400,202.5a48.91,48.91,0,0,1-22.64,22.13c-25.68,12.84-55.21,11.56-80.89,23.11-27,12.84-42.37,39.8-51.36,68-10.27,37.23-28.25,78.32-68,87.31q-5.16,1.29-10.24,2.16A162.39,162.39,0,0,0,400,202.5Z"/><path class="cls-15" d="M309.31,356.87C299,376.13,299,399.24,283.63,415.93a56.52,56.52,0,0,1-15.56,11.69A162.47,162.47,0,0,0,402.64,323.34C370.59,310.78,328.49,324.9,309.31,356.87Z"/><path class="cls-16" d="M272.72,185.48c28.25-43.22,11-73.84-10.81-81.2-3.72-.25-7.47-.4-11.26-.4A162.34,162.34,0,0,0,88.31,266.22c0,4.89.23,9.73.65,14.51C182.84,210.16,234.34,244.2,272.72,185.48Z"/><path class="cls-17" d="M133.41,200.23c12.84-27,38.52-38.52,65.48-48.79,11.56-5.14,20.54-19.26,16.69-33.38a25.43,25.43,0,0,0-6.45-8.81,162.69,162.69,0,0,0-110.4,99.66c2.16.65,4.33,1.18,6.43,1.6C116.72,211.79,128.28,210.5,133.41,200.23Z"/><g class="cls-18"><g class="cls-19"><ellipse class="cls-20" cx="250.65" cy="266.22" rx="315.08" ry="185.42" transform="matrix(0.66, -0.75, 0.75, 0.66, -114.81, 277.89)"/></g></g></g></g></g></svg>