<svg width="512" height="512" viewBox="0 0 512 512" fill="none" xmlns="http://www.w3.org/2000/svg">
<path d="M192 384H320V448H192V384Z" fill="#656ACD"/>
<path d="M400 128H368V72C368 67.584 364.416 64 360 64H152C147.584 64 144 67.584 144 72V128H112C103.2 128 96 135.2 96 144V352C96 360.8 103.2 368 112 368H400C408.8 368 416 360.8 416 352V144C416 135.2 408.8 128 400 128ZM352 304H160V128H352V304Z" fill="#656ACD"/>
<path d="M424 96H368V72C368 67.584 364.416 64 360 64H152C149.88 64 147.84 64.848 146.344 66.344C144.848 67.84 144 69.88 144 72V96H87.992C74.76 96 64 106.768 64 120V232C64 236.416 67.584 240 72 240C76.416 240 80 236.416 80 232V120C80 115.592 83.584 112 87.992 112H144V120V128H111.992C103.168 128 95.992 135.176 95.992 144V352C95.992 360.824 103.168 368 111.992 368H400C408.824 368 416 360.824 416 352V144C416 135.176 408.824 128 400 128H368V112H424C428.408 112 432 115.592 432 120V376C432 380.408 428.408 384 424 384H87.992C83.584 384 80 380.408 80 376V280C80 275.584 76.416 272 72 272C67.584 272 64 275.584 64 280V376C64 389.232 74.76 400 87.992 400H192V432H120C115.584 432 112 435.584 112 440C112 444.416 115.584 448 120 448H392C396.416 448 400 444.416 400 440C400 435.584 396.416 432 392 432H320V400H424C437.232 400 448 389.232 448 376V120C448 106.768 437.232 96 424 96ZM280 112H160V80H352V104V112H328C323.584 112 320 115.584 320 120C320 124.416 323.584 128 328 128H352V304H160V128H280C284.416 128 288 124.416 288 120C288 115.584 284.416 112 280 112ZM400 144V352H111.992V144H144V312C144 316.416 147.584 320 152 320H360H360.16C364.576 320 368.16 316.416 368.16 312C368.16 311.456 368.104 310.92 368 310.4V144H400ZM304 432H208V400H304V432Z" fill="#302A96"/>
<path d="M192 184C192 188.416 195.584 192 200 192H312C316.416 192 320 188.416 320 184C320 179.584 316.416 176 312 176H200C195.584 176 192 179.584 192 184Z" fill="#302A96"/>
<path d="M200 224H280C284.416 224 288 220.416 288 216C288 211.584 284.416 208 280 208H200C195.584 208 192 211.584 192 216C192 220.416 195.584 224 200 224Z" fill="#302A96"/>
<path d="M312 240H200C195.584 240 192 243.584 192 248C192 252.416 195.584 256 200 256H312C316.416 256 320 252.416 320 248C320 243.584 316.416 240 312 240Z" fill="#302A96"/>
<path d="M304 128C308.418 128 312 124.418 312 120C312 115.582 308.418 112 304 112C299.582 112 296 115.582 296 120C296 124.418 299.582 128 304 128Z" fill="#302A96"/>
<path d="M72 264C76.4183 264 80 260.418 80 256C80 251.582 76.4183 248 72 248C67.5817 248 64 251.582 64 256C64 260.418 67.5817 264 72 264Z" fill="#302A96"/>
</svg>
