<svg width="512" height="512" viewBox="0 0 512 512" fill="none" xmlns="http://www.w3.org/2000/svg">
<path d="M440.088 64H328.088C323.688 64 320.088 67.6 320.088 72V184C320.088 188.4 323.688 192 328.088 192H440.088C444.488 192 448.088 188.4 448.088 184V72C448.088 67.6 444.48 64 440.088 64Z" fill="#656ACD"/>
<path d="M440.088 320H328.088C323.688 320 320.088 323.6 320.088 328V440C320.088 444.4 323.688 448 328.088 448H440.088C444.488 448 448.088 444.4 448.088 440V328C448.088 323.6 444.48 320 440.088 320Z" fill="#656ACD"/>
<path d="M72 320H184C188.4 320 192 316.4 192 312V200C192 195.6 188.4 192 184 192H72C67.6 192 64 195.6 64 200V312C64 316.4 67.6 320 72 320Z" fill="#656ACD"/>
<path d="M440.088 64H328.088C323.664 64 320.088 67.584 320.088 72V112.04H263.952C259.536 112.04 255.952 115.624 255.952 120.04V248H192V200V160C192 155.584 188.416 152 184 152C179.584 152 176 155.584 176 160V192H72C67.584 192 64 195.584 64 200V312C64 316.416 67.584 320 72 320H176V352C176 356.416 179.584 360 184 360C188.416 360 192 356.416 192 352V312V264H255.952V391.96C255.952 396.376 259.536 399.96 263.952 399.96H320.088V440C320.088 444.416 323.664 448 328.088 448H440.088C444.512 448 448.088 444.416 448.088 440V408C448.088 403.584 444.512 400 440.088 400C435.664 400 432.088 403.584 432.088 408V432H336.088V336H432.088V360C432.088 364.416 435.664 368 440.088 368C444.512 368 448.088 364.416 448.088 360V328C448.088 323.584 444.512 320 440.088 320H328.088C323.664 320 320.088 323.584 320.088 328V383.96H271.952V264H320V296C320 300.416 323.576 304 328 304C332.424 304 336 300.416 336 296V216C336 211.584 332.424 208 328 208C323.576 208 320 211.584 320 216V248H271.952V128.04H320.088V184C320.088 188.416 323.664 192 328.088 192H440.088C444.512 192 448.088 188.416 448.088 184V152C448.088 147.584 444.512 144 440.088 144C435.664 144 432.088 147.584 432.088 152V176H336.088V80H432.088V104C432.088 108.416 435.664 112 440.088 112C444.512 112 448.088 108.416 448.088 104V72C448.088 67.584 444.504 64 440.088 64V64ZM176 304H80V208H176V304Z" fill="#302A96"/>
<path d="M440 136C444.418 136 448 132.418 448 128C448 123.582 444.418 120 440 120C435.582 120 432 123.582 432 128C432 132.418 435.582 136 440 136Z" fill="#302A96"/>
<path d="M440 392C444.418 392 448 388.418 448 384C448 379.582 444.418 376 440 376C435.582 376 432 379.582 432 384C432 388.418 435.582 392 440 392Z" fill="#302A96"/>
<path d="M184 384C188.418 384 192 380.418 192 376C192 371.582 188.418 368 184 368C179.582 368 176 371.582 176 376C176 380.418 179.582 384 184 384Z" fill="#302A96"/>
<path d="M184 144C188.418 144 192 140.418 192 136C192 131.582 188.418 128 184 128C179.582 128 176 131.582 176 136C176 140.418 179.582 144 184 144Z" fill="#302A96"/>
</svg>
