<svg xmlns="http://www.w3.org/2000/svg" viewBox="0 0 168.05 48.93"><defs><style>.cls-1{fill:#fff;}</style></defs><title>Asset 1</title><g id="Layer_2" data-name="Layer 2"><g id="Layer_2-2" data-name="Layer 2"><path class="cls-1" d="M77.83,5.53a2.76,2.76,0,0,1-1-2.16,2.76,2.76,0,0,1,1-2.16A3.67,3.67,0,0,1,80.36.35a3.77,3.77,0,0,1,2.54.81,2.63,2.63,0,0,1,.95,2.1A2.92,2.92,0,0,1,82.9,5.5a3.59,3.59,0,0,1-2.54.88A3.67,3.67,0,0,1,77.83,5.53Zm0,2h5a.4.4,0,0,1,.4.4V21.47a.4.4,0,0,1-.4.4h-5a.4.4,0,0,1-.4-.4V7.93A.4.4,0,0,1,77.86,7.53Z" transform="translate(0 -0.35)"/><path class="cls-1" d="M56.7,35.09a.41.41,0,0,0-.4-.41H51.19a.4.4,0,0,0-.4.4V48.62a.4.4,0,0,0,.4.4h5a.4.4,0,0,0,.4-.4V42a3.2,3.2,0,0,1,.5-2,1.61,1.61,0,0,1,1.32-.63Q60,39.4,60,41.86v6.75a.4.4,0,0,0,.4.4h5a.4.4,0,0,0,.4-.4V42a3.19,3.19,0,0,1,.5-2,1.61,1.61,0,0,1,1.32-.63q1.56,0,1.57,2.46v6.75a.4.4,0,0,0,.4.4h5a.4.4,0,0,0,.4-.4V40.84A6.75,6.75,0,0,0,73.43,36a5.36,5.36,0,0,0-4.07-1.6,6.17,6.17,0,0,0-2.64.56A5.69,5.69,0,0,0,65,36.22a.4.4,0,0,1-.62,0A4.41,4.41,0,0,0,62.82,35a5.85,5.85,0,0,0-2.54-.54,5.36,5.36,0,0,0-3.59,1.28Z" transform="translate(0 -0.35)"/><path class="cls-1" d="M17.89,2.66V21.21a.4.4,0,0,1-.4.4H13.1a.4.4,0,0,1-.31-.15l-6-7.32a.4.4,0,0,0-.71.25v6.81a.4.4,0,0,1-.4.4H.58a.4.4,0,0,1-.4-.4V2.66a.4.4,0,0,1,.4-.4H5a.4.4,0,0,1,.32.16l6,8.18a.4.4,0,0,0,.72-.24V2.66a.4.4,0,0,1,.4-.4h5.1A.4.4,0,0,1,17.89,2.66Z" transform="translate(0 -0.35)"/><path class="cls-1" d="M35.49,15.81H25.74a2.4,2.4,0,0,0,1,1.24,3.43,3.43,0,0,0,1.8.43,4.45,4.45,0,0,0,1.55-.24,4.91,4.91,0,0,0,1.09-.6.4.4,0,0,1,.52,0l2.51,2.59a.41.41,0,0,1,0,.57,8,8,0,0,1-5.86,2,9.91,9.91,0,0,1-4.46-1,7,7,0,0,1-4-6.49A7.11,7.11,0,0,1,23.78,8a9.21,9.21,0,0,1,8-.08,6.72,6.72,0,0,1,2.8,2.54,7.46,7.46,0,0,1,1,4Q35.57,14.56,35.49,15.81Zm-9.08-4.27A2.38,2.38,0,0,0,25.64,13h4.52a2.43,2.43,0,0,0-.77-1.4A2.2,2.2,0,0,0,27.9,11,2.23,2.23,0,0,0,26.41,11.54Z" transform="translate(0 -0.35)"/><path class="cls-1" d="M47.62,20.78a.4.4,0,0,1-.19.49,7.62,7.62,0,0,1-3.26.6,6.5,6.5,0,0,1-4.54-1.45A5.62,5.62,0,0,1,38,16.05V12.78a.4.4,0,0,0-.4-.4H36.51a.4.4,0,0,1-.4-.4V8.46a.4.4,0,0,1,.4-.4h1.12a.4.4,0,0,0,.4-.4V3.45a.4.4,0,0,1,.4-.4h5a.4.4,0,0,1,.4.4V7.66a.4.4,0,0,0,.4.4h2.07a.4.4,0,0,1,.4.4V12a.4.4,0,0,1-.4.4H44.23a.4.4,0,0,0-.4.4V16a1.46,1.46,0,0,0,.33,1,1.13,1.13,0,0,0,.87.37A2.32,2.32,0,0,0,46,17.2a.39.39,0,0,1,.52.24Z" transform="translate(0 -0.35)"/><path class="cls-1" d="M59.17,20.78a.4.4,0,0,1-.19.49,7.62,7.62,0,0,1-3.26.6,6.5,6.5,0,0,1-4.54-1.45,5.62,5.62,0,0,1-1.59-4.36V12.78a.4.4,0,0,0-.4-.4H48.06a.4.4,0,0,1-.4-.4V8.46a.4.4,0,0,1,.4-.4h1.12a.4.4,0,0,0,.4-.4V3.45A.4.4,0,0,1,50,3h5a.4.4,0,0,1,.4.4V7.66a.4.4,0,0,0,.4.4h2.07a.4.4,0,0,1,.4.4V12a.4.4,0,0,1-.4.4H55.78a.4.4,0,0,0-.4.4V16a1.46,1.46,0,0,0,.33,1,1.13,1.13,0,0,0,.87.37,2.32,2.32,0,0,0,.94-.19.39.39,0,0,1,.52.24Z" transform="translate(0 -0.35)"/><path class="cls-1" d="M63.58,20.91a7.25,7.25,0,0,1-2.91-2.65,7.12,7.12,0,0,1-1.05-3.84,7.05,7.05,0,0,1,4-6.47A9.86,9.86,0,0,1,72,8a7.08,7.08,0,0,1,2.9,2.63,7.18,7.18,0,0,1,1,3.84A7.07,7.07,0,0,1,72,20.91a9.74,9.74,0,0,1-8.42,0Zm5.84-4.4a3.1,3.1,0,0,0,.64-2.08,3,3,0,0,0-.64-2.07,2.21,2.21,0,0,0-3.29,0,3,3,0,0,0-.64,2.07,3.1,3.1,0,0,0,.64,2.08,2.18,2.18,0,0,0,3.29,0Z" transform="translate(0 -0.35)"/><path class="cls-1" d="M84.15,0" transform="translate(0 -0.35)"/><path class="cls-1" d="M101,15.81H91.23a2.4,2.4,0,0,0,1,1.24,3.43,3.43,0,0,0,1.8.43,4.45,4.45,0,0,0,1.55-.24,4.91,4.91,0,0,0,1.09-.6.4.4,0,0,1,.52,0l2.51,2.59a.41.41,0,0,1,0,.57,8,8,0,0,1-5.86,2,9.91,9.91,0,0,1-4.46-1,7,7,0,0,1-4-6.49A7.11,7.11,0,0,1,89.27,8a9.21,9.21,0,0,1,8-.08,6.72,6.72,0,0,1,2.8,2.54,7.46,7.46,0,0,1,1,4Q101.06,14.56,101,15.81ZM91.9,11.54A2.38,2.38,0,0,0,91.13,13h4.52a2.43,2.43,0,0,0-.77-1.4A2.2,2.2,0,0,0,93.38,11,2.23,2.23,0,0,0,91.9,11.54Z" transform="translate(0 -0.35)"/><path class="cls-1" d="M38.62,36.11a6.52,6.52,0,0,1,2,5.2v7.3a.4.4,0,0,1-.4.4H35.58a.4.4,0,0,1-.4-.4V47.13q-1,2.15-4,2.15a6.23,6.23,0,0,1-2.84-.59,4.21,4.21,0,0,1-1.77-1.6,4.33,4.33,0,0,1-.6-2.27,3.67,3.67,0,0,1,1.59-3.22,8.54,8.54,0,0,1,4.83-1.1h2.33q-.28-1.68-2.64-1.68a6.51,6.51,0,0,0-1.92.3,5.71,5.71,0,0,0-1.3.58.4.4,0,0,1-.57-.18l-1.48-3.14a.4.4,0,0,1,.16-.52,10.5,10.5,0,0,1,2.6-1,13.77,13.77,0,0,1,3.4-.43A8.38,8.38,0,0,1,38.62,36.11Zm-4.57,9.26a2,2,0,0,0,.72-1v-1H33.34q-1.77,0-1.77,1.21a1.05,1.05,0,0,0,.37.83,1.48,1.48,0,0,0,1,.33A1.88,1.88,0,0,0,34.05,45.38Z" transform="translate(0 -0.35)"/><path class="cls-1" d="M89.41,36.11a6.52,6.52,0,0,1,2,5.2v7.3a.4.4,0,0,1-.4.4H86.37a.4.4,0,0,1-.4-.4V47.13q-1,2.15-4,2.15a6.23,6.23,0,0,1-2.84-.59,4.21,4.21,0,0,1-1.77-1.6,4.33,4.33,0,0,1-.6-2.27,3.67,3.67,0,0,1,1.59-3.22,8.54,8.54,0,0,1,4.83-1.1h2.33q-.28-1.68-2.64-1.68a6.51,6.51,0,0,0-1.92.3,5.71,5.71,0,0,0-1.3.58.4.4,0,0,1-.57-.18l-1.48-3.14a.4.4,0,0,1,.16-.52,10.5,10.5,0,0,1,2.6-1,13.77,13.77,0,0,1,3.4-.43A8.38,8.38,0,0,1,89.41,36.11Zm-4.57,9.26a2,2,0,0,0,.72-1v-1H84.12q-1.77,0-1.77,1.21a1.05,1.05,0,0,0,.37.83,1.48,1.48,0,0,0,1,.33A1.88,1.88,0,0,0,84.84,45.38Z" transform="translate(0 -0.35)"/><path class="cls-1" d="M94.24,32.68a2.91,2.91,0,0,1,0-4.32,3.67,3.67,0,0,1,2.53-.85,3.77,3.77,0,0,1,2.54.81,2.63,2.63,0,0,1,.95,2.1,2.92,2.92,0,0,1-.95,2.24,3.59,3.59,0,0,1-2.54.88A3.67,3.67,0,0,1,94.24,32.68Zm0,2h5a.4.4,0,0,1,.4.4V48.62a.4.4,0,0,1-.4.4h-5a.4.4,0,0,1-.4-.4V35.08A.4.4,0,0,1,94.27,34.68Z" transform="translate(0 -0.35)"/><path class="cls-1" d="M104.19,48.89a10.81,10.81,0,0,1-2.51-.85.4.4,0,0,1-.18-.51l1.28-3.15a.4.4,0,0,1,.56-.2,8.68,8.68,0,0,0,1.92.72,10.45,10.45,0,0,0,2.59.34,4,4,0,0,0,1.4-.17.55.55,0,0,0,.4-.51q0-.34-.5-.47a13.32,13.32,0,0,0-1.63-.26,21,21,0,0,1-2.93-.54A4.56,4.56,0,0,1,102.48,42a3.73,3.73,0,0,1-.91-2.7,4.06,4.06,0,0,1,.82-2.49,5.54,5.54,0,0,1,2.45-1.76,10.49,10.49,0,0,1,3.91-.66,16.09,16.09,0,0,1,3.12.3,9.89,9.89,0,0,1,2.27.71.4.4,0,0,1,.19.52l-1.28,3.15a.4.4,0,0,1-.55.2,8.11,8.11,0,0,0-3.67-.84q-1.9,0-1.9.68,0,.34.51.48a11.61,11.61,0,0,0,1.62.27,19.4,19.4,0,0,1,2.91.55,4.67,4.67,0,0,1,2.1,1.28,3.73,3.73,0,0,1,.91,2.7,4,4,0,0,1-.82,2.44,5.53,5.53,0,0,1-2.46,1.76,10.75,10.75,0,0,1-4,.66A16.08,16.08,0,0,1,104.19,48.89Z" transform="translate(0 -0.35)"/><path class="cls-1" d="M120,48.32A7.25,7.25,0,0,1,117,45.68,7.22,7.22,0,0,1,120,35.36a9.86,9.86,0,0,1,8.42,0,7.08,7.08,0,0,1,2.9,2.63,7.26,7.26,0,0,1-2.9,10.33,9.74,9.74,0,0,1-8.42,0Zm5.84-4.4a3.1,3.1,0,0,0,.64-2.08,3,3,0,0,0-.64-2.07,2.21,2.21,0,0,0-3.29,0,3,3,0,0,0-.64,2.07,3.1,3.1,0,0,0,.64,2.08,2.18,2.18,0,0,0,3.29,0Z" transform="translate(0 -0.35)"/><path class="cls-1" d="M148.06,36a6.6,6.6,0,0,1,1.58,4.82v7.78a.4.4,0,0,1-.4.4h-5a.4.4,0,0,1-.4-.4V41.86q0-2.46-1.72-2.46a2,2,0,0,0-1.58.69,3.29,3.29,0,0,0-.6,2.19v6.34a.4.4,0,0,1-.4.4h-5a.4.4,0,0,1-.4-.4V35.08a.4.4,0,0,1,.4-.4h4.72a.4.4,0,0,1,.4.4v1a5.34,5.34,0,0,1,1.9-1.26,6.39,6.39,0,0,1,2.34-.42A5.6,5.6,0,0,1,148.06,36Z" transform="translate(0 -0.35)"/><path class="cls-1" d="M156.76,36.25h-.3v1.41h.3a.31.31,0,0,0,.23-.08.44.44,0,0,0,.08-.31v-.62a.44.44,0,0,0-.08-.31A.32.32,0,0,0,156.76,36.25Z" transform="translate(0 -0.35)"/><path class="cls-1" d="M153.26,34.84v5.83a.44.44,0,0,0,.44.44h13.89a.46.46,0,0,0,.46-.46V34.81a.44.44,0,0,0-.44-.44H153.72A.46.46,0,0,0,153.26,34.84Zm4.46,2.39a1.11,1.11,0,0,1-.24.77.93.93,0,0,1-.72.26h-.3v1.56h-.64V35.66h.95a.93.93,0,0,1,.72.26,1.11,1.11,0,0,1,.24.77Zm2.47,2.59h-1.27a.44.44,0,0,1-.44-.44V35.66h.64v3.57h1.06Zm2.61-1a1.12,1.12,0,0,1-.24.78,1.08,1.08,0,0,1-1.43,0,1.12,1.12,0,0,1-.24-.78V35.66h.64v3.21a.44.44,0,0,0,.09.31.37.37,0,0,0,.49,0,.43.43,0,0,0,.09-.31V35.66h.61Zm2.45.77a1.08,1.08,0,0,1-1.43,0,1.12,1.12,0,0,1-.24-.78v-.26h.61v.3a.43.43,0,0,0,.09.31.37.37,0,0,0,.48,0,.43.43,0,0,0,.09-.31.74.74,0,0,0-.09-.38,1.56,1.56,0,0,0-.23-.31l-.3-.29a2.87,2.87,0,0,1-.3-.32,1.66,1.66,0,0,1-.23-.39,1.31,1.31,0,0,1-.09-.52,1.14,1.14,0,0,1,.24-.78,1.07,1.07,0,0,1,1.42,0,1.15,1.15,0,0,1,.24.78v.13h-.61v-.17a.47.47,0,0,0-.08-.32.35.35,0,0,0-.47,0,.47.47,0,0,0-.08.32.74.74,0,0,0,.09.38,1.54,1.54,0,0,0,.23.31l.3.29a2.83,2.83,0,0,1,.3.32,1.59,1.59,0,0,1,.23.39,1.31,1.31,0,0,1,.09.52A1.13,1.13,0,0,1,165.25,39.6Z" transform="translate(0 -0.35)"/><path class="cls-1" d="M5.91,35.09a.41.41,0,0,0-.4-.41H.4a.4.4,0,0,0-.4.4V48.62a.4.4,0,0,0,.4.4h5a.4.4,0,0,0,.4-.4V42a3.2,3.2,0,0,1,.5-2,1.61,1.61,0,0,1,1.32-.63q1.56,0,1.57,2.46v6.75a.4.4,0,0,0,.4.4h5a.4.4,0,0,0,.4-.4V42a3.19,3.19,0,0,1,.5-2,1.61,1.61,0,0,1,1.32-.63q1.56,0,1.57,2.46v6.75a.4.4,0,0,0,.4.4h5a.4.4,0,0,0,.4-.4V40.84A6.75,6.75,0,0,0,22.65,36a5.36,5.36,0,0,0-4.07-1.6,6.17,6.17,0,0,0-2.64.56,5.69,5.69,0,0,0-1.73,1.24.4.4,0,0,1-.62,0A4.41,4.41,0,0,0,12,35a5.85,5.85,0,0,0-2.54-.54A5.36,5.36,0,0,0,5.9,35.7Z" transform="translate(0 -0.35)"/></g></g></svg>