<svg xmlns="http://www.w3.org/2000/svg" viewBox="0 0 650.59 673"><defs><style>.cls-1{fill:#f1f1f1;}.cls-2{fill:none;stroke:#3f3d56;stroke-miterlimit:10;stroke-width:2px;}.cls-3{fill:#3f3d56;}.cls-4{fill:#4285f4;}.cls-5,.cls-6{fill:#6c63ff;}.cls-6{opacity:0.3;isolation:isolate;}</style></defs><title>Asset 1</title><g id="Layer_2" data-name="Layer 2"><g id="effd0595-b14c-4c7e-b56f-e463e9379f7d"><circle class="cls-1" cx="468.76" cy="49.48" r="14.76"/><circle class="cls-1" cx="381.76" cy="620.48" r="14.76"/><circle class="cls-1" cx="14.76" cy="191.48" r="14.76"/><rect class="cls-1" x="106.32" y="36.89" width="429" height="534" transform="translate(-62.5 523.76) rotate(-73.29)"/><line class="cls-2" x1="331.76" y1="141.89" x2="452.9" y2="190.86"/><polygon class="cls-3" points="334.83 151.96 336.65 151.11 332.47 142.18 341.68 138.66 340.96 136.79 329.74 141.08 334.83 151.96"/><polygon class="cls-3" points="443.69 195.96 442.97 194.09 452.18 190.57 448 181.64 449.82 180.79 454.91 191.67 443.69 195.96"/><circle class="cls-3" cx="392.33" cy="166.38" r="11"/><line class="cls-2" x1="322.52" y1="481.35" x2="434.13" y2="413.4"/><polygon class="cls-3" points="332.44 484.89 332.84 482.93 323.18 480.95 325.86 471.46 323.93 470.92 320.67 482.48 332.44 484.89"/><polygon class="cls-3" points="432.72 423.83 430.79 423.29 433.47 413.8 423.81 411.82 424.21 409.86 435.98 412.27 432.72 423.83"/><circle class="cls-3" cx="378.33" cy="447.38" r="11"/><line class="cls-2" x1="182.31" y1="266.04" x2="182.35" y2="396.71"/><polygon class="cls-3" points="174.13 272.67 175.59 274.04 182.3 266.81 189.02 274.03 190.49 272.67 182.3 263.88 174.13 272.67"/><polygon class="cls-3" points="174.16 390.08 175.63 388.72 182.34 395.94 189.06 388.71 190.52 390.08 182.34 398.88 174.16 390.08"/><circle class="cls-3" cx="182.33" cy="331.38" r="11"/><rect class="cls-3" x="89.59" width="182" height="226"/><path class="cls-4" d="M169.21,84.13h-41.3a144.46,144.46,0,0,1,0-49.25h41.3A88.61,88.61,0,0,0,169.21,84.13Z"/><path class="cls-5" d="M192,109.11h41.3a144.46,144.46,0,0,0,0-49.25H192A88.61,88.61,0,0,1,192,109.11Z"/><path class="cls-5" d="M153,191.11h41.3a144.46,144.46,0,0,0,0-49.25H153A88.61,88.61,0,0,1,153,191.11Z"/><rect class="cls-3" x="468.59" y="215" width="182" height="226"/><rect class="cls-5" x="494.59" y="263" width="130" height="6"/><rect class="cls-5" x="494.59" y="284" width="130" height="6"/><rect class="cls-5" x="494.59" y="305" width="130" height="6"/><rect class="cls-5" x="494.59" y="326" width="130" height="6"/><rect class="cls-5" x="494.59" y="347" width="130" height="6"/><rect class="cls-5" x="525.59" y="369" width="68" height="24"/><rect class="cls-3" x="105.59" y="447" width="182" height="226"/><rect class="cls-5" x="131.89" y="572.81" width="130" height="6"/><rect class="cls-5" x="131.89" y="593.81" width="130" height="6"/><rect class="cls-5" x="131.89" y="614.81" width="130" height="6"/><rect class="cls-5" x="131.89" y="635.81" width="130" height="6"/><path class="cls-6" d="M171.71,527.44h-41.3a144.46,144.46,0,0,1,0-49.25h41.3A88.61,88.61,0,0,0,171.71,527.44Z"/><rect class="cls-6" x="188.89" y="482.81" width="76" height="5"/><rect class="cls-6" x="188.89" y="500.81" width="76" height="5"/><rect class="cls-6" x="188.89" y="518.81" width="76" height="5"/><rect class="cls-6" x="188.89" y="536.81" width="76" height="5"/></g></g></svg>